<svg xmlns="http://www.w3.org/2000/svg" width="90" height="29" fill="none"><path fill="#CB8B2C" stroke="#fff" stroke-width="2" d="M71.4 10.2c-1.6-.8-3-.1-4.2-.1-.9 0-1.8 0-2.6-.3-1.7-.6-2-3-.5-4a7 7 0 0 1 2.5-1c5.3-1.3 10.7-2.5 16.2-3.6 1-.3 2-.2 3.1 0 1.6.2 2.5 1.9 2 3.3l-.7 1.2-6.7 11c-.6.8-1.3 1.6-2.2 2.2-1.6 1.1-3.2.4-3.5-1.6v-2.1l-2.2.8L61 21.9a62.7 62.7 0 0 1-27.4 6c-3 .2-6-.2-8.9-1-4.4-1.1-8.8-2.6-13.1-4.3-4.9-1.9-8-5.6-10.1-10.2A5 5 0 0 1 1 9.8c.1-.6.7-1.4 1.3-1.6.6-.2 1.5.1 2 .5.7.7 1.2 1.7 1.7 2.6 2.1 3.6 5.2 6 9.2 7.4 4 1.4 8.1 3 12.4 3.6 9.6 1.2 18.9-.2 27.7-3.8 4.9-2 9.4-4.6 14.1-7 .7-.3 1.2-.8 2-1.3Z"/></svg>