<svg xmlns="http://www.w3.org/2000/svg" width="55" height="48" fill="none"><path fill="#1A2A47" fill-rule="evenodd" d="M41.47 21.89 49.4 8l-.6.18a51.65 51.65 0 0 1-9.63 1.57c-1.87.16-3.56.23-5.15.23-4.02 0-7.61-.45-13.57-1.2l-.66-.1A38.97 38.97 0 0 0 4.56 9.83l-.22.07 5.12 26.4.27-.08a38.94 38.94 0 0 1 15.08-1.08l.67.1c5.95.74 9.54 1.2 13.57 1.2 1.6 0 3.28-.08 5.14-.23 5.47-.45 8.8-1.32 9.98-1.68l.42-.13-12.44-11.85-.68-.65ZM26.6 10.04l5.28 25.44c-1.84-.2-3.89-.46-6.34-.77l-.66-.08a39.48 39.48 0 0 0-15.03 1.01l-4.92-25.4a38.48 38.48 0 0 1 14.79-1.03l.67.08c2.39.3 4.4.56 6.2.75ZM21 23.84c.25-.6.17-.9.17-.9h-.33c0 .44-.13.81-.37 1.05-.23.29-.53.41-.94.41-.24 0-.46-.04-.64-.16a1.15 1.15 0 0 1-.44-.57.59.59 0 0 1-.09-.25 1.24 1.24 0 0 1-.11-.36L18 21.8a5.93 5.93 0 0 1-.18-2c.11-.29.37-.4.74-.4s.71.07 1 .28c.24.2.56.57.8 1.02h.3l-.33-1.47h-.29l-.23.28a3 3 0 0 0-.63-.28c-.22-.08-.42-.08-.63-.08a2 2 0 0 0-.98.2c-.26.12-.5.37-.74.61-.19.29-.33.61-.39.94-.07.28-.09.61-.01.98a3 3 0 0 0 .4 1.01c.18.33.45.66.74.9a3.05 3.05 0 0 0 1.51.81c.17.05.33.05.5.05.28 0 .52-.05.72-.09.1-.04.5-.24.7-.72Zm5.86 2.58-2.7-.14.04.2.66.04.84 4.86-.65-.03.04.24 2.7.14-.05-.24-.65-.04-.85-4.85.66.03-.04-.2Zm-14.66-9.5 2.53-.12-.05-.25-.45.03-3.08-4.98-.33.02-.8 4.77a.92.92 0 0 1-.13.33.27.27 0 0 1-.19.1l-.33.01.06.24L11.1 17l-.05-.25-.5.03c-.07 0-.11 0-.16-.03-.05-.04-.1-.08-.11-.12l-.03-.12.04-.04.17-.9 1.6-.1.7 1.2-.6.03.04.24Zm-.29-1.73-1.42.07.34-1.85 1.08 1.78ZM3.52 7.6 4 7.4.72.34.25.56 3.52 7.6Zm6.76 30.92-.51.03.5 9.02.52-.03-.51-9.02Z" clip-rule="evenodd"/></svg>