<svg xmlns="http://www.w3.org/2000/svg" width="89" height="56" fill="none"><g clip-path="url(#a)"><path fill="#03AAA3" fill-rule="evenodd" d="m73.41 13.54.02-.43C73.43 6.2 67.86.6 61 .6a12.47 12.47 0 0 0-12.21 14.91c1.01-.4 2.32-.8 3.47-.8.94 0 2.16.23 3.6.5 2.1.4 4.66.9 7.53.9 3.53 0 6.34-1.03 8.91-1.97l1.11-.4.01-.21Zm-23.74 4.73a12.44 12.44 0 0 0 11.32 7.34c5.44 0 10.05-3.5 11.74-8.38-.45.06-.9.12-1.36.15-2.38.16-6.62-.02-8.52-.2-.8-.06-1.9-.26-3-.46a26.04 26.04 0 0 0-3.51-.49c-1.59 0-4.6 1.09-6.67 2.04ZM5.04 34.91l4.12 6.2h5.69l1.29-3.74h4.24l1.2 3.74h2.7L19.6 27.36h-2.5l-4.82 13.62-5.42-7.92 5.54-5.7H8.9l-5.26 5.57v-5.57H1.1l.05 13.75H3.7l-.05-4.76 1.4-1.44Zm14.43.02-1.22-3.81-1.32 3.8h2.54Zm18.4-3.81 1.22 3.8h-2.54l1.32-3.8ZM40 37.37l1.2 3.74h2.7l-4.68-13.75h-2.49l-4.88 13.75h2.62l1.3-3.74H40Zm43.7-2.44-1.23-3.81-1.32 3.8h2.55Zm2.1 6.18-1.2-3.74h-4.24l-1.28 3.74h-2.63l4.88-13.75h2.49l4.69 13.75H85.8ZM26.82 29.8v11.3h2.52V29.8h4.07v-2.44H22.7v2.44h4.12Zm32.12 11.3-.04-13.75h2.52l.05 13.75h-2.53Zm7.93-9.29 5.56 9.29h2.5V27.36h-2.47v9.26l-5.42-9.26h-2.65l.05 13.75h2.43v-9.29Zm13.48 15.74a.4.4 0 0 1 .13-.17c.3-.36.53-.54.66-.54.13.05.18.13.18.31 0 .23-.09.45-.27.63l-.57.66-.31.32c-.09.13-.22.22-.31.22-.14 0-.18-.05-.18-.18.04-.31.22-.71.67-1.25Zm-27.88-6.58c.07-.11.12-.22.18-.34l.18-.33c.2-.33.4-.61.67-.9.04.38.09.76.15 1.07-.32.92-.71 1.95-1.18 2.86a6.98 6.98 0 0 1-1.64 2.13l-.09-.13c.31-1.34.98-3.03 1.73-4.36Zm2.14-6.47c.3-.2.6-.29.88-.25.75.04 1.01.93.93 1.56-.5 2.4-1.11 4.13-1.95 5.91a45.55 45.55 0 0 1-2.04 3.68c-.01.02-.02.04-.05.06-.08.13-.36.5-.7.92-.59.77-1.34 1.74-1.34 1.88-.13 1.83.89 2.9 2.13 2.98.67.05 1.37-.22 2-.8.13-.08.26-.22.35-.35.28-.18.76-.68 1.28-1.23.88-.91 1.9-1.97 2.4-1.97.57 0 .59 1 .6 2.12.03 1.89.06 4.08 2.81 2.23a8.04 8.04 0 0 0 1.6-1.36c1.83-1.94 6.7-7.12 6.5-3.22a6.56 6.56 0 0 1-.48 1.83c-.16.42-.34.84-.52 1.27-.21.51-.44 1.04-.63 1.58l.13.22c.25-.23.54-.54.87-.89 1.13-1.2 2.64-2.79 3.87-2.72 1.08.07 1.44 1.27 1.74 2.27.3 1.02.54 1.83 1.41 1.07.7-.53.82-.72 1-1l.15-.25c.84-4.31 2.44-5.16 2.93-5.38 1.5-.76 3.72-.53 2.83 1.7-.54 1.31-1.32 2.07-2.04 2.78-.28.27-.55.53-.8.82l-.17.24c-.18.23-.36.47-.49.73-.3.63 0 1.16.67 1.56 1.06.62 3.06.98 4.96.76l.67.93c-2.66.1-4.4 0-5.63-.22-2.04-.36-2.47-1.04-2.73-1.46-.1-.15-.17-.26-.28-.32-.2.04-.41.2-.58.32l-.05.04c-2.71 1.67-2.77 1.57-3.75-.1-.27-.47-.6-1.04-1.08-1.73l-.08-.04c-.62.22-1.7 1.16-2.82 2.15-2.5 2.2-5.23 4.6-3.39-.64l.28-.67c.28-.68.57-1.38.74-2.04l-.31-.23a7.4 7.4 0 0 0-1.94 1.58c-.36.36-.7.72-1.07 1-1.29 1.25-4.35 3.3-5.14.45-.22-.76-.67-2.31-.45-2.9-.4.14-2.12 1.65-2.52 2.05-.22.16-.44.34-.63.5l-.21.17-.12.1-.1.1c-.62.55-.98.88-1.78.96-.35.04-.8 0-1.37-.09-1.86-.27-2.13-.76-2.44-2.67v-.02l-.01-.02-.02-.04a1.4 1.4 0 0 0-.15-.37s-1.2 2-2.34 3.34c-.54.62-2.18.8-2.18.8-.84.1-1.28 0-2.35-.53l2.13-.27.31-.04.31-.05c1.18.04 2.82-2.87 3.67-4.38l.45-.78c0-.04.05-.13.1-.18-.1-.29.01-.77.18-1.5l.21-.9a38.9 38.9 0 0 1 3.5-8.45 9.58 9.58 0 0 1 2-2.5l.14-.1Zm-2.8-4.74h-3.68v3.47h3.37c1.43 0 2.04-.53 2.04-1.78 0-1.48-.83-1.69-1.73-1.69Zm.96 6.05c-.26-.14-.6-.22-1.09-.22h-3.54l.04 5.52h-2.52l-.05-13.75h6.07c2.82 0 4.43 1.43 4.43 3.92a3.8 3.8 0 0 1-.79 2.52 2 2 0 0 0-1.12.44c-.45.34-.93.86-1.43 1.57Zm3.21 3.35c-.22.66-.46 1.3-.74 1.95h1.36V40.1l-.23-.13c-.27-.14-.34-.2-.39-.8Z" clip-rule="evenodd"/></g><defs><clipPath id="a"><path fill="#fff" d="M.8.3h88.03v55.37H.8z"/></clipPath></defs></svg>