<svg xmlns="http://www.w3.org/2000/svg" width="213" height="52" fill="none"><path fill="#1A2A47" fill-rule="evenodd" d="m73.5 21.33-.5.2v.38h4.16v-.38l-.91-.33c-.44-.14-.55-.25-.55-.49 0-.15.09-.47.26-.95l.58-1.69c.14-.39.26-.63.38-.7.12-.08.39-.13.81-.13h2.32c.28 0 .46.04.56.1.1.07.19.22.27.46l.83 2.43c.11.31.16.5.16.58 0 .17-.14.3-.42.4l-.97.32v.38h4.91v-.38l-.46-.18a1.57 1.57 0 0 1-.78-.53c-.13-.21-.4-.83-.77-1.86l-2.6-7-.61-1.64-.13-.1H78.8l-.12.1-.72 1.78-2.92 6.85-.34.79a8.93 8.93 0 0 1-.58 1.2c-.1.13-.3.26-.62.39Zm3.77-5.07c0-.05.04-.17.1-.37l1.25-3.29c.07-.2.14-.29.21-.29.07 0 .15.14.25.41l1.11 3.24c.06.16.08.26.08.3 0 .14-.12.2-.36.2h-2.16c-.39 0-.48-.04-.48-.2Zm13.48-2.53h-4.4v.26l.56.2c.22.07.35.15.38.24.03.09.05.38.06.87v5.04c0 .5-.03.78-.06.87-.03.09-.16.17-.38.25l-.56.19v.26h3.95c.64 0 1.19-.06 1.64-.18.45-.13.88-.34 1.28-.63.96-.7 1.44-1.89 1.44-3.56 0-.96-.16-1.74-.47-2.33a2.5 2.5 0 0 0-1.66-1.36 8.39 8.39 0 0 0-1.78-.12Zm-.72.53c.95 0 1.63.19 2.06.57.63.55.95 1.53.95 2.93 0 1.26-.21 2.2-.63 2.8-.36.53-1 .8-1.9.8-.67 0-1.14-.08-1.42-.22a.51.51 0 0 1-.26-.26 2.32 2.32 0 0 1-.06-.64v-5.35c0-.3.06-.46.17-.5a3.2 3.2 0 0 1 1.1-.13Zm10.05-.53h-4.02v.26l.56.2c.22.07.35.15.38.24.03.09.06.38.07.87v5.03c-.01.5-.04.8-.07.88-.03.09-.16.17-.38.25l-.56.19v.26h3.36v-.26l-.5-.2c-.22-.08-.35-.17-.38-.25a4.3 4.3 0 0 1-.06-.87v-1.89c0-.33.05-.38.33-.38h.21c.16-.01.29.02.37.08.1.07.21.22.37.46l1.82 2.84c.2.3.46.47.82.47h1.47v-.26a5.52 5.52 0 0 1-1.45-1.57l-1.44-2.02c-.1-.13-.15-.21-.15-.25 0-.07.07-.14.21-.2.47-.19.8-.37 1-.56.38-.36.58-.86.58-1.5 0-.68-.23-1.17-.68-1.47-.2-.14-.43-.22-.7-.27a6.3 6.3 0 0 0-1.16-.08Zm-.13.6c.17.03.34.11.5.23.43.29.64.76.64 1.41 0 .6-.21 1.03-.63 1.28-.31.18-.77.27-1.39.27-.27 0-.44-.02-.5-.06-.06-.04-.09-.15-.09-.33v-2.27c0-.26.02-.42.06-.47.08-.09.33-.13.74-.13.28 0 .51.02.67.06Zm8.3-.6h-3.42v.26l.56.2c.22.07.35.15.38.24.04.09.06.38.06.87v5.04c0 .49-.02.78-.06.87-.03.09-.16.17-.38.25l-.56.19v.26h3.43v-.26l-.57-.2c-.21-.07-.34-.16-.38-.25a3.5 3.5 0 0 1-.06-.86V15.3c0-.47.02-.76.06-.86.04-.1.17-.18.38-.26l.57-.19v-.26Zm1.3 7.77-.36.15v.26h2.92v-.26l-.64-.24c-.3-.1-.39-.17-.39-.34 0-.1.07-.33.19-.66l.4-1.18c.1-.28.19-.45.27-.5.08-.06.27-.09.57-.09h1.62c.2 0 .32.03.39.08.07.04.13.15.19.31l.59 1.7c.07.22.1.36.1.41 0 .12-.1.2-.29.27l-.68.24v.26h3.44v-.26l-.32-.13a1.1 1.1 0 0 1-.55-.37c-.1-.15-.28-.58-.54-1.3l-1.82-4.91-.43-1.14-.09-.07h-.87l-.09.07-.5 1.24-2.04 4.8-.24.55c-.2.46-.34.74-.41.84-.07.1-.22.18-.43.27Zm2.64-3.55c0-.03.02-.12.07-.25l.87-2.3c.05-.14.1-.2.15-.2.04 0 .1.09.17.28l.78 2.26.06.21c0 .1-.1.15-.26.15h-1.51c-.27 0-.33-.03-.33-.15Zm6-4.22-.1.09v1.87h.42l.47-.8c.16-.28.33-.45.5-.53.19-.08.52-.12 1.02-.12.24 0 .38.03.44.08s.09.18.09.4v5.62c0 .5-.03.8-.07.88-.03.07-.18.16-.44.24l-.62.19v.26h3.7v-.26l-.62-.2c-.26-.07-.4-.16-.44-.23a3.5 3.5 0 0 1-.07-.88v-5.63c0-.2.03-.34.08-.39.06-.05.21-.08.45-.08.5 0 .83.04 1 .12.19.08.36.25.52.53l.47.8h.43v-1.87l-.12-.1h-7.1Zm11.78 0h-3.43v.26l.57.2c.22.07.35.15.38.24.04.09.05.38.06.87v5.04c0 .49-.02.78-.06.87-.03.09-.16.17-.38.25l-.57.19v.26h3.43v-.26l-.56-.2c-.22-.07-.34-.16-.39-.25-.03-.1-.05-.39-.05-.86V15.3c0-.47.02-.76.05-.86.05-.1.17-.18.39-.26l.56-.19v-.26Zm2.07 1.53a4.87 4.87 0 0 0-.66 2.77c0 .6.07 1.17.22 1.7.14.53.43 1 .85 1.41.62.62 1.53.92 2.74.92.46 0 .9-.04 1.34-.11.44-.07.75-.16.92-.27.08-.04.2-.2.39-.48.18-.28.35-.6.54-.95l.24-.48-.32-.16a4.57 4.57 0 0 1-1.21 1.32c-.38.24-.86.36-1.43.36-1.8 0-2.69-1.24-2.69-3.74 0-1.24.23-2.14.67-2.7.36-.43.9-.65 1.63-.65.61 0 1.14.18 1.56.56.34.3.58.75.72 1.35h.23l.57-1.03c.05-.11.08-.2.08-.26a.76.76 0 0 0-.27-.6c-.22-.2-.55-.35-.98-.47-.43-.12-.9-.18-1.42-.18-1.7 0-2.95.57-3.72 1.69Zm14.1-2.85c-.63.91-.94 2.23-.94 3.95 0 .87.1 1.67.31 2.43.2.77.61 1.44 1.22 2.02.88.88 2.19 1.32 3.9 1.32.66 0 1.3-.06 1.92-.17a4.3 4.3 0 0 0 1.32-.37c.12-.07.3-.3.55-.7.26-.4.51-.84.78-1.35l.34-.69-.45-.23a6.54 6.54 0 0 1-1.74 1.89c-.54.35-1.22.52-2.04.52-2.56 0-3.84-1.78-3.84-5.34 0-1.78.32-3.06.96-3.86.5-.62 1.28-.94 2.32-.94.88 0 1.63.27 2.23.8.5.44.84 1.08 1.03 1.93h.33l.81-1.47a.89.89 0 0 0 .13-.37c0-.33-.13-.62-.4-.85a3.32 3.32 0 0 0-1.4-.67 7.49 7.49 0 0 0-2.02-.26c-2.44 0-4.21.8-5.32 2.4Zm14.75 1.32h-4.03v.26l.56.2c.22.07.35.15.38.24.03.09.06.38.07.87v5.03c-.01.5-.04.8-.07.88-.03.09-.16.17-.38.25l-.56.19v.26h3.36v-.26l-.5-.2c-.22-.08-.35-.17-.38-.25a4.28 4.28 0 0 1-.06-.87v-1.89c0-.33.05-.38.33-.38h.21c.16-.01.29.02.37.08.1.07.21.22.37.46l1.82 2.84c.2.3.47.47.82.47h1.48v-.26a5.55 5.55 0 0 1-1.46-1.57l-1.44-2.02c-.1-.13-.14-.21-.14-.25 0-.07.07-.14.2-.2.47-.19.8-.37 1-.56.38-.36.58-.86.58-1.5 0-.68-.23-1.17-.68-1.47-.2-.14-.43-.22-.7-.27a6.29 6.29 0 0 0-1.15-.08Zm-.13.6c.17.03.33.11.5.23.42.29.63.76.63 1.41 0 .6-.21 1.03-.63 1.28-.31.18-.77.27-1.39.27-.27 0-.44-.02-.5-.06-.06-.04-.09-.15-.09-.33v-2.27c0-.26.02-.42.06-.47.09-.09.33-.13.74-.13.28 0 .51.02.67.06Zm5.19.91a4.73 4.73 0 0 0-.66 2.7c0 1.35.33 2.39 1 3.1.64.68 1.55 1.02 2.74 1.02.68 0 1.3-.1 1.84-.32.76-.3 1.35-.79 1.76-1.45.43-.67.63-1.6.63-2.8 0-.58-.06-1.12-.18-1.62-.15-.6-.46-1.1-.94-1.5a3.78 3.78 0 0 0-2.5-.8c-.7 0-1.32.1-1.87.3-.79.29-1.4.75-1.82 1.37Zm.93 2.47c0-1.14.16-2 .5-2.59.34-.62.96-.93 1.84-.93.7.02 1.25.23 1.64.65.56.57.82 1.53.82 2.98 0 1.18-.16 2.07-.47 2.68-.32.63-.93.94-1.8.94-1.69 0-2.53-1.24-2.53-3.73Zm7.08 3.8-.35.14v.26h2.91v-.26l-.64-.24c-.3-.1-.38-.17-.38-.34 0-.1.06-.33.18-.66l.41-1.18c.1-.28.18-.45.26-.5.09-.06.28-.09.57-.09h1.62c.2 0 .33.03.4.08.06.04.13.15.18.31l.59 1.7c.07.22.11.36.11.41 0 .12-.1.2-.3.27l-.67.24v.26h3.43v-.26l-.32-.13a1.1 1.1 0 0 1-.55-.37c-.09-.15-.27-.58-.54-1.3l-1.82-4.91-.42-1.14-.1-.07h-.87l-.09.07-.5 1.24-2.04 4.8-.24.55c-.2.46-.34.74-.4.84-.07.1-.22.18-.43.27Zm2.64-3.56c0-.03.02-.12.07-.25l.87-2.3c.05-.14.1-.2.15-.2.05 0 .1.09.18.28l.78 2.26.05.21c0 .1-.09.15-.26.15h-1.5c-.28 0-.34-.03-.34-.15Zm6.01-4.22-.11.09v1.87h.42l.47-.8c.16-.28.34-.45.51-.53.18-.08.52-.12 1.01-.12.24 0 .39.03.44.08.06.05.1.18.1.4v5.62c-.01.5-.04.8-.08.88-.03.07-.18.16-.44.24l-.62.19v.26h3.7v-.26l-.62-.2c-.25-.07-.4-.16-.44-.23a3.56 3.56 0 0 1-.06-.88v-5.63c0-.2.02-.34.08-.39.05-.05.2-.08.44-.08.5 0 .83.04 1.01.12.18.08.35.25.52.53l.47.8h.42v-1.87l-.11-.1h-7.1Zm11.78 0h-3.43v.26l.56.2c.22.07.35.15.38.24.04.09.06.38.06.87v5.04c0 .49-.02.78-.06.87-.03.09-.16.17-.38.25l-.56.19v.26h3.43v-.26l-.57-.2c-.21-.07-.34-.16-.38-.25a3.4 3.4 0 0 1-.06-.86V15.3c0-.47.02-.76.06-.86.04-.1.17-.18.38-.26l.57-.19v-.26Zm1.28 7.77-.34.15v.26h2.91v-.26l-.64-.24c-.3-.1-.39-.17-.39-.34 0-.1.07-.33.19-.66l.4-1.18c.1-.28.19-.45.27-.5.08-.06.27-.09.57-.09h1.62c.2 0 .32.03.4.08.06.04.12.15.18.31l.59 1.7c.07.22.1.36.1.41 0 .12-.1.2-.29.27l-.68.24v.26H204v-.26l-.32-.13a1.1 1.1 0 0 1-.55-.37 9.6 9.6 0 0 1-.54-1.3l-1.82-4.91-.43-1.14-.09-.07h-.87l-.09.07-.5 1.24-2.04 4.8-.24.55c-.2.46-.34.74-.4.84-.08.1-.22.18-.44.27Zm2.65-3.55c0-.03.02-.12.07-.25l.87-2.3c.05-.14.1-.2.15-.2.05 0 .1.09.17.28l.78 2.26.06.21c0 .1-.09.15-.26.15h-1.5c-.28 0-.34-.03-.34-.15ZM69.86 27.22H65v.37l.8.28c.32.1.5.22.54.34.05.13.08.54.09 1.24v7.14a4.8 4.8 0 0 1-.1 1.24c-.04.12-.21.24-.53.35l-.8.27v.37h4.86v-.37l-.8-.27c-.3-.11-.48-.23-.54-.37a5.11 5.11 0 0 1-.08-1.22v-7.14c0-.67.02-1.08.08-1.22.06-.14.24-.26.54-.36l.8-.28v-.37Zm2 11.11-.57.23v.26h2.97v-.26l-.76-.26c-.23-.07-.38-.16-.43-.26a1.6 1.6 0 0 1-.09-.68v-4.33c0-.2.04-.3.1-.29.06 0 .16.1.32.31l2.98 3.8.68.9.65.83.11.15.14.1h.72l.1-.1a82.1 82.1 0 0 1-.02-1.73v-4.77c0-.42.03-.68.1-.79.05-.1.24-.21.55-.33l.38-.15v-.26h-2.94v.26l.73.28c.23.09.38.18.43.27.06.09.09.29.09.59v4.2c0 .22-.04.34-.1.34-.03 0-.1-.07-.21-.2L75.12 33c-.3-.4-.78-1.02-1.4-1.87l-.26-.33-.14-.09h-1.95v.26l.51.34c.33.22.44.4.44.78v5.07c-.01.48-.05.77-.09.9-.04.1-.17.2-.37.28Zm9.06-7.63-.11.1v1.85h.42l.46-.8c.17-.27.34-.45.51-.52.18-.08.51-.12 1-.12.24 0 .39.03.44.08.06.05.1.18.1.39v5.58c-.01.5-.04.79-.08.87-.03.08-.18.16-.43.24l-.62.19v.26h3.68v-.26l-.62-.2c-.26-.07-.4-.15-.44-.23a3.52 3.52 0 0 1-.07-.87v-5.58c0-.21.03-.34.08-.39.06-.05.2-.08.45-.08.49 0 .82.04 1 .12.18.07.35.25.5.52l.48.8h.42V30.8l-.12-.09h-7.05Zm14.54 0H89.2v.26l.56.2c.22.06.34.15.37.24.04.09.07.37.07.86v5c0 .5-.03.78-.07.87-.03.08-.15.16-.37.24l-.56.19v.26h6.63l.1-.1v-2.16h-.4l-.38.69c-.25.45-.47.73-.65.83-.25.15-.72.22-1.4.22-.67 0-1.1-.07-1.3-.22a.4.4 0 0 1-.16-.22 2.83 2.83 0 0 1-.03-.5V35.3c0-.24.03-.38.07-.43.05-.06.2-.08.43-.08h.92c.23 0 .38.02.45.08.07.05.17.22.32.51l.2.44h.3v-2.6H94l-.2.45a2.1 2.1 0 0 1-.31.5c-.07.05-.22.08-.45.08h-.89c-.25 0-.4-.02-.47-.06-.05-.04-.07-.17-.07-.37v-1.87c0-.23 0-.38.03-.46a.21.21 0 0 1 .1-.15 3.8 3.8 0 0 1 1.24-.11c.53 0 .9.03 1.1.1.15.03.27.1.35.2.09.08.22.27.38.55l.35.6h.42v-1.9l-.12-.09Zm5.73 0h-4v.26l.56.2c.22.06.35.15.38.24.03.09.06.37.06.86v5c0 .5-.03.78-.06.87-.03.08-.16.16-.38.24l-.56.19v.26h3.34v-.26l-.49-.2c-.22-.08-.35-.16-.38-.24a4.2 4.2 0 0 1-.06-.86v-1.88c0-.33.05-.38.32-.38h.22c.15-.02.28.01.36.08.1.07.21.21.37.45l1.8 2.82c.2.3.47.47.81.47h1.47v-.26a5.51 5.51 0 0 1-1.45-1.55l-1.42-2c-.1-.14-.14-.22-.14-.26 0-.07.06-.13.2-.2.46-.18.8-.37.99-.55.38-.36.57-.86.57-1.5 0-.67-.22-1.15-.67-1.45-.2-.14-.43-.22-.69-.27a6.24 6.24 0 0 0-1.15-.08Zm-.13.59c.17.04.33.12.5.23.42.3.63.76.63 1.4 0 .6-.21 1.03-.63 1.27-.3.18-.76.27-1.37.27-.27 0-.44-.02-.5-.06-.06-.04-.09-.15-.09-.32v-2.26c0-.26.02-.41.06-.46.08-.09.33-.14.73-.14.28 0 .5.03.67.07Zm5.36 7.04-.57.23v.26h2.97v-.26l-.75-.26c-.24-.07-.39-.16-.44-.26a1.6 1.6 0 0 1-.09-.68v-4.33c0-.2.04-.3.1-.29.06 0 .16.1.32.31l2.98 3.8.69.9.64.83.11.15.14.1h.72l.1-.1-.02-1.73v-4.77a2 2 0 0 1 .1-.79c.05-.1.24-.21.55-.33l.38-.15v-.26h-2.94v.26l.73.28c.23.09.38.18.44.27.05.09.08.29.08.59v4.2c0 .22-.03.34-.1.34-.04 0-.1-.07-.21-.2L109.68 33c-.31-.4-.78-1.02-1.4-1.87l-.26-.33-.14-.09h-1.95v.26l.51.34c.33.22.44.4.44.78v5.07c-.02.48-.05.77-.09.9-.04.1-.17.2-.38.28Zm8.91.09-.34.14v.26h2.89v-.26l-.64-.23c-.3-.1-.38-.18-.38-.34 0-.1.06-.33.18-.66l.4-1.17c.1-.28.19-.44.27-.5.08-.05.27-.08.56-.08h1.62c.19 0 .31.02.38.07.07.04.13.15.19.32l.58 1.69c.07.21.11.35.11.4 0 .11-.1.2-.3.27l-.67.23v.26h3.41v-.26l-.31-.12a1.1 1.1 0 0 1-.55-.37c-.1-.15-.27-.58-.53-1.3l-1.8-4.87c-.15-.36-.3-.74-.44-1.13l-.08-.07H119l-.09.07-.5 1.23-2.02 4.76-.24.55c-.2.46-.34.74-.4.83a1 1 0 0 1-.43.28Zm2.63-3.53c0-.03.02-.11.07-.25l.86-2.29c.05-.13.1-.2.15-.2.04 0 .1.1.17.29l.78 2.25.05.2c0 .1-.09.15-.26.15h-1.5c-.26 0-.33-.03-.33-.15Zm5.96-4.19-.11.1v1.85h.42l.47-.8c.16-.27.33-.45.5-.52.18-.08.51-.12 1-.12.24 0 .39.03.44.08.06.05.1.18.1.39v5.58c-.01.5-.04.79-.08.87-.03.08-.18.16-.43.24l-.62.19v.26h3.68v-.26l-.62-.2c-.26-.07-.4-.15-.44-.23a3.45 3.45 0 0 1-.07-.87v-5.58c0-.21.03-.34.08-.39.06-.05.21-.08.45-.08.49 0 .82.04 1 .12.18.07.35.25.5.52l.48.8h.42V30.8l-.12-.09h-7.05Zm11.69 0h-3.4v.26l.56.2c.22.06.34.15.37.24.04.09.06.37.07.86v5c-.01.49-.03.78-.07.87-.03.08-.15.16-.37.24l-.56.19v.26h3.4v-.26l-.56-.2c-.22-.07-.34-.15-.38-.25a3.3 3.3 0 0 1-.06-.85v-5c0-.47.02-.76.06-.85.04-.1.17-.19.38-.26l.56-.19v-.26Zm2.05 1.5a4.7 4.7 0 0 0-.66 2.67c0 1.35.33 2.38 1 3.09.63.67 1.54 1 2.72 1a5 5 0 0 0 1.82-.31c.76-.3 1.34-.78 1.75-1.44.42-.66.63-1.59.63-2.78 0-.57-.06-1.1-.18-1.6-.15-.6-.46-1.1-.93-1.5a3.75 3.75 0 0 0-2.49-.78c-.69 0-1.31.1-1.85.3-.79.28-1.39.73-1.81 1.35Zm.92 2.45c0-1.13.17-1.99.49-2.57.34-.61.96-.92 1.84-.92.7.02 1.24.23 1.63.64.55.57.8 1.52.8 2.96a6.1 6.1 0 0 1-.46 2.66c-.32.63-.92.94-1.78.94-1.68 0-2.52-1.24-2.52-3.7Zm8.25 3.68-.56.23v.26h2.97v-.26l-.76-.26c-.23-.07-.38-.16-.44-.26-.05-.1-.09-.33-.09-.68v-4.33c0-.2.04-.3.11-.29.05 0 .16.1.31.31l2.98 3.8.69.9.64.83.12.15.13.1h.73l.1-.1a78.4 78.4 0 0 1-.02-1.73v-4.77c0-.42.03-.68.09-.79.05-.1.24-.21.56-.33l.37-.15v-.26h-2.93v.26l.72.28c.24.09.38.18.44.27.05.09.08.29.08.59v4.2c0 .22-.03.34-.1.34-.03 0-.1-.07-.2-.2L150.08 33l-1.4-1.87-.25-.33-.15-.09h-1.95v.26l.51.34c.34.22.44.4.44.78v5.07c-.01.48-.04.77-.08.9-.05.1-.17.2-.38.28Zm8.91.09-.34.14v.26h2.9v-.26l-.64-.23c-.3-.1-.38-.18-.38-.34 0-.1.06-.33.18-.66l.4-1.17c.1-.28.18-.44.26-.5.09-.05.27-.08.57-.08h1.6c.2 0 .33.02.4.07.07.04.13.15.18.32l.59 1.69c.07.21.1.35.1.4 0 .11-.1.2-.29.27l-.67.23v.26h3.4v-.26l-.31-.12a1.1 1.1 0 0 1-.54-.37 9.5 9.5 0 0 1-.54-1.3l-1.8-4.87-.43-1.13-.09-.07h-.87l-.08.07-.5 1.23-2.03 4.76-.23.55c-.2.46-.34.74-.41.83a1 1 0 0 1-.42.28Zm2.63-3.53c0-.03.02-.11.07-.25l.87-2.29c.04-.13.1-.2.15-.2.04 0 .1.1.16.29l.78 2.25.06.2c0 .1-.1.15-.26.15h-1.5c-.27 0-.33-.03-.33-.15Zm10.14-4.19h-3.57v.26l.56.2c.2.06.33.15.37.25.05.1.06.38.06.85v5c0 .47-.01.75-.06.85-.04.1-.16.18-.37.26l-.56.19v.26h6.42l.1-.1v-2.16h-.4l-.18.34-.16.3-.16.28c-.12.22-.24.38-.35.48-.24.22-.72.33-1.43.33-.58 0-.98-.06-1.2-.2a.43.43 0 0 1-.2-.24 3 3 0 0 1-.04-.65v-4.94c0-.48.02-.77.06-.86.05-.1.19-.18.44-.25l.67-.19v-.26Zm10.23-1.31c-.62.9-.94 2.22-.94 3.92 0 .86.11 1.66.32 2.42.2.75.6 1.43 1.2 2 .88.87 2.18 1.3 3.88 1.3.66 0 1.29-.05 1.9-.16a4.2 4.2 0 0 0 1.32-.37c.11-.07.3-.3.54-.69.26-.4.5-.84.77-1.34l.34-.68-.45-.23a6.5 6.5 0 0 1-1.72 1.87c-.54.35-1.22.52-2.03.52-2.54 0-3.8-1.77-3.8-5.3 0-1.77.31-3.04.95-3.83.5-.62 1.26-.94 2.3-.94.88 0 1.62.27 2.21.8.5.44.83 1.07 1.02 1.91h.33l.8-1.46a.87.87 0 0 0 .13-.36c0-.33-.13-.61-.38-.84a3.46 3.46 0 0 0-1.4-.68 7.43 7.43 0 0 0-2-.25c-2.43 0-4.2.8-5.29 2.39Zm14.21 1.31h-3.57v.26l.56.2c.22.06.34.15.38.25.04.1.06.38.06.85v5c0 .47-.02.75-.06.85-.04.1-.16.18-.38.26l-.56.19v.26h6.42l.11-.1v-2.16h-.4l-.18.34-.17.3-.15.28c-.13.22-.25.38-.35.48-.25.22-.73.33-1.44.33-.57 0-.97-.06-1.2-.2a.43.43 0 0 1-.2-.24 4.3 4.3 0 0 1-.03-.65v-4.94c0-.48.01-.77.06-.86.04-.1.19-.18.43-.25l.67-.19v-.26Zm7.03 0h-3.4v.26l.56.2c.22.06.34.15.38.25.04.1.06.38.06.85v3.89c0 .54.03.96.1 1.24.06.29.18.54.35.75.46.56 1.3.84 2.5.84 1.82 0 2.9-.59 3.26-1.75.11-.37.17-1.04.17-2.03v-2.94c0-.49.03-.77.06-.86.03-.1.16-.18.38-.25l.56-.19v-.26h-3.24v.26l.56.2c.22.06.34.15.38.24.03.09.05.38.06.86v3.46c0 .67-.01 1.11-.04 1.33-.03.22-.09.43-.18.63-.22.45-.7.67-1.43.67-.77 0-1.43-.28-1.75-.74a1.5 1.5 0 0 1-.27-.62c-.04-.24-.07-.6-.07-1.08v-3.65c0-.49.03-.77.06-.86.03-.1.17-.18.39-.25l.55-.19v-.26Zm9.98 0H206v.26l.56.2c.22.06.34.15.38.24.03.09.05.37.06.86v5c0 .49-.03.78-.06.87-.04.08-.16.16-.38.24l-.56.19v.26h3.6c1.38 0 2.25-.27 2.86-.9.36-.37.54-.9.54-1.57 0-.56-.16-1-.47-1.27a2.61 2.61 0 0 0-1.35-.55 4.85 4.85 0 0 1-.42-.09c-.05-.02-.07-.05-.07-.1 0-.06.05-.11.15-.15.6-.21 1.04-.46 1.3-.75.27-.3.4-.66.4-1.1 0-.65-.28-1.16-.76-1.4-.2-.08-.43-.15-.69-.19a8.87 8.87 0 0 0-1.13-.05Zm-1.56 4.56c0-.25.05-.4.13-.46.09-.05.35-.08.78-.08 1.47 0 2.17.64 2.17 1.95 0 1.16-.51 1.63-1.75 1.63-.6 0-.98-.1-1.16-.3-.11-.12-.17-.42-.17-.88v-1.86Zm.88-4.07c1.27 0 1.8.42 1.8 1.43 0 .58-.2 1-.57 1.26a2.5 2.5 0 0 1-1.42.33c-.32 0-.52-.02-.59-.06-.07-.05-.1-.18-.1-.4v-1.9c0-.3.03-.47.08-.52.08-.1.34-.14.8-.14Zm-167.81-5.3L49.4 12l-.6.18a51.64 51.64 0 0 1-9.63 1.57c-1.87.16-3.56.23-5.15.23-4.02 0-7.61-.45-13.57-1.2l-.66-.1a38.96 38.96 0 0 0-15.23 1.13l-.22.07 5.12 26.4.27-.08a38.94 38.94 0 0 1 15.08-1.08l.67.1c5.95.74 9.54 1.2 13.57 1.2 1.6 0 3.28-.08 5.14-.23 5.47-.45 8.8-1.32 9.98-1.68l.42-.13-12.44-11.85-.68-.65ZM26.6 14.04l5.28 25.44c-1.84-.2-3.89-.46-6.34-.77l-.66-.08a39.48 39.48 0 0 0-15.03 1.01l-4.92-25.4a38.48 38.48 0 0 1 14.79-1.03l.67.08c2.39.3 4.4.56 6.2.75ZM21 27.84c.25-.6.17-.9.17-.9h-.33c0 .44-.13.81-.37 1.05-.23.29-.53.41-.94.41-.24 0-.46-.04-.64-.16a1.15 1.15 0 0 1-.44-.57.59.59 0 0 1-.09-.25 1.24 1.24 0 0 1-.11-.36L18 25.8a5.93 5.93 0 0 1-.18-2c.11-.29.37-.4.74-.4s.71.07 1 .28c.24.2.56.57.8 1.02h.3l-.33-1.47h-.29l-.23.28a3 3 0 0 0-.63-.28c-.22-.08-.42-.08-.63-.08a2 2 0 0 0-.98.2c-.26.12-.5.37-.74.61-.19.29-.33.61-.39.94-.07.28-.09.61-.01.98a3 3 0 0 0 .4 1.01c.18.33.45.66.74.9a3.05 3.05 0 0 0 1.51.81c.17.05.33.05.5.05.28 0 .52-.05.72-.09.1-.04.5-.24.7-.72Zm5.86 2.58-2.7-.14.04.2.66.04.84 4.86-.65-.03.04.24 2.7.14-.05-.24-.65-.04-.85-4.85.66.03-.04-.2Zm-14.66-9.5 2.53-.12-.05-.25-.45.03-3.08-4.98-.33.02-.8 4.77a.92.92 0 0 1-.13.33.27.27 0 0 1-.19.1l-.33.01.06.24L11.1 21l-.05-.25-.5.03c-.07 0-.11 0-.16-.03-.05-.04-.1-.08-.11-.12l-.03-.12.04-.04.17-.9 1.6-.1.7 1.2-.6.03.04.24Zm-.29-1.73-1.42.07.34-1.85 1.08 1.78ZM3.52 11.6l.48-.2L.72 4.34l-.47.22 3.27 7.04Zm6.76 30.92-.51.03.5 9.02.52-.03-.51-9.02Z" clip-rule="evenodd"/></svg>