<svg xmlns="http://www.w3.org/2000/svg" width="137" height="68" fill="none"><g clip-path="url(#a)"><path fill="#20307A" fill-rule="evenodd" d="M102.63 60.59v-14.6h4.24v6.56l4.66-6.55h4.17l-4.76 6.55 4.76 8.04h-4.17l-4.66-8.04v8.04h-4.24Zm-11.75 0v-14.6h10.23v3.27H95.1v2.38h5.02v3.22H95.1v2.5h6.02v3.23H90.88ZM85.17 46h4.23v10.03c0 5.63-4.8 5.18-8.94 4.24l-.32-3.67c1.2.34 5.03 2.65 5.03-2.41v-8.2ZM74.78 60.59v-14.6h4.3v14.6h-4.3Z" clip-rule="evenodd"/><path fill="#20307A" fill-rule="evenodd" d="m65.61 54.19 2.64 6.4H73l-2.25-4.56c3.87-.6 4.81-10.03-3.3-10.03h-6.6v14.59h4.21V49.14h.55c6.16-.44 4.42 6.44 0 5.05Zm54.44-.16h3.39l-1.58-4.77-1.81 4.77Zm-6.46 6.56 6.1-14.6h4.7l4.96 14.6h-3.84l-1.13-3.24h-5.63l-1.18 3.24h-3.98Z" clip-rule="evenodd"/><path fill="#00ADEF" fill-rule="evenodd" d="M13.34 46.03 2.85 60.6h11l2.01-2.89H9.04l8.58-11.67h-4.28Zm11.44 0-6.54 8.83c-2.67 3.99-2 5.79 2.98 5.73 4.66-.05 6.59-1.43 9-4.56l7.29-10h-4.3l-6.44 8.83c-1.56 2.5-7.57 4.51-4.26 0l6.44-8.83h-4.17Zm33.94 0V60.6H55.3v-3.8h-5.7l-2.69 3.8h-4.76l11.08-14.56h5.49Zm-6.8 7.62h3.39V48.9l-3.4 4.76Z" clip-rule="evenodd"/><path fill="#00ADEF" fill-rule="evenodd" d="M38.92 46.03 28.04 60.6h4.61l4.68-6.56 1.71 6.56h4.26l-2-7.16 10.2-7.4h-4.59L39.3 51.3l3.78-5.27h-4.16Z" clip-rule="evenodd"/><path stroke="#231F20" stroke-linejoin="round" stroke-miterlimit="22.93" stroke-width="1.3" d="M75.15 7.27a9.81 9.81 0 0 0-2.71-.33 11.64 11.64 0 0 0-11.52 11.71c0 1.93.46 3.75 1.28 5.35l-3.99 5.44a18.15 18.15 0 0 1-3.53-10.79C54.68 8.71 62.66.6 72.44.6c2.35 0 4.6.44 6.65 1.32"/><path fill="url(#b)" d="M58.14 29.52v-.14H58v-.14h-.14v-.14h-.14v-.28h-.14v-.29h-.13v-.14h-.14v-.28h-.14v-.28h-.14v-.14h-.14v-.28h-.14v-.29h-.14v-.28h-.14v-.28h-.13v-.42h-.14v-.29h-.14v-.28h-.14v-.42h-.14v-.29h-.14v-.28h-.14v-.56h-.14v-.57h-.14v-.56h-.13v-.57h-.14v-.56h-.14v-1.13h-.14v-4.1h.14v-.98h.14v-.7h.14v-.57h.13v-.56h.14v-.57h.14v-.42h.14v-.28h.14v-.43h.14v-.42h.14v-.28h.14v-.29h.14v-.28h.13v-.28h.14v-.28h.14V9.9h.14v-.29h.14v-.14h.14V9.2h.14v-.28h.14v-.14h.13v-.29h.14v-.14h.14v-.28H58v-.14h.14v-.14h.14V7.5h.14v-.14h.14v-.15h.14v-.14h.13V6.8h.14v-.14h.14v-.14h.14v-.14h.14v-.14h.14V6.1h.14v-.15h.14v-.14h.13v-.14h.14v-.14h.14V5.4h.14v-.14h.14V5.1h.14v-.14h.14v-.14h.14v-.15h.27v-.14h.14V4.4h.14v-.14h.28v-.14h.14v-.14h.14v-.14h.27V3.7h.14v-.14h.28V3.4h.14v-.14h.28v-.14h.28V3h.13v-.14h.28V2.7h.28v-.14h.28v-.14h.27v-.15h.28v-.14h.28V2h.28v-.14h.41v-.14h.42v-.14h.28v-.14h.41V1.3h.56v-.14h.56V1h.55V.87h.7V.73h.97V.6h4.02v.14h1.11v.14h.84v.14h.41v.15h.56v.14h.55v.14h.42v.14h.55v.14h.28v.42h-.14v.14h-.14v.29h-.13v.14h-.14v.14h-.14v.28h-.14v.14h-.14v.14h-.14v.29h-.14v.14h-.14v.14h-.13v.28h-.14v.14h-.14v.14h-.14v.29h-.14v.14h-.14v.14h-.14v.28h-.14v.14h-.14v.14h-.13v.28h-.14v.15h-.14v.14h-.14v.28h-.14v.14h-.14v.14h-.14v.28h-.14v.14h-.13v.15h-.28v-.15h-.84v-.14h-3.19v.14h-.83v.15h-.42v.14h-.55v.14h-.42v.14h-.42v.14h-.41v.14h-.14v.14h-.28v.14h-.28v.14h-.27v.15h-.28v.14h-.28v.14h-.14v.14h-.28v.14h-.13v.14h-.14v.14h-.14v.14h-.28v.14h-.14v.15h-.14v.14h-.14v.14h-.14v.14h-.27v.14h-.14v.28h-.14v.14h-.14v.14h-.14v.15h-.14v.14h-.14v.28h-.13v.14h-.14v.14h-.14v.14H63v.28h-.14v.15h-.14v.28h-.14V13h-.14v.28h-.14v.28h-.13v.29h-.14V14h-.14v.42h-.14v.43h-.14v.56h-.14v.42h-.14v.43h-.14v.84h-.13v2.97h.13v.98h.14v.57h.14v.42h.14v.43h.14v.28h.14v.42h.14v.42h.14v.29h.13v.28h-.13v.14h-.14v.14h-.14v.28h-.14v.14h-.14v.15h-.14v.28h-.14v.14h-.14v.14h-.13v.28h-.14V26h-.14v.15h-.14v.28h-.14v.14h-.14v.28h-.14v.14h-.14v.14h-.14v.29h-.13v.14h-.14v.14h-.14v.28h-.14v.14h-.14v.14h-.14v.28h-.14v.15h-.14v.14h-.13v.28h-.14v.14h-.14v.14h-.14v.14"/><path stroke="#fff" stroke-linejoin="round" stroke-miterlimit="22.93" stroke-width=".49" d="M75.14 7.26a9.7 9.7 0 0 0-2.7-.32 11.64 11.64 0 0 0-11.52 11.71c0 1.93.47 3.75 1.28 5.35l-3.98 5.44a18.15 18.15 0 0 1-3.54-10.79C54.68 8.71 62.66.6 72.44.6c2.35 0 4.6.44 6.65 1.28l-3.95 5.38Z"/><path fill="#fff" fill-rule="evenodd" d="M81.55 11.51c1.52 2 2.4 4.47 2.4 7.14 0 6.45-5.44 11.89-11.79 11.89-1.4 0-3.98-.84-2.91-.03l14.94 11.37 10.9-.04-11.95-8.63a18.82 18.82 0 0 0 7.06-14.56A18.1 18.1 0 0 0 79.93 2.3L59.26 30.35c-1.24 1.81-2.77 1.7-4 .37-1.25-1.33-1.75-2.87-2.09-4.74l1.78.65a31.03 31.03 0 0 1-1.6-7.28c-2.92 2.62-4.68 4.99-5.3 7.12.62-.35 1.23-.6 1.84-.64.73 2.23.73 3.94 2.27 6.44 1.54 2.5 3.64 5.8 4.3 8.1 2.07-.04 2.93.1 5.06.72 2.13.62 3.85.8 4.25.8h16.2l-8.55-6.46h-4.9c-.53.03-5.02.34-2.92-2.15L81.55 11.5Z" clip-rule="evenodd"/><path stroke="#231F20" stroke-linejoin="round" stroke-miterlimit="22.93" stroke-width="1.3" d="M81.55 11.51c1.52 2 2.4 4.47 2.4 7.14 0 6.45-5.44 11.89-11.79 11.89-1.4 0-3.98-.84-2.91-.03l14.94 11.37 10.9-.04-11.95-8.63a18.82 18.82 0 0 0 7.06-14.56A18.1 18.1 0 0 0 79.93 2.3L59.26 30.35c-1.24 1.81-2.77 1.7-4 .37-1.25-1.33-1.75-2.87-2.09-4.74l1.78.65a31.03 31.03 0 0 1-1.6-7.28c-2.92 2.62-4.68 4.99-5.3 7.12.62-.35 1.23-.6 1.84-.64.73 2.23.73 3.94 2.27 6.44 1.54 2.5 3.64 5.8 4.3 8.1 2.07-.04 2.93.1 5.06.72 2.13.62 3.85.8 4.25.8h16.2l-8.55-6.46h-4.9c-.53.03-5.02.34-2.92-2.15L81.55 11.5Z"/><path fill="url(#c)" d="M64.8 41.94v-.14h-.97v-.14h-.7v-.14h-.55v-.14h-.55v-.14h-.56v-.15h-.55v-.14h-.56v-.14h-.55v-.14h-.7v-.14h-1.25v-.14h-1.52v-.42h-.14v-.29h-.14v-.42h-.14v-.28h-.14v-.28h-.14v-.29h-.14v-.28h-.14v-.28h-.14v-.28h-.13v-.29h-.14V37h-.14v-.28h-.14v-.14h-.14v-.28h-.14V36h-.14v-.14h-.14v-.28h-.13v-.28h-.14v-.14h-.14v-.29h-.14v-.28h-.14v-.14h-.14v-.28h-.14v-.28H53v-.14h-.14v-.29h-.13v-.28h-.14v-.14h-.14v-.28h-.14v-.14h-.14v-.29h-.14v-.14h-.14v-.28h-.14v-.28h-.13v-.28h-.14v-.29h-.14v-.28h-.14v-.42h-.14v-.28h-.14v-.43h-.14v-.42h-.14v-.56h-.14v-.57h-.13v-.42h-.14v-.57h-.14v-.56h-.14v-.42h-.14v-.15h-.55v.15h-.42v.14h-.28v.14h-.42v.14h-.13v-.42h.13v-.43h.14v-.28h.14v-.28h.14v-.29h.14v-.28h.14v-.28h.14v-.14h.14v-.28h.14v-.14h.13v-.29h.14v-.14h.14v-.28h.14v-.14h.14v-.14h.14v-.14h.14v-.14h.14v-.29h.13v-.14h.14v-.14h.14v-.14h.14v-.14h.14v-.14h.14v-.28h.14v-.15h.14v-.14h.14v-.14h.13v-.14h.14v-.14h.14v-.14h.14v-.14h.14v-.14h.14v-.14h.14v-.15h.14v-.14H53v-.14h.14v-.14h.14v-.14h.14v.7h.14v.85h.14v.85h.14v.85h.14v.7h.13v.57h.14v.42h.14v.56h.14v.43h.14v.56h.14v.43h.14v.42h.14v.14h-.42v-.14h-.42v-.14h-.27v-.14h-.42v-.14h-.28v.28h.14v.7h.14v.43h.14v.42h.14v.42h.14v.29h.13v.28h.14v.28h.14v.28h.14v.14h.14v.29h.14v.14h.14v.14h.14v.28h.13v.14h.14v.14h.14v.14h.28v.14h.14v.15h.14v.14h.28v.14h.69v.14h.42v-.14h.41v-.14h.42v-.14h.14v-.15h.14v-.14h.14v-.14h.13v-.14h.14v-.14h.14v-.28h.14v-.14h.14v-.14h.14v-.29h.14v-.14h.14v-.14h.13v-.28h.14v-.14h.14v-.14h.14v-.29h.14v-.14h.14v-.14h.14v-.28h.14v-.14h.14v-.14h.13v-.28h.14v-.15h.14v-.14h.14v-.28h.14v-.14h.14v-.14h.14v-.28h.14v-.14h.13v-.15h.14v-.28h.14v-.14h.14v-.14h.14v-.28H63V25h.14v-.15h.14v-.28h.14v-.14h.13v-.14h.14v-.28h.14v-.14h.14v-.14h.14v-.29h.14v-.14h.14v-.14h.14v-.28h.13v-.14h.14v-.14h.14v-.29h.14v-.14h.14v-.14h.14v-.28h.14v-.14h.14v-.14h.14v-.28h.13v-.15h.14v-.14h.14v-.28h.14v-.14h.14v-.14h.14v-.28h.14v-.14h.14v-.15h.13v-.28h.14v-.14h.14v-.14h.14v-.28h.14v-.14h.14v-.14h.14v-.29H68v-.14h.14v-.14h.13v-.28h.14v-.14h.14v-.14h.14v-.29h.14v-.14h.14v-.14h.14v-.28h.14v-.14h.13v-.14h.14v-.28h.14v-.15h.14v-.14h.14v-.28h.14v-.14h.14v-.14h.14v-.28h.14v-.14h.13v-.15h.14v-.28h.14v-.14h.14v-.14h.14v-.28h.14v-.14h.14v-.15h.14v-.28h.13v-.14h.14V13h.14v-.28h.14v-.14h.14v-.14h.14v-.29h.14v-.14h.14v-.14h.14v-.28h.13v-.14h.14v-.14h.14v-.29h.14v-.14h.14v-.14h.14v-.28h.14v-.14h.14v-.14h.13V9.9h.14v-.15h.14v-.14h.14v-.28h.14V9.2h.14v-.14h.14v-.28h.14v-.14h.13v-.15h.14v-.28h.14v-.14h.14v-.14h.14v-.28h.14V7.5h.14v-.14h.14v-.29h.14v-.14h.13V6.8h.14v-.28h.14v-.14h.14v-.14h.14v-.29h.14v-.14h.14v-.14h.14V5.4h.13v-.14h.14V5.1h.14v-.28H78v-.15h.14v-.14h.14v-.28h.14v-.14h.14v-.14h.14V3.7h.13v-.14h.14V3.4h.14v-.28h.14V3h.14v-.28h.14v-.14h.14v-.14h.14v-.15h.41v.15h.42v.14h.14v.14h.28v.14h.27V3h.14v.14h.28v.14h.28v.14h.14v.15h.27v.14h.14v.14h.14v.14H83v.14h.14v.14h.14v.14h.27v.14h.14v.14h.14v.15h.28v.14h.14v.14h.14v.14h.14v.14h.13v.14h.14v.14h.14v.14h.14v.14h.14v.15h.14v.14h.14v.14h.14v.14h.14v.14h.13v.14h.14v.28h.14v.14h.14v.15h.14v.28h.14v.14h.14v.14h.14v.28H87v.14h.14v.14h.14v.29h.14v.14h.14v.28h.14v.28h.14v.28h.14v.15h.14v.28h.13v.28h.14v.28h.14v.28h.14v.29h.14v.42h.14v.42h.14v.29h.14v.42h.13v.28h.14v.57h.14v.56h.14v.7h.14v.57h.14v1.13h.14v4.1h-.14v.84h-.14v.85h-.14v.7h-.14v.42h-.14v.43h-.14v.42h-.13v.57h-.14v.28h-.14v.28h-.14V26h-.14v.29h-.14v.28h-.14v.28h-.14v.28h-.13v.29h-.14v.28h-.14v.14h-.14v.28h-.14v.28h-.14v.29h-.14v.14h-.14v.14H87v.28h-.13v.14h-.14v.28h-.14v.14h-.14v.15h-.14v.28h-.14v.14h-.14v.14h-.14v.14h-.13v.14h-.14v.14h-.14v.14h-.14v.29h-.14v.14h-.14v.14h-.14v.14h-.14v.14h-.14v.14h-.13v.14h-.14v.14h-.14v.15h-.14v.14h-.28v.14h-.14v.14h-.14v.14h-.13v.28h.13v.14h.28v.14h.14v.15h.14v.14h.28v.14h.14v.14h.27v.14h.14v.14h.14v.14h.28v.14h.14v.14h.28v.15h.13v.14h.28v.14h.14v.14h.14v.14h.28v.14h.14v.14h.27v.14h.14v.14h.14v.15h.28v.14h.14v.14h.28v.14h.13v.14h.14V37h.28v.14h.14v.14h.28v.14h.14v.15h.13v.14h.28v.14h.14v.14h.28v.14h.14v.14h.14v.14h.27v.14h.14v.15h.28v.14h.14v.14h.28v.14h.14v.14h.13v.14H92v.14h.14v.14h.28v.14h.14v.15h.14v.14h.27v.14h.14v.14h.28v.14h.14v.14h.14v.14h.28v.14h.13v.14h.28v.15h.14v.14h.14v.14h.28v.14h.14v.14h.14v.14H83.96v-.14h-.14v-.14h-.14v-.14h-.27v-.14h-.14v-.14h-.14v-.15h-.28v-.14h-.14v-.14h-.14v-.14h-.28v-.14h-.13v-.14h-.14v-.14h-.28v-.14h-.14v-.14h-.14v-.15h-.28v-.14h-.13v-.14h-.14v-.14h-.28v-.14h-.14v-.14h-.14v-.14h-.28v-.14h-.14v-.14h-.13v-.15h-.28v-.14h-.14v-.14h-.14v-.14h-.28V38h-.14v-.14h-.13v-.14h-.28v-.14h-.14v-.15h-.14v-.14h-.28v-.14h-.14V37h-.14v-.14h-.27v-.14h-.14v-.14h-.14v-.14h-.28v-.14h-.14v-.15h-.14v-.14h-.27v-.14h-.14v-.14h-.14v-.14h-.28v-.14h-.14v-.14h-.14v-.14h-.27v-.14h-.14v-.15h-.14v-.14h-.28v-.14h-.14v-.14h-.14v-.14h-.27v-.14h-.14v-.14h-.14v-.14h-.28v-.14h-.14v-.15h-.14v-.14h-.27v-.14h-.14v-.14h-.14v-.14h-.28v-.14h-.14v-.14h-.14v-.14h-.28v-.14h-.13v-.15h-.14v-.14h-.28v-.14h-.14v-.14h-.14v-.14h-.28v-.14h-.13v-.14h-.14v-.14h-.28v-.14h-.14v-.15h-.14v-.14h-.28v-.14h-.14v-.14h-.13v-.14h-.28v-.42h.97v.14h.83v.14h.97v.14h1.12v-.14h.97v-.14h.83v-.14h.42v-.14h.41v-.15h.42v-.14h.42v-.14h.41v-.14h.28v-.14h.28v-.14h.14v-.14h.27v-.14H78v-.14h.28v-.15h.28v-.14h.14v-.14h.13v-.14h.28v-.14h.14v-.14h.14v-.14h.14v-.14h.28v-.14h.13v-.15h.14v-.14h.14v-.14h.14v-.14h.14v-.14h.14v-.14h.14v-.14h.14v-.14h.14v-.29h.13v-.14h.14v-.14h.14v-.14h.14v-.14h.14v-.28h.14V25h.14v-.29h.14v-.28h.13v-.28h.14v-.28h.14v-.14h.14v-.29h.14v-.28H83v-.42h.14v-.43h.14v-.42h.14v-.42h.13v-.43h.14v-.84h.14v-3.25h-.14v-.7h-.14v-.43h-.13v-.56h-.14v-.57h-.14v-.28H83v-.28h-.14v-.28h-.14v-.43h-.14v-.28h-.14V13h-.14v-.28h-.13v-.28h-.14v-.15h-.14v-.28h-.14v-.14h-.14v-.14h-.14v.14h-.14v.14h-.14v.28h-.13v.15h-.14v.14h-.14v.28h-.14V13h-.14v.14h-.14v.28h-.14v.14h-.14v.29h-.14V14h-.13v.14h-.14v.28h-.14v.14h-.14v.14h-.14v.3h-.14v.14h-.14v.14h-.14v.28h-.13v.14h-.14v.14h-.14v.29h-.14v.14h-.14v.14H78v.28h-.14v.14h-.14v.14h-.14v.28h-.13v.15h-.14v.14h-.14v.28h-.14v.14h-.14v.14h-.14v.28h-.14v.14h-.14v.15h-.13v.28h-.14v.14h-.14v.14h-.14v.28h-.14v.14h-.14v.14h-.14v.29h-.14v.14h-.14v.14h-.13v.28h-.14v.14h-.14v.28h-.14v.15h-.14v.14h-.14v.28h-.14v.14h-.14v.14h-.13v.28h-.14v.14h-.14v.15h-.14v.28h-.14v.14h-.14v.14h-.14v.28H73v.14h-.13v.14h-.14v.29h-.14v.14h-.14v.14h-.14v.28h-.14v.14h-.14v.14h-.14v.29h-.14v.14h-.13v.14h-.14v.28h-.14v.14h-.14v.14h-.14v.29h-.14v.14h-.14v.14h-.14v.28h-.13v.14h-.14v.14h-.14v.28h-.14v.15h-.14v.14h-.14v.28h-.14v.14h-.14v.28h-.14v.14h-.13v.14h-.14v.29h-.14v.14h-.14v.14h-.14v.28h-.14v.14h-.14v.14h-.14v.29h-.13v.14H68v.14h-.14v.28h-.14v.14h-.14v.14h-.14v.28h-.14v.15h-.14v.14h-.14v.28h-.13v.14h-.14v.14h-.14v.28h-.14v.14h-.14v.15h-.14v.28h-.14v.14h-.14v.14h-.13v.28h-.14v.14h-.14v.29h-.14v.14h-.14v.84h.14v.14h.14v.15h.28v.14h.41v.14h1.25v.14H68v-.14h5.55v.14h.14v.14h.14v.14h.27v.14h.14v.14h.14v.14h.28v.15h.14v.14h.28v.14h.13v.14h.14v.14h.28V37h.14v.14h.14v.14h.28v.14h.14v.15h.13v.14h.28v.14h.14v.14h.14v.14h.28v.14h.14v.14h.13v.14h.28v.15H78v.14h.14v.14h.28v.14h.14v.14h.14v.14h.27v.14h.14v.14h.14v.14h.28v.15h.14v.14h.27v.14h.14v.14h.14v.14h.28v.14h.14v.14h.14v.14h.28v.14h.13v.15h.14v.14h.28v.14h.14v.14h.14v.14h.14v.14"/><path stroke="#fff" stroke-linejoin="round" stroke-miterlimit="22.93" stroke-width=".49" d="M81.55 11.51c1.52 2 2.4 4.47 2.4 7.14 0 6.45-5.44 11.89-11.79 11.89-1.4 0-3.98-.84-2.91-.03l14.94 11.37 10.9-.04-11.95-8.63a18.82 18.82 0 0 0 7.06-14.56A18.1 18.1 0 0 0 79.93 2.3L59.26 30.35c-1.24 1.81-2.77 1.7-4 .37-1.25-1.33-1.75-2.87-2.09-4.74l1.78.65a31.03 31.03 0 0 1-1.6-7.28c-2.92 2.62-4.68 4.99-5.3 7.12.62-.35 1.23-.6 1.84-.64.73 2.23.73 3.94 2.27 6.44 1.54 2.5 3.64 5.8 4.3 8.1 2.07-.04 2.93.1 5.06.72 2.13.62 3.85.8 4.25.8h16.2l-8.55-6.46h-4.9c-.53.03-5.02.34-2.92-2.15L81.55 11.5Z"/><path fill="url(#d)" d="M75.08 9.62v-.28h.14v-.28h.13v-.14h.14v-.14h.14v-.29h.14v-.14h.14v-.28h.14v-.14h.14v-.14h.14V7.5h.13v-.14h.14v-.29h.14v-.14h.14v-.28h.14v-.14h.14v-.14h.14V6.1h.14v-.15h.14v-.28h.13v-.14h.14v-.28H78V5.1h.14v-.14h.14v-.29h.14v-.14h.14v-.28h.14v-.14h.13v-.14h.14V3.7h.14v-.15h.14v-.28h.14v-.14h.14v-.28h.14V2.7h.14v-.14h.13v-.14h.28v.14h.28v.14h.28v.14h.28v.14h.27v.14h.28v.14h.28v.14h.14v.14h.27v.15h.28v.14h.14v.14H83v.14h.14v.14h.28v.14h.13v.14h.28v.14h.14v.15h.14v.14h.14v.14h.28v.14h.13v.14h.14v.14h.14v.14h.14v.14h.14v.14h.14v.15h.14v.14h.14v.28h.14v.14h.13v.14h.14v.14h.14v.28h.14v.15h.14v.28h.14v.14h.14v.14h.14v.28H87v.28h.14v.29h.14v.14h.14v.28h.14v.42"/><path fill="#20307A" fill-rule="evenodd" d="M111.4 66.77v-3.4h.95c.38 0 .64.02.78.06a.91.91 0 0 1 .66.53c.07.14.1.3.1.47 0 .27-.07.48-.2.65a.93.93 0 0 1-.55.32l.91 1.37h-1.03l-.77-1.33v1.33h-.85Zm.85-1.79h.17c.2 0 .34-.03.44-.1a.41.41 0 0 0 .13-.32c0-.17-.04-.3-.13-.36-.08-.08-.22-.11-.42-.11h-.19v.9Zm2.17 1.8v-3.4h.92v3.4h-.92Zm2.32-3.4h.9v2.2c0 .24-.01.42-.04.55a.92.92 0 0 1-.5.63.93.93 0 0 1-.45.1c-.21 0-.4-.04-.56-.13a1.2 1.2 0 0 1-.42-.4l.55-.52c.02.1.05.18.1.23.05.05.11.08.19.08s.14-.05.18-.15c.03-.1.05-.34.05-.73v-1.86Zm1.58 3.4v-3.4h2.05v.74h-1.16v.59h1.1v.73h-1.1V66h1.16v.76h-2.05Zm2.65 0v-3.4h.9v1.54l1.06-1.54H124l-1.23 1.65 1.34 1.74h-1.14l-1.09-1.52v1.52h-.9Zm4.2-1.28h.9l-.34-1.12a2.47 2.47 0 0 1-.04-.16l-.07-.3a6.9 6.9 0 0 1-.06.24l-.06.22-.33 1.12Zm-1.28 1.27 1.15-3.4h1.15l1.15 3.4h-.9l-.17-.6h-1.3l-.17.6h-.91Z" clip-rule="evenodd"/><path fill="#00ADEF" fill-rule="evenodd" d="M99.08 64.8h.06c.24 0 .4-.02.5-.08.1-.06.17-.17.21-.31.04-.13.03-.22-.02-.28-.05-.05-.15-.08-.3-.08h-.13l-.32.76Zm-1.5 1.88.7-1.67.7-1.67h.74c.2 0 .35 0 .45.03.1.02.18.05.24.1.1.09.18.2.2.36.02.15 0 .33-.06.54-.06.21-.16.4-.28.58-.12.18-.26.32-.42.41a.93.93 0 0 1-.3.12c-.1.03-.26.04-.47.04h-.31l-.24.58-.25.58h-.7Zm4.78-2.6c-.22 0-.44.1-.64.3-.2.2-.35.44-.44.73-.08.25-.08.46 0 .61.07.16.2.23.4.23.21 0 .42-.1.63-.3.22-.2.36-.45.45-.75.07-.24.07-.43 0-.59a.43.43 0 0 0-.4-.23Zm-.97 2.7c-.19 0-.35-.04-.5-.1a.77.77 0 0 1-.32-.3 1.07 1.07 0 0 1-.15-.52c0-.2.02-.42.09-.66a3.17 3.17 0 0 1 .75-1.29c.2-.2.42-.37.66-.48.24-.11.48-.17.72-.17.4 0 .69.15.85.44.08.14.13.3.13.5a3.09 3.09 0 0 1-.85 1.92c-.2.21-.43.37-.66.48-.24.11-.47.17-.72.17Zm2.53-.1h-.7c.22-.56.46-1.11.7-1.67l.7-1.67h.72c.22 0 .38 0 .47.03.1.02.19.05.25.1.11.07.18.19.2.33.03.14.02.31-.04.52-.09.27-.22.5-.41.7-.19.18-.4.3-.65.34l.13.66.13.66h-.82l-.07-.64-.07-.63-.27.63-.27.64Zm.77-1.81h.23c.14 0 .26-.04.36-.12.1-.09.17-.2.22-.35.04-.15.03-.25-.02-.31-.05-.07-.15-.1-.3-.1h-.12l-.37.88Zm1.37 1.81.55-1.28.55-1.28h-.6l.33-.78h1.9l-.34.78h-.57l-.55 1.28-.55 1.28h-.72Zm2.5-.95c-.08 0-.16.04-.23.12a.7.7 0 0 0-.17.3c-.03.08-.03.15 0 .2.02.05.06.07.13.07.08 0 .16-.04.23-.11a.7.7 0 0 0 .17-.3c.03-.08.03-.15 0-.2-.02-.05-.06-.08-.13-.08Zm-.78.41c.08-.23.2-.43.36-.58a.8.8 0 0 1 .55-.22c.17 0 .3.06.36.18.07.13.08.3.01.5a1.2 1.2 0 0 1-.36.58.82.82 0 0 1-.54.22c-.18 0-.3-.06-.37-.18a.66.66 0 0 1 0-.5Zm1.23.63.22-.52.22-.51h-.18l.15-.36h.18l.06-.14.02-.05c.08-.19.15-.32.22-.38a.64.64 0 0 1 .2-.15.52.52 0 0 1 .22-.05.43.43 0 0 1 .22.06l-.17.4a.22.22 0 0 0-.06-.04.16.16 0 0 0-.05 0 .15.15 0 0 0-.11.04.7.7 0 0 0-.1.19l-.06.12h.24l-.15.36h-.24l-.22.51-.22.52h-.4Z" clip-rule="evenodd"/><path fill="#20307A" d="M129.38 64.28a.3.3 0 0 1 .08-.21.29.29 0 0 1 .21-.1.3.3 0 0 1 .22.1.3.3 0 0 1 .09.21.3.3 0 0 1-.1.22.29.29 0 0 1-.2.09.28.28 0 0 1-.22-.1.3.3 0 0 1-.08-.2Zm.04 3.35v-2.61h.51v2.6h-.51Zm1.04-1.08a.3.3 0 0 1 .09-.22.3.3 0 0 1 .21-.1.3.3 0 0 1 .22.1c.06.06.1.14.1.22a.3.3 0 0 1-.1.22.3.3 0 0 1-.22.1.3.3 0 0 1-.21-.1.3.3 0 0 1-.1-.22Zm.95-.05.4-.2c0 .06.04.11.1.15.06.05.13.07.22.07a.4.4 0 0 0 .2-.05.14.14 0 0 0 .06-.13c0-.09-.08-.16-.25-.22a4.5 4.5 0 0 1-.13-.04c-.2-.08-.35-.16-.43-.24a.41.41 0 0 1-.12-.3c0-.18.07-.32.2-.43.14-.1.32-.16.54-.16.16 0 .3.03.41.1.12.06.2.15.25.27l-.37.2a.28.28 0 0 0-.1-.16.32.32 0 0 0-.2-.05.32.32 0 0 0-.18.04.15.15 0 0 0-.07.13c0 .09.12.17.35.25l.06.02c.2.06.33.14.41.22.09.09.13.2.13.33a.5.5 0 0 1-.2.43.88.88 0 0 1-.55.15.99.99 0 0 1-.47-.1.52.52 0 0 1-.26-.28Zm1.86.05c0-.08.03-.16.09-.22s.13-.1.22-.1a.31.31 0 0 1 .3.32.3.3 0 0 1-.09.22.3.3 0 0 1-.21.1.3.3 0 0 1-.22-.1.3.3 0 0 1-.1-.22Zm2.43.21a.84.84 0 0 1-.48.12.91.91 0 0 1-.68-.27.97.97 0 0 1-.26-.7c0-.28.09-.51.27-.69.17-.17.4-.26.68-.26.1 0 .18 0 .25.02a.8.8 0 0 1 .22.1v.51a.56.56 0 0 0-.42-.17.46.46 0 0 0-.34.13.5.5 0 0 0-.14.36.46.46 0 0 0 .49.49c.09 0 .16-.01.22-.04a.53.53 0 0 0 .18-.14v.54Zm.38-.21c0-.08.03-.16.1-.22a.3.3 0 0 1 .21-.1.31.31 0 0 1 .3.32.3.3 0 0 1-.08.22.3.3 0 0 1-.22.1.3.3 0 0 1-.21-.1.3.3 0 0 1-.1-.22Z"/><path fill="#00ADEF" fill-rule="evenodd" d="M.58 66.43a471.54 471.54 0 0 1 1.4-3.35h.7l-.26.65c-.1.21-.19.43-.27.64h.92l.26-.64.28-.65h.7l-.7 1.68-.7 1.67h-.7a66.84 66.84 0 0 1 .57-1.37h-.92l-.29.68-.28.69h-.7Zm2.61 0 1.15-1.67 1.16-1.68h.88l-.22 1.68-.21 1.67h-.72l.08-.63H4.4l-.43.63H3.2Zm1.69-1.38h.55l.12-.78a5.43 5.43 0 0 1 .07-.38 12.67 12.67 0 0 1-.74 1.16Zm1.2 1.38.71-1.67.7-1.68h1.53l-.33.77h-.81l-.24.55h.77l-.3.72h-.77l-.28.66-.27.65h-.7Zm3.01-.75h.82l-.32.75H8.08l.7-1.67.71-1.68h1.52l-.33.78h-.81l-.23.54h.75l-.3.73h-.76l-.24.55Zm.99.75.7-1.67.72-1.68h.8l.03.83.03.83v.07l-.01.47.02-.08a3.18 3.18 0 0 1 .18-.47l.34-.82.35-.83h.71l-.72 1.68-.7 1.67h-.78l-.04-.85c0-.29-.02-.57-.03-.85a4.7 4.7 0 0 1 0-.55l-.02.1a3.37 3.37 0 0 1-.17.46l-.36.84-.35.85h-.7Z" clip-rule="evenodd"/><path fill="#20307A" fill-rule="evenodd" d="m27.97 66.44 1.15-3.4h1.14l1.16 3.4h-.9l-.18-.6h-1.3l-.17.6h-.9Zm1.27-1.27h.91l-.34-1.12a2.77 2.77 0 0 1-.04-.16l-.07-.3a8.91 8.91 0 0 1-.12.46l-.34 1.12Zm-4.2 1.27v-3.4h.91v1.55l1.06-1.55h1.06l-1.24 1.66 1.35 1.74h-1.14l-1.09-1.52v1.52h-.9Zm-2.64 0v-3.4h2.05v.75h-1.17v.59h1.1v.73h-1.1v.57h1.17v.76H22.4Zm-1.59-3.4h.91v2.21c0 .24-.01.42-.04.55a.91.91 0 0 1-.5.63 1.14 1.14 0 0 1-1.02-.04 1.2 1.2 0 0 1-.42-.4l.56-.51c.01.1.04.18.1.23.04.05.1.08.18.08.1 0 .15-.05.18-.15.04-.1.05-.34.05-.73v-1.87Zm-2.31 3.4v-3.4h.92v3.4h-.92Zm-2.6-1.79h.18c.2 0 .34-.03.43-.1.09-.07.13-.18.13-.32 0-.17-.04-.3-.12-.37-.09-.07-.23-.1-.43-.1h-.18v.9Zm-.85 1.8v-3.4h.96c.37 0 .63.01.78.05a.92.92 0 0 1 .66.53c.06.14.1.3.1.47 0 .27-.07.48-.2.65a.92.92 0 0 1-.55.32l.9 1.37h-1.02l-.77-1.33v1.33h-.86Zm18.03 0 1.06-3.3h1.12l1.13 3.3h-.89l-.17-.59h-1.26l-.17.59h-.82Zm1.18-1.23h.89l-.34-1.1a3.14 3.14 0 0 1-.04-.16l-.07-.28a9.16 9.16 0 0 1-.11.44l-.33 1.1Zm3.94-.05v-.66h1.67v.18c0 .55-.13.98-.42 1.28-.28.3-.69.46-1.2.46a1.8 1.8 0 0 1-.68-.12 1.5 1.5 0 0 1-.53-.36 1.63 1.63 0 0 1-.35-.54 1.78 1.78 0 0 1 .36-1.85c.15-.15.34-.27.54-.35.2-.08.42-.12.66-.12.3 0 .58.06.81.18.24.13.44.31.6.55l-.74.37a.9.9 0 0 0-.3-.28.77.77 0 0 0-.37-.1.75.75 0 0 0-.6.27c-.15.17-.23.41-.23.71s.08.54.22.72c.15.17.35.26.6.26a.9.9 0 0 0 .55-.16.59.59 0 0 0 .25-.44h-.85Z" clip-rule="evenodd"/></g><defs><linearGradient id="b" x1="60.63" x2="73.38" y1="22.6" y2="7.65" gradientUnits="userSpaceOnUse"><stop stop-color="#00ADEF"/><stop offset="1" stop-color="#fff"/></linearGradient><linearGradient id="c" x1="71.57" x2="71.57" y1="34.36" y2="9.81" gradientUnits="userSpaceOnUse"><stop stop-color="#20307B"/><stop offset="1" stop-color="#fff"/></linearGradient><linearGradient id="d" x1="81.34" x2="81.34" y1="4.51" y2="8.87" gradientUnits="userSpaceOnUse"><stop stop-color="#00ADEF"/><stop offset="1" stop-color="#fff"/></linearGradient><clipPath id="a"><path fill="#fff" d="M0 0h137v68H0z"/></clipPath></defs></svg>