<svg xmlns="http://www.w3.org/2000/svg" width="158" height="51" fill="none"><path fill="#18181E" stroke="#18181E" stroke-width=".25" d="m93.68 25.113-.081-.12-.107.1-1.433 1.341-.078.074.06.088 11.752 17.12.037.053h2.63l-.134-.195-12.645-18.46Zm-2.346.244L92.766 24l.003-.003 13.289-13.444.21-.213h-2.796l-.037.036-19.997 19.59V.874H81.16v42.895h2.278V32.785l7.896-7.428Zm23.836 18.288v.124h2.347V10.343h-2.347v33.302Zm40.95-25.788.129-.046-.058-.124c-1.08-2.285-2.722-4.082-4.923-5.39-2.201-1.309-4.711-1.961-7.528-1.961-2.237 0-4.321.425-6.25 1.275a15.293 15.293 0 0 0-5.006 3.514c-1.41 1.493-2.508 3.244-3.295 5.253-.788 2.01-1.181 4.174-1.181 6.492 0 2.318.414 4.503 1.243 6.555.828 2.049 1.957 3.84 3.387 5.374a16.09 16.09 0 0 0 5.004 3.637c1.909.892 3.963 1.338 6.16 1.338 1.451 0 2.861-.197 4.229-.591a15.727 15.727 0 0 0 3.762-1.617 12.799 12.799 0 0 0 2.99-2.46c.853-.958 1.469-2 1.845-3.129l.041-.123-.124-.036-2.098-.617-.121-.035-.034.12c-.241.842-.712 1.637-1.42 2.386a11.28 11.28 0 0 1-2.533 1.983 14.668 14.668 0 0 1-3.211 1.376 12.233 12.233 0 0 1-3.511.519c-1.791 0-3.489-.387-5.097-1.16a13.393 13.393 0 0 1-4.217-3.178c-1.203-1.346-2.162-2.907-2.877-4.683-.713-1.773-1.07-3.66-1.07-5.66s.336-3.877 1.009-5.63c.673-1.754 1.611-3.272 2.812-4.555a13.253 13.253 0 0 1 4.217-3.025c1.608-.733 3.328-1.1 5.161-1.1 2.241 0 4.276.53 6.106 1.588a11.087 11.087 0 0 1 4.271 4.393l.052.095.101-.037 2.035-.74Z"/><mask id="a" width="40" height="41" x="32.871" y="9.461" fill="#000" maskUnits="userSpaceOnUse"><path fill="#fff" d="M32.871 9.461h40v41h-40z"/><path fill-rule="evenodd" d="M67.611 15.325a16.64 16.64 0 0 0-11.774-4.864 16.64 16.64 0 0 0-11.775 4.864c-3.017 3.005-4.885 7.154-4.885 11.73 0 4.576 1.868 8.724 4.885 11.73a16.64 16.64 0 0 0 11.775 4.864c4.592 0 8.757-1.86 11.774-4.866 3.017-3.004 4.885-7.153 4.885-11.728 0-4.576-1.868-8.725-4.885-11.73ZM45.29 16.553a14.907 14.907 0 0 1 10.548-4.357c4.113 0 7.844 1.667 10.546 4.359a14.78 14.78 0 0 1 4.376 10.5c0 4.098-1.674 7.813-4.375 10.503a14.907 14.907 0 0 1-10.547 4.358 14.907 14.907 0 0 1-10.548-4.358 14.783 14.783 0 0 1-4.374-10.502c0-4.098 1.673-7.812 4.374-10.503ZM42.81 41.98a.854.854 0 0 0-.02-1.208.914.914 0 0 0-1.27 0l-7.389 7.74a.854.854 0 0 0 0 1.228.914.914 0 0 0 1.27-.001L42.79 42a.986.986 0 0 0 .02-.02Z" clip-rule="evenodd"/></mask><path fill="#B39865" fill-rule="evenodd" d="M67.611 15.325a16.64 16.64 0 0 0-11.774-4.864 16.64 16.64 0 0 0-11.775 4.864c-3.017 3.005-4.885 7.154-4.885 11.73 0 4.576 1.868 8.724 4.885 11.73a16.64 16.64 0 0 0 11.775 4.864c4.592 0 8.757-1.86 11.774-4.866 3.017-3.004 4.885-7.153 4.885-11.728 0-4.576-1.868-8.725-4.885-11.73ZM45.29 16.553a14.907 14.907 0 0 1 10.548-4.357c4.113 0 7.844 1.667 10.546 4.359a14.78 14.78 0 0 1 4.376 10.5c0 4.098-1.674 7.813-4.375 10.503a14.907 14.907 0 0 1-10.547 4.358 14.907 14.907 0 0 1-10.548-4.358 14.783 14.783 0 0 1-4.374-10.502c0-4.098 1.673-7.812 4.374-10.503ZM42.81 41.98a.854.854 0 0 0-.02-1.208.914.914 0 0 0-1.27 0l-7.389 7.74a.854.854 0 0 0 0 1.228.914.914 0 0 0 1.27-.001L42.79 42a.986.986 0 0 0 .02-.02Z" clip-rule="evenodd"/><path fill="#B39865" d="m67.611 15.325-.176.178.176-.178Zm-23.549 0-.176-.177.176.177Zm0 23.46-.176.176.176-.177Zm23.549-.002-.177-.177.177.177Zm-22.322-22.23.177.177-.177-.177Zm21.094.002-.176.177.176-.177Zm.001 21.003.177.177-.177-.177Zm-21.095 0-.176.177.176-.177Zm-2.5 3.214-.173.18.174-.18Zm.021 1.208-.18-.174.18.174Zm-1.29-1.208-.174-.18-.007.008.18.172Zm-7.389 7.74.174.18.007-.008-.181-.173Zm-.02.02-.18-.174.18.174Zm.02 1.207.174-.18-.174.18Zm1.27 0 .174.18.007-.007-.181-.173ZM42.79 42l-.174-.18-.007.007.18.173Zm13.047-31.29a16.39 16.39 0 0 1 11.598 4.792l.353-.354a16.891 16.891 0 0 0-11.951-4.937v.5Zm-11.598 4.792a16.39 16.39 0 0 1 11.598-4.791v-.5a16.89 16.89 0 0 0-11.951 4.937l.353.354Zm-4.812 11.553c0-4.506 1.84-8.593 4.812-11.553l-.353-.354c-3.062 3.05-4.959 7.262-4.959 11.907h.5Zm4.812 11.552c-2.972-2.96-4.812-7.046-4.812-11.552h-.5c0 4.645 1.897 8.857 4.959 11.906l.353-.354Zm11.598 4.792a16.39 16.39 0 0 1-11.598-4.792l-.353.354a16.89 16.89 0 0 0 11.95 4.938v-.5Zm11.597-4.793A16.391 16.391 0 0 1 55.837 43.4v.5c4.66 0 8.888-1.89 11.95-4.938l-.353-.355Zm4.812-11.551c0 4.506-1.84 8.591-4.812 11.551l.353.355c3.062-3.05 4.96-7.261 4.96-11.906h-.5Zm-4.811-11.553c2.972 2.96 4.811 7.046 4.811 11.553h.5c0-4.645-1.896-8.857-4.958-11.907l-.353.354Zm-11.598-3.556a15.156 15.156 0 0 0-10.724 4.43l.353.354a14.656 14.656 0 0 1 10.37-4.284v-.5Zm10.722 4.431a15.157 15.157 0 0 0-10.722-4.431v.5c4.044 0 7.712 1.639 10.37 4.286l.352-.355Zm4.45 10.679c0-4.166-1.703-7.943-4.45-10.679l-.352.355c2.656 2.646 4.302 6.297 4.302 10.324h.5Zm-4.448 10.68a15.033 15.033 0 0 0 4.448-10.68h-.5c0 4.028-1.645 7.68-4.301 10.325l.353.354Zm-10.724 4.43c4.183 0 7.977-1.695 10.724-4.43l-.353-.355a14.657 14.657 0 0 1-10.371 4.285v.5Zm-10.724-4.43a15.156 15.156 0 0 0 10.724 4.43v-.5a14.656 14.656 0 0 1-10.371-4.285l-.353.354Zm-4.448-10.68c0 4.167 1.702 7.944 4.448 10.68l.353-.355a14.532 14.532 0 0 1-4.301-10.325h-.5Zm4.448-10.68a15.033 15.033 0 0 0-4.448 10.68h.5c0-4.028 1.644-7.68 4.3-10.326l-.352-.354Zm-2.497 24.576c.24.232.246.614.014.854l.36.347a1.104 1.104 0 0 0-.027-1.56l-.347.36Zm-.923 0a.664.664 0 0 1 .923 0l.347-.36a1.164 1.164 0 0 0-1.617 0l.347.36Zm-7.381 7.732 7.388-7.739-.361-.345-7.389 7.739.362.345Zm-.022.022a.496.496 0 0 1 .015-.015l-.348-.36a1.32 1.32 0 0 0-.026.027l.36.348Zm.015.853a.604.604 0 0 1-.015-.853l-.36-.348a1.104 1.104 0 0 0 .027 1.56l.348-.359Zm.922 0a.664.664 0 0 1-.922 0l-.348.36a1.164 1.164 0 0 0 1.618 0l-.348-.36Zm7.382-7.732-7.389 7.74.362.345 7.388-7.74-.361-.345Zm.021-.021a.655.655 0 0 1-.014.014l.347.36.027-.027-.36-.347Z" mask="url(#a)"/><path fill="#18181E" stroke="#18181E" stroke-width=".25" d="M31.905 28.043h.052l.037-.036a.25.25 0 0 0 .057-.1.638.638 0 0 0 .024-.11c.012-.08.017-.184.017-.31v-.494c0-2.277-.404-4.431-1.212-6.462-.807-2.028-1.915-3.8-3.325-5.313a15.56 15.56 0 0 0-4.974-3.575c-1.91-.872-3.983-1.307-6.22-1.307-2.197 0-4.23.435-6.099 1.307a16.005 16.005 0 0 0-4.911 3.544c-1.41 1.492-2.508 3.233-3.295 5.221-.788 1.99-1.181 4.123-1.181 6.4 0 2.318.404 4.503 1.212 6.554.807 2.05 1.925 3.852 3.355 5.405a15.87 15.87 0 0 0 5.005 3.669c1.909.892 3.963 1.338 6.16 1.338 1.45 0 2.86-.197 4.23-.591a16.952 16.952 0 0 0 3.821-1.616 12.497 12.497 0 0 0 3.084-2.492c.873-.977 1.539-2.027 1.997-3.152l.054-.132-.139-.036-1.912-.493-.1-.026-.044.093a10.464 10.464 0 0 1-1.768 2.59 11.005 11.005 0 0 1-2.562 2.044 13.009 13.009 0 0 1-3.147 1.314c-1.12.305-2.25.458-3.39.458-1.752 0-3.41-.356-4.977-1.069a13.774 13.774 0 0 1-4.157-2.903c-1.202-1.223-2.18-2.68-2.936-4.374-.737-1.655-1.193-3.436-1.366-5.346h28.61Zm-3.445-7.415c.717 1.634 1.143 3.426 1.276 5.377H3.293c.132-1.91.548-3.682 1.246-5.317.714-1.673 1.652-3.12 2.813-4.342a12.703 12.703 0 0 1 4.063-2.872c1.545-.691 3.214-1.037 5.007-1.037 1.793 0 3.462.336 5.008 1.007a12.998 12.998 0 0 1 4.125 2.841c1.202 1.223 2.17 2.67 2.905 4.343Z"/></svg>