<svg xmlns="http://www.w3.org/2000/svg" width="166" height="39" fill="none"><g clip-path="url(#a)"><path fill="#006CB2" fill-rule="evenodd" d="M31.31 12.52c.88-1.79-.5-3.95-1.36-4.87-.38-.36-.98-.8-1.67-1.3-1.61-1.18-3.66-2.68-4.28-4.2l-.02-.06c-.16-.42-.49-1.33.13-1.73.88 0 3.15 2.32 3.83 3.02.2.2.7.64 1.36 1.2 1.9 1.6 5.05 4.27 5.78 5.87.48 1.04-.11 9.62-.17 10.18l-.17 1.65a37.25 37.25 0 0 0-.31 4.23l-.47.09c-1.01.18-2.6.48-3.27-.17-.1-.55-.07-1.48-.04-2.5.05-1.81.12-3.92-.45-4.82-.7-1.1-1.14-3-1.52-4.63a24.9 24.9 0 0 0-.57-2.18l-.3-.8c-.58-1.5-1.44-3.77-.52-4.64 1.18-.06 1.71 1.62 2.2 3.18.48 1.47.91 2.83 1.82 2.48ZM16.74 7.65c-.88.92-2.27 3.08-1.36 4.87.9.34 1.32-1 1.79-2.47.49-1.56 1.03-3.25 2.21-3.19.95.87.07 3.14-.5 4.65l-.3.79c-.19.56-.37 1.33-.56 2.17-.38 1.64-.82 3.53-1.53 4.64-.57.89-.51 2.96-.46 4.75.02 1.05.05 2.01-.05 2.57-.66.65-2.29.35-3.29.16l-.43-.08c0-1.24-.12-2.3-.29-3.83l-.22-2.05-.02-.41c-.12-1.84-.55-8.84-.12-9.77.74-1.6 3.9-4.28 5.8-5.88.65-.56 1.16-.98 1.35-1.19.65-.7 2.94-3.02 3.82-3.02.61.4.27 1.36.13 1.76l-.01.03c-.62 1.52-2.67 3.02-4.29 4.2-.68.5-1.29.94-1.67 1.3Zm7.82 19.17c.42 0 .42-.21.41-.6V23.5c0-.35 0-.47.24-.47.99 0 1.26-.1 1.26-.96v-8.84c0-1.59-.75-1.95-1.4-2.27-.33-.17-.64-.32-.8-.62-.3-.52-.1-.8.17-1.19.35-.49.8-1.12.4-2.57-.19-.59-.65-.95-1.54-.95-.9 0-1.36.36-1.54.95-.4 1.45.05 2.08.4 2.57.26.38.47.67.17 1.2-.17.3-.47.44-.8.6-.66.33-1.4.7-1.4 2.28v8.84c0 .87.26.96 1.26.96.24 0 .24.12.23.47v2.7c0 .4 0 .6.41.6h2.53ZM8.86 4.74c-.17.16-.42.3-.7.47-.5.29-1.12.64-1.6 1.27-.28-.53.46-1.82 1.34-2.58a11.5 11.5 0 0 1 2.3-1.5c.24.56-.47 1.36-1.05 2.01l-.28.33Zm-2.4 4.21c.31-.22.6-.43.9-.7a9.49 9.49 0 0 0 2.13-2.9c-.29.22-.64.37-1 .54a5.5 5.5 0 0 0-1.78 1.1c-.43.42-.82.91-1.1 1.27-.21.28-.36.47-.4.47-.06-.12-.03-.2.07-.42.11-.27.31-.75.57-1.77.08-1.22.38-2.15.6-2.85l.09-.27c-1.11.45-1.76 1.88-2.16 3.17-.23.99-.34 2.45.14 4.1a8.92 8.92 0 0 1 1.94-1.74Zm-3.1 7.08c-.02.07-.02.08 0 0Zm0 0a10.1 10.1 0 0 1-1.31-5.06c.06-1.15.62-3.81 1.48-4.2a7.67 7.67 0 0 0 .08 2.52c.1.58.18 1.14.06 2.1l-.14 1.16-.15 1.15c.09-.01.13-.14.21-.36.24-.67.79-2.22 3.71-4.22a6.3 6.3 0 0 0-.6 1.39c-.23.64-.45 1.27-1.39 2.46a7.24 7.24 0 0 0-1.95 3.06Zm.8 3.69a4 4 0 0 1 .76-1.83c.9-1.58 1.22-2.84.8-4.39-.24.22-.48.67-.75 1.17-.19.36-.4.74-.62 1.08a7.74 7.74 0 0 0-.63 3.34c-.31-.26-.4-.59-.59-1.19-.14-.47-.33-1.11-.71-2.04a6.94 6.94 0 0 0-.78-1.49 7.07 7.07 0 0 1-.96-1.96c-.82 2.22 1.4 6.68 3.36 7.8.05-.15.08-.32.11-.5Zm2.52 1.99c0 1.1-.13 1.82-.26 2.52-.07.39-.15.77-.2 1.21-3.38-1.1-5.14-4.91-5.14-6.8.5 1.14 1.12 1.7 1.86 2.38.76.7 1.64 1.5 2.63 3.16.08-.56.02-.68-.08-.85-.12-.22-.28-.52-.32-1.8a8.6 8.6 0 0 1 .39-2.59c.12-.42.23-.8.27-1.45.62.68.85 3.38.85 4.22Zm3.14 7.07c-.09-.74-.19-1.51-.33-2.21a11.67 11.67 0 0 0-2.04-3.71 9.74 9.74 0 0 0 1.13 5.51c.2.38.33.64.32.84-.51.11-1.06-.42-1.69-1.03-.28-.28-.58-.57-.9-.83-.35-.3-.64-.47-.93-.65-.62-.38-1.3-.8-2.84-2.5-.12 1.7 1.75 4.05 2.8 4.61a6.93 6.93 0 0 0 3 1.17c.48.08 1 .17 1.72.44-.09-.49-.16-1.05-.24-1.64Zm3.5.93c.2.29.32.52.45.76.25.49.53 1.04 1.55 2.2-.38.16-2.56.72-4.01.78-.97 0-4.38-.9-5.51-3.2 1.43.75 1.83.83 2.95 1.03a29.07 29.07 0 0 1 3.86.93c.72.21 1.24.37 1.51.34-.04-.09-.24-.22-.54-.4-.54-.35-1.37-.88-2.01-1.68a5.6 5.6 0 0 1-.88-2.08 4.64 4.64 0 0 0-.78-1.82c.6-.17 2.93 2.53 3.41 3.14Zm25.06-24.5c-.3-.16-.55-.3-.71-.47l-.24-.27c-.62-.66-1.38-1.5-1.13-2.06.4.08 1.69.95 2.3 1.49.89.76 1.65 2.05 1.34 2.58a4.57 4.57 0 0 0-1.56-1.26Zm.8 3.04c.28.28.58.5.9.72.56.4 1.18.85 1.9 1.73a8.2 8.2 0 0 0 .15-4.1c-.37-1.3-1.05-2.73-2.16-3.18.26.73.6 1.74.68 3.12.26 1.02.47 1.5.58 1.77.1.23.13.3.08.42-.05 0-.2-.2-.43-.48A13 13 0 0 0 39.8 7a5.41 5.41 0 0 0-1.78-1.11 5.86 5.86 0 0 1-1-.52c.11.36.8 1.51 2.15 2.9Zm3.97 7.78c.02.07.02.08 0 0Zm0 0c1.14-1.97 1.22-3.4 1.3-5.06-.05-1.15-.62-3.81-1.44-4.2.11 1.2 0 1.87-.1 2.48-.1.6-.19 1.15-.04 2.15l.12 1.15.13 1.15c-.07-.01-.11-.13-.19-.34-.22-.65-.77-2.21-3.7-4.24.32.56.45.97.59 1.37.21.65.42 1.28 1.37 2.48a6.97 6.97 0 0 1 1.96 3.06Zm-1.54 1.86c.57.83.66 1.37.74 1.81.03.19.06.35.12.52 1.96-1.13 4.2-5.59 3.35-7.81-.26.92-.6 1.44-.93 1.96-.28.43-.55.85-.77 1.5a17.3 17.3 0 0 0-.76 2.09c-.17.57-.26.87-.55 1.13a7.84 7.84 0 0 0-.65-3.34c-.2-.3-.38-.64-.55-.97-.3-.54-.57-1.05-.82-1.28-.4 1.55-.11 2.81.82 4.39Zm-1.5 6.33c-.14-.7-.28-1.41-.28-2.51 0-.84.23-3.54.85-4.22.03.65.15 1.03.27 1.45.17.57.35 1.2.38 2.6-.03 1.27-.2 1.57-.31 1.78-.1.18-.16.3-.08.86a13.09 13.09 0 0 1 2.64-3.16 6.6 6.6 0 0 0 1.87-2.37c0 1.88-1.79 5.7-5.14 6.8-.05-.46-.13-.84-.2-1.23ZM37 26.57c-.14.7-.23 1.47-.31 2.2-.07.6-.14 1.16-.22 1.65a8.84 8.84 0 0 1 1.7-.44 6.92 6.92 0 0 0 2.98-1.17c1.05-.56 2.96-2.92 2.84-4.6-1.52 1.68-2.22 2.1-2.83 2.48-.3.18-.59.36-.94.66-.32.25-.61.54-.9.81-.64.62-1.2 1.16-1.72 1.05-.02-.2.12-.46.32-.84a9.85 9.85 0 0 0 1.16-5.51 11.1 11.1 0 0 0-2.07 3.7Zm-4.24 3.86c.12-.23.23-.45.4-.72.5-.61 2.82-3.31 3.45-3.14-.45.54-.62 1.18-.8 1.84-.19.69-.38 1.4-.88 2.06-.63.8-1.47 1.33-2.01 1.68-.3.18-.5.31-.54.4.29.03.8-.13 1.52-.35a28.05 28.05 0 0 1 3.85-.92 7.62 7.62 0 0 0 2.95-1.03c-1.14 2.3-4.55 3.2-5.48 3.2a17.23 17.23 0 0 1-4.04-.79 8.68 8.68 0 0 0 1.58-2.23Zm-14.36 7.2-.57-.28s1.65-1.99 4.63-3.17c-1.58-.12-3.16.4-5.05 1.04-4.01 1.35-7.25.11-7.25.11s-.65-.48-.28-.45c1.55.1 2.28-.15 3.25-.48 1.12-.39 2.54-.88 5.87-1.06 1.62-.1 3.07.14 4.31.54 1.25-.4 2.7-.63 4.32-.54 3.3.18 4.73.67 5.84 1.06.97.33 1.7.59 3.25.48.37-.03-.28.45-.28.45s-3.24 1.24-7.25-.11c-1.88-.64-3.45-1.16-5.03-1.04 2.97 1.18 4.61 3.17 4.61 3.17l-.57.28c-1.86-2.02-3.4-3-4.9-3.33-1.48.34-3.03 1.3-4.9 3.33Zm117.2-25.48c-.12-.77-.71-3.1-3.44-3.1-3.09 0-4.08 2.95-4.08 5.8 0 2.84.99 5.81 4.08 5.81 2.22 0 3.09-1.54 3.48-3.53h6.47c0 4.27-3.5 8.8-9.77 8.8-6.92 0-10.85-4.83-10.85-11.08 0-6.67 4.25-11.08 10.85-11.08 5.87.02 9.11 3.08 9.68 8.38h-6.41ZM76.07 4.27h6.75l6.23 11.32h.06V4.27h6.23v21.16h-6.41l-6.56-11.56h-.06v11.56h-6.24V4.27Zm-13.7 21.67c-6.53 0-9.76-2.82-9.76-8.69V4.27h6.59V15.8c0 2.16 0 4.86 3.2 4.86 3.12 0 3.12-2.7 3.12-4.86V4.27h6.6v12.98c0 5.87-3.2 8.69-9.74 8.69Zm43.61-21.67h-6.59v21.16h6.6v-8.39h6.17v8.39h6.6V4.27h-6.6v7.35h-6.18V4.27Zm48.59 5.04h-3.1v4.2h3.46c1.22 0 2.9-.2 2.9-2.1 0-1.33-.75-2.1-3.26-2.1Zm-3.1 16.12h-6.59V4.27h12.56c3.75 0 6.99 2.04 6.99 6.05 0 2.19-1.02 4.5-3.21 5.3 1.8.68 2.9 2.64 3.15 5.28l.04.72c.08 1.2.19 3.02.68 3.81h-6.6a14.96 14.96 0 0 1-.54-3.26v-.02c-.18-2-.37-4.1-2.96-4.1h-3.51v7.38Zm-72.59 7.96c0 1.92-1.14 2.85-3.06 2.85-1.93 0-3.05-.92-3.05-2.85V29h1.57v4.4c0 .78.2 1.54 1.48 1.54 1.12 0 1.49-.48 1.49-1.54V29h1.57v4.4Zm-24.13-3.1H52.6V29h5.88v1.3h-2.15v5.79h-1.58V30.3Zm4.22-1.3h1.43v2.67h.02c.37-.58.99-.86 1.52-.86 1.52 0 1.9.85 1.9 2.12v3.16H62.4v-2.9c0-.85-.25-1.27-.9-1.27-.78 0-1.11.43-1.11 1.47v2.7h-1.43v-7.1Zm8.18 6.16c-.8 0-1.23-.4-1.27-1.3h3.74c.1-1.58-.75-3.05-2.52-3.05-1.57 0-2.65 1.17-2.65 2.71 0 1.6 1.02 2.7 2.65 2.7 1.18 0 2.03-.51 2.43-1.73h-1.25c-.1.32-.55.67-1.13.67Zm-.09-3.29c.7 0 1 .38 1.14 1.1h-2.32c.02-.4.28-1.1 1.18-1.1Zm14.44-2.88h-1.56v7.1h1.47v-4.75h.02l2.99 4.75h1.57v-7.1h-1.47v4.76h-.02l-3-4.76ZM91 30.2h1.73c.7 0 1.09.3 1.09.98 0 .71-.39 1.01-1.09 1.01H91v-2Zm-1.57 5.88H91V33.3h1.58c.8 0 1.09.33 1.2 1.08l.05.57c.04.41.07.82.2 1.13h1.57c-.23-.34-.26-.99-.28-1.45l-.02-.23c-.05-.72-.27-1.46-1.04-1.66v-.02c.8-.32 1.13-.95 1.13-1.78 0-1.07-.81-1.96-2.1-1.96h-3.86v7.1Zm9.28-4.22c-.9 0-1.17.7-1.19 1.1h2.32c-.13-.72-.44-1.1-1.13-1.1Zm.04-1.06c1.76 0 2.62 1.47 2.52 3.05H97.5c.04.9.48 1.3 1.28 1.3.57 0 1.03-.35 1.12-.67h1.26c-.4 1.22-1.26 1.73-2.43 1.73-1.64 0-2.65-1.1-2.65-2.7 0-1.54 1.07-2.7 2.65-2.7Zm3.46 1.08h-.86v-.94h.86v-.4c0-.9.57-1.56 1.73-1.56.16 0 .32.02.47.03l.29.01v1.06a4.36 4.36 0 0 0-.53-.03c-.38 0-.54.16-.54.58v.31h.99v.94h-.99v4.2h-1.42v-4.2Zm6.36 4.2h1.36v-5.14h-1.43v2.7c0 1.03-.33 1.46-1.1 1.46-.67 0-.92-.42-.92-1.26v-2.9h-1.42v3.16c0 1.27.38 2.11 1.9 2.11.6 0 1.22-.28 1.58-.85h.03v.72Zm4.64-1.22c-.87 0-1.15-.8-1.15-1.54 0-.76.35-1.46 1.15-1.46.93 0 1.22.75 1.22 1.58 0 .74-.4 1.42-1.22 1.42Zm2.57-3.92h-1.35v.69h-.02c-.34-.6-.87-.83-1.55-.83-1.45 0-2.23 1.21-2.23 2.54 0 1.41.66 2.59 2.22 2.59.62 0 1.25-.26 1.56-.8h.02v.68c0 .73-.35 1.27-1.15 1.27-.5 0-.93-.18-1.06-.7h-1.42c.07 1.16 1.27 1.64 2.3 1.64 2.38 0 2.68-1.43 2.68-2.27v-4.81Zm3.33.92c-.9 0-1.17.7-1.19 1.1h2.32c-.13-.72-.44-1.1-1.13-1.1Zm.04-1.06c1.77 0 2.62 1.47 2.52 3.05h-3.75c.04.9.48 1.3 1.28 1.3.57 0 1.03-.35 1.12-.67h1.26c-.4 1.22-1.26 1.73-2.43 1.73-1.64 0-2.65-1.1-2.65-2.7 0-1.54 1.07-2.7 2.65-2.7Zm4.36 2.16c.02-.4.28-1.1 1.18-1.1.7 0 1 .38 1.13 1.1h-2.31Zm3.74.89c.1-1.58-.75-3.05-2.52-3.05-1.58 0-2.65 1.17-2.65 2.71 0 1.6 1.01 2.7 2.65 2.7 1.17 0 2.03-.51 2.43-1.73h-1.26c-.08.32-.55.67-1.12.67-.8 0-1.23-.4-1.27-1.3h3.74Zm6.55-3.12h-.02l-.94 2.6h1.86l-.9-2.6Zm-1.93 5.35h-1.6l2.73-7.1h1.61l2.68 7.1h-1.63l-.55-1.58h-2.68l-.56 1.58Zm8.1-1.22c-.88 0-1.16-.8-1.16-1.54 0-.76.35-1.46 1.15-1.46.93 0 1.22.75 1.22 1.58 0 .74-.4 1.42-1.22 1.42Zm2.56-3.92h-1.35v.69h-.02c-.34-.6-.87-.83-1.55-.83-1.45 0-2.23 1.21-2.23 2.54 0 1.41.67 2.59 2.22 2.59.62 0 1.25-.26 1.56-.8h.02v.68c0 .73-.35 1.27-1.15 1.27-.5 0-.93-.18-1.06-.7h-1.42c.07 1.16 1.27 1.64 2.3 1.64 2.38 0 2.68-1.43 2.68-2.27v-4.81Zm3.33.92c-.9 0-1.17.7-1.19 1.1h2.32c-.13-.72-.44-1.1-1.13-1.1Zm.04-1.06c1.77 0 2.62 1.47 2.52 3.05h-3.75c.04.9.49 1.3 1.28 1.3.57 0 1.03-.35 1.12-.67h1.26c-.4 1.22-1.26 1.73-2.43 1.73-1.64 0-2.65-1.1-2.65-2.7 0-1.54 1.07-2.7 2.65-2.7Zm3.14.14h1.36v.72h.03c.36-.58.98-.86 1.58-.86 1.52 0 1.9.85 1.9 2.12v3.16h-1.43v-2.9c0-.85-.25-1.27-.9-1.27-.78 0-1.11.43-1.11 1.47v2.7h-1.43v-5.14Zm8.22.92c.59 0 .96.31 1.05.89h1.4c-.1-1.31-1.22-1.95-2.44-1.95-1.7 0-2.66 1.18-2.66 2.78a2.5 2.5 0 0 0 2.63 2.63c1.36 0 2.31-.74 2.5-2.1h-1.38c-.1.62-.47 1.04-1.14 1.04-.89 0-1.18-.88-1.18-1.62 0-.75.3-1.67 1.22-1.67Zm5.66 4.86c-.31.82-.8 1.16-1.79 1.16-.29 0-.58-.02-.87-.05v-1.16l.22.02c.2.02.4.04.61.03.5-.05.65-.56.5-.96l-1.83-4.82h1.52l1.18 3.52h.02l1.13-3.52h1.48l-2.17 5.78Z" clip-rule="evenodd"/></g><defs><clipPath id="a"><path fill="#fff" d="M.5.36h165v37.79H.5z"/></clipPath></defs></svg>