<svg xmlns="http://www.w3.org/2000/svg" width="143" height="48" fill="none"><path fill="#23639F" d="M37.47.92H32.5V5.9h4.98V.92Z"/><path fill="#23639F" d="M37.47 5.9H32.5v18.07h4.98V5.9Zm5.89 18.13h-4.98V42.1h4.98V24.03Z" opacity=".2"/><path fill="#23639F" d="M43.36 42.04h-4.98v4.98h4.98v-4.98ZM9.27 19.85a4.12 4.12 0 1 1-.01 8.25 4.12 4.12 0 0 1 0-8.25Zm0-4.98a9.1 9.1 0 1 0 0 18.2 9.1 9.1 0 0 0 0-18.2Zm19.1 4.98a4.12 4.12 0 1 1 0 8.24 4.12 4.12 0 0 1 0-8.24Zm0-4.98a9.1 9.1 0 1 0 0 18.2 9.1 9.1 0 0 0 0-18.2Zm19.11 4.98a4.12 4.12 0 1 1-.01 8.24 4.12 4.12 0 0 1 0-8.24Zm0-4.98a9.1 9.1 0 1 0 0 18.2 9.1 9.1 0 0 0 0-18.2Z"/><path stroke="#fff" stroke-miterlimit="10" stroke-width=".23" d="M66.06 5.9v36.14"/><path fill="#23639F" d="M67.64 10.09c0-2.82 1.6-5.04 4.78-5.04 3.17 0 4.77 2.22 4.77 5.04s-1.61 5.04-4.77 5.04c-3.16 0-4.78-2.24-4.78-5.04Zm7.3 0c0-1.98-.9-3.05-2.52-3.05-1.63 0-2.53 1.07-2.53 3.05 0 1.98.9 3.04 2.53 3.04 1.62 0 2.52-1.06 2.52-3.04Zm3.37-2.43h1.94l.23.7h.05c.35-.42.91-.83 1.95-.83 1.83 0 2.98 1.6 2.98 3.8 0 2.2-1.12 3.8-2.98 3.8-1.04 0-1.6-.41-1.95-.83h-.05v3.91H78.3V7.66Zm4.96 3.68c0-1.03-.38-1.91-1.45-1.91-1.07 0-1.45.88-1.45 1.9 0 1.03.35 1.9 1.45 1.9s1.45-.87 1.45-1.9Zm2.89 0c0-2.08 1.2-3.8 3.6-3.8 2.24 0 3.5 1.58 3.5 3.57v.8h-4.9c.02.86.45 1.46 1.43 1.46.8 0 1.15-.4 1.28-.73h2.1c-.2 1.32-1.37 2.49-3.38 2.49-2.31 0-3.63-1.69-3.63-3.8Zm4.9-.8c-.04-.7-.45-1.24-1.3-1.24-.93 0-1.34.55-1.38 1.25h2.68Zm3.26-2.88h1.8l.16 1.06h.06c.32-.64.94-1.19 1.88-1.19h.5v1.98h-.7c-1.02 0-1.68.69-1.68 1.87V15h-2.02V7.66Zm4.89 5.16c0-1.36.93-2.26 2.95-2.26h1.57v-.39c0-.5-.32-.9-1.12-.9-.67 0-1.07.37-1.07.82h-2.02c0-1.38 1-2.56 3.16-2.56 2 0 3.21 1.11 3.21 2.64V15h-1.93l-.16-.66h-.05a2.5 2.5 0 0 1-1.97.79c-1.65 0-2.57-1-2.57-2.3Zm4.53-.5v-.3h-1.4c-.68 0-1 .3-1 .7 0 .41.35.72 1 .72.88 0 1.4-.52 1.4-1.12Zm4.19.33V9.5h-1.2V7.66h1.3V5.74h2.06v1.92h1.76V9.5h-1.76v2.64c0 .68.3.98.94.98h.84V15h-1.48c-1.7 0-2.46-1.01-2.46-2.35Zm5.21-8.05h2.3v2.19h-2.3v-2.2Zm.07 3.06h2.16V15h-2.16V7.66Zm3.07 3.68c0-2.2 1.31-3.8 3.67-3.8 2.35 0 3.66 1.6 3.66 3.8 0 2.2-1.28 3.79-3.66 3.79-2.39 0-3.67-1.59-3.67-3.8Zm5.13 0c0-1.34-.56-1.91-1.46-1.91-.9 0-1.46.59-1.46 1.9 0 1.33.57 1.9 1.46 1.9.88 0 1.46-.56 1.46-1.9Zm3.26-3.68h1.93l.17.7h.06c.4-.48 1.05-.83 2-.83 1.63 0 2.73 1.03 2.73 2.64V15h-2.16v-4.15c0-.85-.38-1.35-1.24-1.35-.77 0-1.33.55-1.33 1.43V15h-2.16V7.66Zm7.8 5.16c0-1.36.93-2.26 2.95-2.26h1.57v-.39c0-.5-.32-.9-1.12-.9-.68 0-1.07.37-1.07.82h-2.02c0-1.38 1-2.56 3.16-2.56 2 0 3.21 1.11 3.21 2.64V15h-1.94l-.15-.66H137a2.5 2.5 0 0 1-1.96.79c-1.66 0-2.57-1-2.57-2.3Zm4.52-.5v-.3h-1.4c-.68 0-.99.3-.99.7 0 .41.34.72.99.72.88 0 1.4-.52 1.4-1.12Zm3.42-7.71h2.17V15h-2.17V4.61ZM68.2 18.66h3.4c2.94 0 5.08 1.97 5.08 4.92 0 2.74-2 4.91-5.08 4.91h-3.4v-9.83Zm3.28 7.88c1.83 0 2.96-.91 2.96-2.96s-1.13-2.95-2.96-2.95h-1.21v5.9h1.2Zm5.98-.22c0-1.37.92-2.26 2.94-2.26h1.57v-.4c0-.5-.32-.9-1.12-.9-.67 0-1.07.37-1.07.82h-2.02c0-1.38 1-2.56 3.16-2.56 2.01 0 3.22 1.11 3.22 2.64v4.83H82.2l-.16-.66H82a2.5 2.5 0 0 1-1.97.79c-1.65 0-2.56-1-2.56-2.3Zm4.52-.51v-.3h-1.4c-.68 0-.99.3-.99.7 0 .42.34.72.98.72.89 0 1.4-.52 1.4-1.12Zm4.19.34v-3.16h-1.19v-1.84h1.3v-1.92h2.05v1.92h1.76v1.84h-1.76v2.64c0 .68.3.98.94.98h.85v1.88h-1.5c-1.69 0-2.45-1.01-2.45-2.34Zm4.93.17c0-1.37.93-2.26 2.95-2.26h1.57v-.4c0-.5-.32-.9-1.12-.9-.68 0-1.07.37-1.07.82h-2.02c0-1.38 1-2.56 3.16-2.56 2 0 3.21 1.11 3.21 2.64v4.83h-1.94l-.15-.66h-.06a2.5 2.5 0 0 1-1.96.79c-1.66 0-2.57-1-2.57-2.3Zm4.52-.51v-.3h-1.39c-.69 0-1 .3-1 .7 0 .42.34.72.99.72.88 0 1.4-.52 1.4-1.12ZM68.2 32.16h4.47c2 0 3.24 1.41 3.24 3.24 0 1.82-1.26 3.3-3.24 3.3H70.4v3.28h-2.2v-9.82Zm4.03 4.57c.94 0 1.44-.43 1.44-1.33 0-.84-.54-1.3-1.44-1.3h-1.82v2.63h1.82Zm4.17 1.59c0-2.2 1.31-3.8 3.67-3.8s3.66 1.6 3.66 3.8c0 2.2-1.28 3.79-3.66 3.79-2.39 0-3.67-1.59-3.67-3.8Zm5.13 0c0-1.34-.57-1.91-1.46-1.91-.9 0-1.46.59-1.46 1.9 0 1.33.57 1.9 1.46 1.9.88 0 1.46-.56 1.46-1.9Zm3.25-3.68h1.8l.17 1.07h.06c.32-.65.94-1.2 1.88-1.2h.5v1.98h-.7c-1.02 0-1.68.69-1.68 1.87v3.62h-2.03v-7.34Zm6.52 5v-3.16h-1.2v-1.84h1.3v-1.92h2.06v1.92h1.75v1.84h-1.75v2.64c0 .69.3.98.94.98h.84v1.88h-1.49c-1.7 0-2.45-1.01-2.45-2.34Zm4.93.16c0-1.35.92-2.25 2.94-2.25h1.57v-.4c0-.5-.32-.9-1.12-.9-.67 0-1.07.37-1.07.82h-2.02c0-1.38 1-2.56 3.16-2.56 2.01 0 3.22 1.11 3.22 2.64v4.83h-1.94l-.16-.65h-.05a2.5 2.5 0 0 1-1.97.78c-1.65 0-2.56-1-2.56-2.3Zm4.51-.5V39h-1.39c-.68 0-1 .3-1 .7 0 .42.35.72 1 .72.88 0 1.4-.52 1.4-1.12Zm3.43-7.7h2.16v10.38h-2.16V31.6Z"/></svg>