<svg xmlns="http://www.w3.org/2000/svg" width="110" height="42" fill="none"><g clip-path="url(#a)" clip-rule="evenodd"><path fill="#58595B" fill-rule="evenodd" d="M45.51 1.24c0-.36.29-.65.66-.65.37 0 .65.3.65.65v2.5h3.56v-2.5c0-.36.29-.65.65-.65.37 0 .66.3.66.65V7.5c0 .36-.29.65-.66.65a.64.64 0 0 1-.65-.65V4.96h-3.56V7.5c0 .36-.28.65-.65.65a.65.65 0 0 1-.66-.65V1.24Zm8.02 1.82c0-.36.28-.65.64-.65s.65.3.65.65v.58c.3-.7.85-1.24 1.41-1.24.4 0 .64.27.64.64a.6.6 0 0 1-.5.62c-.92.16-1.55.86-1.55 2.2V7.5c0 .35-.29.64-.65.64a.63.63 0 0 1-.64-.64V3.06Zm6.9 5.14h-.06c-.36 0-.59-.22-.74-.56l-1.87-4.29c-.03-.1-.08-.2-.08-.32 0-.32.3-.62.64-.62.35 0 .53.2.64.47l1.45 3.73 1.47-3.75c.1-.22.26-.45.6-.45.36 0 .63.27.63.62 0 .12-.04.25-.07.31l-1.87 4.3c-.15.33-.39.57-.74.57Zm7.23-2.12v-.39a3.57 3.57 0 0 0-1.28-.22c-.83 0-1.32.35-1.32.94v.02c0 .54.47.85 1.1.85.84 0 1.5-.49 1.5-1.2Zm-3.86.4v-.02c0-1.21.95-1.81 2.32-1.81.63 0 1.08.1 1.51.23v-.13c0-.8-.49-1.23-1.4-1.23-.48 0-.89.09-1.24.22a.75.75 0 0 1-.2.04.54.54 0 0 1-.54-.54c0-.23.16-.43.35-.5a4.62 4.62 0 0 1 1.8-.34c.85 0 1.48.23 1.87.63.42.4.6 1 .6 1.74v2.77a.6.6 0 0 1-.62.61c-.37 0-.63-.25-.63-.54V7.4c-.38.46-.97.82-1.83.82-1.05 0-1.99-.6-1.99-1.74Zm6.83.06V3.58h-.21a.55.55 0 0 1-.56-.55c0-.3.25-.55.56-.55h.21v-.96a.64.64 0 0 1 1.29 0v.96h1.01c.3 0 .56.24.56.55 0 .31-.25.55-.56.55h-1.01v2.76c0 .5.25.7.69.7.15 0 .28-.03.32-.03.29 0 .54.24.54.54 0 .23-.16.42-.34.5-.28.1-.54.15-.88.15-.95 0-1.62-.42-1.62-1.66Zm3.96 1a.5.5 0 0 1-.25-.45c0-.29.23-.52.53-.52.1 0 .2.03.28.07.54.36 1.1.54 1.61.54.56 0 .88-.23.88-.6v-.02c0-.44-.6-.6-1.26-.8-.83-.23-1.76-.57-1.76-1.64V4.1c0-1.07.89-1.72 2-1.72.6 0 1.23.17 1.77.46.18.1.3.27.3.49.01.3-.22.52-.52.52a.51.51 0 0 1-.26-.06 3.05 3.05 0 0 0-1.32-.39c-.5 0-.79.24-.79.56v.02c0 .41.61.58 1.27.8.82.25 1.75.63 1.75 1.64v.02c0 1.18-.92 1.77-2.1 1.77a3.9 3.9 0 0 1-2.13-.67ZM80.2.91c0-.35.27-.64.63-.64s.65.3.65.64v4.16l2.42-2.38c.17-.17.33-.28.55-.28.34 0 .56.28.56.59 0 .21-.1.37-.28.54l-1.5 1.37 1.71 2.23c.12.16.17.28.17.43 0 .35-.28.58-.6.58-.26 0-.41-.08-.57-.29l-1.61-2.13-.85.8v.99c0 .36-.29.63-.65.63a.63.63 0 0 1-.64-.63V.92Zm6.14 2.15a.64.64 0 1 1 1.29 0v4.46c0 .36-.29.63-.65.63a.63.63 0 0 1-.64-.63V3.06Zm-.1-2.1c0-.38.33-.62.74-.62s.73.24.73.63v.06c0 .38-.32.64-.73.64s-.74-.26-.74-.64V.97ZM45.08 18.22v-.02c0-.24.08-.4.29-.62l2.99-3.4H45.7a.53.53 0 1 1 0-1.05h3.7c.35 0 .62.2.62.5v.04c0 .24-.09.4-.28.61l-3 3.41h2.77c.3 0 .53.23.53.53 0 .3-.23.53-.53.53H45.7c-.37 0-.63-.23-.63-.53Zm9.68-1.5v-.38a3.58 3.58 0 0 0-1.28-.22c-.83 0-1.32.35-1.32.93v.02c0 .55.48.85 1.1.85.85 0 1.5-.48 1.5-1.2Zm-3.86.4v-.01c0-1.22.95-1.81 2.33-1.81.63 0 1.07.1 1.5.23v-.14c0-.8-.48-1.22-1.38-1.22-.5 0-.9.08-1.25.22a.7.7 0 0 1-.2.03.54.54 0 0 1-.54-.53c0-.23.15-.44.34-.51a4.8 4.8 0 0 1 1.81-.33c.85 0 1.47.22 1.87.63.41.4.6 1 .6 1.73v2.77c0 .35-.27.62-.62.62-.38 0-.63-.26-.63-.54v-.22c-.38.46-.97.82-1.83.82-1.06 0-2-.6-2-1.73Zm8.77 1.73h-.06c-.35 0-.59-.22-.74-.56L57 13.99c-.03-.09-.07-.2-.07-.31 0-.32.28-.62.63-.62s.53.2.64.47l1.45 3.73 1.47-3.75c.1-.23.27-.45.6-.45.36 0 .63.27.63.62 0 .11-.04.24-.07.3l-1.87 4.3c-.15.34-.39.57-.74.57Zm8.05-2.88v-.03c0-.98-.71-1.8-1.73-1.8-1.03 0-1.69.8-1.69 1.78v.03c0 .97.72 1.8 1.72 1.8 1.04 0 1.7-.81 1.7-1.78Zm-4.7 0v-.03c0-1.6 1.27-2.94 3-2.94a2.92 2.92 0 0 1 2.99 2.92v.03c0 1.6-1.28 2.92-3.02 2.92a2.9 2.9 0 0 1-2.98-2.9Zm8.32-.05v.03c0 1.08.75 1.8 1.62 1.8.86 0 1.63-.73 1.63-1.8v-.03c0-1.08-.77-1.8-1.63-1.8-.88 0-1.62.69-1.62 1.8Zm4.52 2.24c0 .36-.29.64-.64.64a.64.64 0 0 1-.65-.64v-.35c-.42.58-1 1.05-1.92 1.05-1.32 0-2.6-1.05-2.6-2.91v-.03c0-1.86 1.26-2.92 2.6-2.92.93 0 1.52.46 1.92 1v-2.44c0-.36.29-.64.64-.64.36 0 .65.28.65.64v6.6Zm4.52.06v-.02c0-.24.08-.4.29-.62l3-3.4H81a.53.53 0 1 1 0-1.05h3.7c.36 0 .62.2.62.5v.04c0 .24-.09.4-.27.61l-3 3.41h2.76c.3 0 .53.23.53.53 0 .3-.23.53-.53.53h-3.8c-.37 0-.64-.23-.64-.53Zm9.69-1.5v-.38a3.57 3.57 0 0 0-1.28-.22c-.83 0-1.32.35-1.32.93v.02c0 .55.48.85 1.1.85.85 0 1.5-.48 1.5-1.2Zm-3.86.4v-.01c0-1.22.95-1.81 2.32-1.81.63 0 1.08.1 1.51.23v-.14c0-.8-.49-1.22-1.4-1.22-.48 0-.88.08-1.24.22a.67.67 0 0 1-.2.03.54.54 0 0 1-.54-.53c0-.23.16-.44.35-.51.53-.2 1.07-.33 1.8-.33.85 0 1.48.22 1.87.63.42.4.61 1 .61 1.73v2.77c0 .35-.28.62-.63.62-.37 0-.63-.26-.63-.54v-.22c-.38.46-.97.82-1.83.82-1.05 0-1.99-.6-1.99-1.73ZM45.08 28.87v-.02c0-.24.08-.4.29-.62l2.99-3.4H45.7a.53.53 0 1 1 0-1.05h3.7c.35 0 .62.2.62.5v.03c0 .25-.09.4-.28.62l-3 3.4h2.77c.3 0 .53.24.53.54 0 .29-.23.52-.53.52H45.7c-.37 0-.63-.22-.63-.52Zm7-2.3v.02c0 1.09.74 1.8 1.61 1.8.87 0 1.63-.72 1.63-1.8v-.02c0-1.09-.76-1.8-1.63-1.8-.88 0-1.61.68-1.61 1.8Zm4.51 2.24c0 .36-.29.64-.64.64a.64.64 0 0 1-.65-.64v-.35c-.41.58-1 1.05-1.91 1.05-1.32 0-2.61-1.05-2.61-2.92v-.02c0-1.86 1.26-2.92 2.6-2.92.93 0 1.52.46 1.92 1V22.2c0-.37.29-.64.64-.64.36 0 .65.27.65.64v6.6Zm1.66-4.45c0-.36.28-.65.64-.65s.65.29.65.65v.57c.3-.7.85-1.23 1.42-1.23.4 0 .64.26.64.63a.6.6 0 0 1-.51.62c-.92.16-1.55.87-1.55 2.2v1.66c0 .35-.29.64-.65.64a.63.63 0 0 1-.64-.64v-4.45Zm7.8 3.01v-.39a3.62 3.62 0 0 0-1.27-.22c-.84 0-1.32.35-1.32.94v.02c0 .54.47.85 1.1.85.84 0 1.5-.49 1.5-1.2Zm-3.85.4v-.02c0-1.21.95-1.8 2.32-1.8.63 0 1.08.09 1.51.23v-.14c0-.8-.49-1.23-1.4-1.23-.48 0-.89.09-1.24.23a.76.76 0 0 1-.2.03.53.53 0 0 1-.54-.53c0-.24.15-.44.35-.51.53-.2 1.07-.33 1.8-.33.85 0 1.48.22 1.87.62.41.4.61 1 .61 1.74v2.77c0 .35-.28.62-.63.62-.37 0-.63-.26-.63-.55v-.2a2.3 2.3 0 0 1-1.83.81c-1.05 0-2-.6-2-1.74Zm8.77 1.73h-.07c-.35 0-.59-.23-.74-.57l-1.87-4.29c-.03-.1-.07-.2-.07-.32 0-.31.29-.61.63-.61.36 0 .54.2.65.46l1.44 3.73 1.47-3.75c.1-.22.27-.44.6-.44a.6.6 0 0 1 .63.61c0 .12-.03.25-.07.31l-1.87 4.3c-.15.33-.38.57-.73.57Zm3.57-.67a.5.5 0 0 1-.25-.45c0-.29.23-.52.53-.52.1 0 .2.03.28.07.54.36 1.1.55 1.62.55.55 0 .87-.24.87-.6v-.03c0-.44-.6-.59-1.26-.79-.83-.23-1.76-.57-1.76-1.65v-.02c0-1.07.89-1.72 2-1.72.6 0 1.23.18 1.77.46.19.1.31.27.31.5 0 .29-.23.51-.53.51a.51.51 0 0 1-.26-.06 3.07 3.07 0 0 0-1.32-.38c-.5 0-.78.23-.78.55v.02c0 .42.6.59 1.26.8.82.25 1.75.63 1.75 1.64v.02c0 1.18-.92 1.77-2.09 1.77-.71 0-1.49-.22-2.14-.67Zm5.83-.99v-2.96h-.21a.55.55 0 0 1-.55-.56c0-.3.24-.55.55-.55h.21v-.96a.64.64 0 0 1 1.29 0v.96h1.01c.31 0 .57.25.57.55 0 .31-.26.56-.57.56h-1.01v2.76c0 .5.26.7.7.7.14 0 .27-.03.31-.03.29 0 .55.23.55.53 0 .23-.16.42-.35.5-.27.1-.54.15-.88.15-.95 0-1.62-.42-1.62-1.65Zm6.52 1.66h-.06c-.36 0-.59-.23-.74-.57l-1.87-4.29c-.04-.1-.08-.2-.08-.32 0-.31.29-.61.64-.61.35 0 .53.2.64.46l1.45 3.73 1.47-3.75c.1-.22.26-.44.6-.44a.6.6 0 0 1 .63.61c0 .12-.04.25-.07.31l-1.87 4.3c-.15.33-.4.57-.74.57Zm7.52-3.31c-.08-.83-.57-1.48-1.43-1.48-.78 0-1.34.6-1.45 1.48h2.88Zm-1.28 3.33a2.8 2.8 0 0 1-2.88-2.92v-.02c0-1.6 1.14-2.93 2.75-2.93 1.78 0 2.67 1.47 2.67 2.77a.6.6 0 0 1-.6.62h-3.53c.14.91.78 1.43 1.61 1.43a2 2 0 0 0 1.33-.5c.1-.07.19-.11.34-.11a.5.5 0 0 1 .5.52.6.6 0 0 1-.16.4 2.9 2.9 0 0 1-2.03.74ZM97 24.36a.65.65 0 1 1 1.29 0v.27c.36-.52.89-.98 1.76-.98 1.27 0 2 .85 2 2.16v3c0 .36-.27.64-.64.64a.63.63 0 0 1-.64-.64V26.2c0-.87-.44-1.38-1.2-1.38-.75 0-1.28.53-1.28 1.4v2.59c0 .36-.29.64-.64.64a.63.63 0 0 1-.65-.64v-4.45Zm11.02 2.25v-.02c0-.99-.71-1.8-1.72-1.8-1.04 0-1.7.8-1.7 1.78v.02c0 .98.72 1.8 1.72 1.8 1.04 0 1.7-.8 1.7-1.78Zm-4.7 0v-.02c0-1.6 1.27-2.94 3-2.94a2.91 2.91 0 0 1 2.99 2.92v.02c0 1.6-1.28 2.93-3.02 2.93a2.9 2.9 0 0 1-2.98-2.9ZM49.76 37.26v-.02c0-1-.71-1.81-1.72-1.81-1.04 0-1.7.8-1.7 1.79v.02c0 .98.72 1.8 1.72 1.8 1.04 0 1.7-.81 1.7-1.78Zm-4.7 0v-.02c0-1.6 1.27-2.94 3-2.94a2.9 2.9 0 0 1 2.99 2.92v.02c0 1.6-1.28 2.93-3.01 2.93a2.9 2.9 0 0 1-2.99-2.91Zm7.07 2.21a.5.5 0 0 1-.25-.44c0-.29.23-.53.52-.53.11 0 .2.04.28.08a3 3 0 0 0 1.62.55c.55 0 .87-.24.87-.61v-.03c0-.43-.6-.58-1.25-.78-.84-.24-1.76-.58-1.76-1.65v-.02c0-1.07.88-1.72 2-1.72.6 0 1.22.17 1.77.46.18.1.3.27.3.49 0 .3-.23.52-.53.52a.51.51 0 0 1-.25-.06 3.05 3.05 0 0 0-1.32-.39c-.5 0-.8.24-.8.56v.02c0 .41.62.58 1.28.8.82.25 1.74.63 1.74 1.64v.02c0 1.18-.91 1.77-2.08 1.77a3.8 3.8 0 0 1-2.14-.68Zm5.6-4.47c0-.36.28-.65.65-.65.36 0 .65.3.65.65v4.45c0 .36-.3.64-.65.64a.63.63 0 0 1-.65-.64V35Zm-.1-2.1c0-.38.33-.62.75-.62.4 0 .73.24.73.62v.07c0 .38-.32.64-.73.64-.42 0-.74-.26-.74-.64v-.07Zm7.27 4.05v-.02c0-.92-.76-1.54-1.66-1.54-.9 0-1.6.61-1.6 1.54v.02c0 .92.72 1.55 1.6 1.55.9 0 1.65-.63 1.65-1.55Zm-3.94 4.31a.53.53 0 0 1-.36-.5.54.54 0 0 1 .78-.49c.51.3 1.07.45 1.72.45 1.15 0 1.78-.6 1.78-1.72v-.44a2.36 2.36 0 0 1-1.98 1.03 2.53 2.53 0 0 1-2.56-2.63v-.02a2.54 2.54 0 0 1 2.56-2.64c.95 0 1.53.44 1.97.96v-.27a.64.64 0 1 1 1.29.01v3.89c0 .95-.25 1.65-.71 2.12-.51.51-1.3.75-2.31.75-.8 0-1.5-.16-2.18-.5Zm11.87-1.81c0 .36-.29.64-.65.64a.64.64 0 0 1-.65-.64v-.28c-.36.53-.88.99-1.75.99-1.27 0-2-.85-2-2.17V35c0-.36.28-.65.63-.65.36 0 .65.3.65.65v2.61c0 .87.44 1.36 1.2 1.36.75 0 1.27-.5 1.27-1.38V35c0-.36.3-.65.65-.65.35 0 .65.3.65.65v4.45ZM74.48 35a.65.65 0 1 1 1.29 0v.58c.3-.7.85-1.24 1.42-1.24.4 0 .64.27.64.64a.6.6 0 0 1-.52.62c-.91.16-1.54.86-1.54 2.2v1.65c0 .36-.29.64-.65.64a.64.64 0 0 1-.64-.64V35Zm7.8 3.02v-.39a3.6 3.6 0 0 0-1.28-.22c-.82 0-1.32.35-1.32.94v.02c0 .54.48.85 1.1.85.85 0 1.5-.49 1.5-1.2Zm-3.85.4v-.02c0-1.22.94-1.81 2.32-1.81.63 0 1.07.1 1.51.23v-.13c0-.8-.49-1.23-1.4-1.23-.49 0-.89.09-1.24.22a.71.71 0 0 1-.2.03.53.53 0 0 1-.55-.53c0-.23.16-.43.36-.5a4.62 4.62 0 0 1 1.8-.34c.85 0 1.48.23 1.87.63.42.4.6 1 .6 1.74v2.76a.6.6 0 0 1-.62.62c-.37 0-.63-.25-.63-.54v-.21a2.3 2.3 0 0 1-1.83.82c-1.06 0-2-.61-2-1.74ZM85.1 35a.64.64 0 1 1 1.29 0v.28c.36-.52.88-.98 1.76-.98 1.27 0 2 .85 2 2.15v3c0 .37-.28.64-.64.64a.64.64 0 0 1-.65-.64v-2.6c0-.88-.43-1.38-1.2-1.38-.75 0-1.27.52-1.27 1.4v2.58c0 .37-.29.64-.65.64a.63.63 0 0 1-.64-.64V35Zm6.57-2.1c0-.38.32-.62.74-.62.41 0 .73.24.73.62v.07c0 .38-.32.64-.73.64-.42 0-.74-.26-.74-.64v-.07Zm-.26 8.88c-.4-.02-.7-.19-.7-.54a.5.5 0 0 1 .5-.53l.08.01c.29 0 .48-.18.48-.6V35c0-.36.28-.65.64-.65s.65.3.65.65v5.11c0 1.14-.6 1.67-1.56 1.67h-.1Zm7.17-4.95c-.09-.83-.58-1.48-1.43-1.48-.79 0-1.34.61-1.46 1.48h2.89Zm-1.28 3.34a2.8 2.8 0 0 1-2.89-2.92v-.02c0-1.61 1.14-2.93 2.75-2.93 1.8 0 2.67 1.47 2.67 2.77a.6.6 0 0 1-.6.62H95.7c.14.91.8 1.42 1.62 1.42.54 0 .97-.19 1.33-.49a.5.5 0 0 1 .33-.11.5.5 0 0 1 .51.52c0 .16-.07.3-.17.4a2.9 2.9 0 0 1-2.02.74Z"/><path stroke="#9E1F63" stroke-linecap="round" stroke-linejoin="round" stroke-width=".64" d="M36.5 4.93a4.24 4.24 0 1 0-8.48 0v11.03H12.2V4.93a4.24 4.24 0 1 0-8.48 0V35.7a4.24 4.24 0 1 0 8.48 0V24.45h15.82v11.24a4.24 4.24 0 1 0 8.48 0V4.93Z"/><path stroke="#662D91" stroke-linecap="round" stroke-linejoin="round" stroke-width=".86" d="M32.24 31.43H16.73L35.55 7.6c.17-.22.33-.47.46-.73 0 0 0 0 0 0l.05-.1s0 0 0 0l.04-.09v-.01l.04-.08.01-.02.03-.08v-.02l.04-.07v-.03l.03-.07.01-.03.02-.07.01-.03.02-.07v-.03c.02-.02.02-.04.03-.07v-.03l.02-.07v-.03l.02-.07v-.04l.02-.06v-.05l.02-.05v-.06l.01-.05a1.72 1.72 0 0 0 .01-.1l.03-.31v-.11 0-.1l-.01-.07v-.03a4.23 4.23 0 0 0-.42-1.66s0 0 0 0L36 3.02l-.03-.06a4.17 4.17 0 0 0-.74-1h-.01l-.06-.06-.03-.03-.04-.04a.34.34 0 0 0-.05-.04l-.02-.02c-.3-.26-.62-.48-.98-.64 0 0 0 0 0 0a1.06 1.06 0 0 1-.09-.05s0 0 0 0l-.1-.04s0 0 0 0a.58.58 0 0 1-.09-.04h-.02l-.08-.03-.01-.01c-.03 0-.06-.02-.08-.03h-.02L33.47.9h-.02l-.08-.03h-.02a.73.73 0 0 0-.08-.02l-.02-.01-.08-.02h-.03a1.32 1.32 0 0 0-.1-.02l-.07-.02h-.04l-.06-.02h-.11L32.7.74h-.03a4.3 4.3 0 0 0-.32-.02h-.11 0H7.99a4.23 4.23 0 0 0 0 8.47h15.5L4.69 33.02c-.19.23-.34.47-.47.73v.01l-.05.09v.01l-.04.08v.02l-.04.07v.03l-.04.07a.2.2 0 0 1 0 .02l-.04.08v.02l-.03.08v.02a.6.6 0 0 1-.03.07v.03l-.03.07v.03c-.02.03-.02.05-.02.07l-.02.04v.06l-.02.04-.01.06v.04l-.02.06v.05l-.02.05v.11l-.02.07v.03l-.02.32v.4c.04.56.19 1.09.42 1.56v.01l.04.08.03.05.02.04c.18.32.4.62.66.9l.06.06.01.01.06.06.03.03.04.03.05.05.02.02a4.28 4.28 0 0 0 1.08.69l.09.03s0 0 0 0l.1.04s0 0 0 0l.09.04h.01l.09.03h.01l.08.03h.02l.08.03h.02a1.06 1.06 0 0 0 .1.03l.08.02h.03l.07.02.04.01.06.01h.04a.85.85 0 0 0 .11.03h.06l.06.01h.04l.31.02h24.37a4.23 4.23 0 0 0 0-8.46Z"/><path stroke="#DA1C5C" stroke-linecap="round" stroke-linejoin="round" stroke-width=".64" d="M.49 20.42v-.1A19.35 19.35 0 0 1 20.16.68c11.4 0 19.57 8.73 19.57 19.51v.11a19.35 19.35 0 0 1-19.67 19.63C8.65 39.94.48 31.2.48 20.42Z"/></g><defs><clipPath id="a"><path fill="#fff" d="M.16.27H109.8v41.6H.16z"/></clipPath></defs></svg>