<svg xmlns="http://www.w3.org/2000/svg" width="105" height="40" fill="none"><path fill="#144991" d="M43.67 26.1h-3.64V.8h3.64v25.3Zm8.73-12.58c0-4.23 2.86-9.66 9.95-9.66 6.6 0 9.8 5.31 9.8 9.5 0 2.2-.94 4.93-2.52 6.68-1.75 1.9-4.68 3-7.38 3-5.32.01-9.85-3.76-9.85-9.52Zm23.45-.12C75.85 6.6 70.61.45 62.2.45c-8.65 0-13.55 6.34-13.55 13.07 0 7.05 5.41 12.91 13.36 12.91 8.28 0 13.85-5.76 13.85-13.03ZM104.34.8h-3.38l-8.38 10.39L84.15.79h-3.42v25.32h3.64V6.4l7.86 9.8h.68l7.8-9.8v19.7h3.63V.8ZM8.4 30.9h-.95v4.57c0 .2 0 1.2-.28 1.78-.3.63-1.08 1.36-2.41 1.36-.76 0-1.5-.24-2.02-.78-.5-.51-.69-1.1-.69-2.34V30.9H1.1v4.54c0 1.25.12 1.86.59 2.55.9 1.34 2.5 1.46 3.09 1.46 1.82 0 2.79-1 3.15-1.63.36-.63.49-1.21.49-2.4V30.9H8.4Zm11.26 0h-.92v6.95L12.6 30.9h-.81v8.45h.91V32.4l6.14 6.95h.81V30.9h.02Zm15.85 0h-.92l-3.05 3.7-3.07-3.7h-.91v8.45h.95v-7.04l2.98 3.6h.1l2.97-3.6v7.04h.95V30.9Zm4.65 0h-.95v8.45h.95V30.9Zm10.45.62a7.37 7.37 0 0 0-2.98-.72c-2.8 0-4.64 1.95-4.64 4.34 0 2.26 1.73 4.31 4.64 4.31 1.12 0 2.12-.25 3.16-.7v-3.4h-2.7v.81h1.75v2c-.31.1-1.21.47-2.3.47a3.46 3.46 0 0 1-3.55-3.52 3.44 3.44 0 0 1 3.55-3.49c.33 0 1.68.02 3.06.87v-.97h.01Zm5.57.2c1.31 0 1.97.6 1.97 1.47 0 .97-.74 1.49-1.97 1.49h-1.1v-2.95h1.1Zm-2.05-.82v8.45h.95v-3.86h.62c.91 0 1.4.33 1.95 1.03.4.5.77 1.04 1.1 1.55l.83 1.28h1.14c-.43-.59-.62-.86-.98-1.43-1.06-1.64-1.49-2.3-2.1-2.7.82-.28 1.53-.9 1.53-2.06 0-1.02-.6-2.26-2.85-2.26h-2.19Zm13.68 4.92h-3.18l1.57-3.5 1.6 3.5Zm-1.3-4.97h-.64l-3.8 8.5h.98l1.22-2.7h3.93l1.24 2.7h.99l-3.92-8.5Zm11.57.05h-7.15v.81h3.1v7.64H75v-7.62h3.1v-.83Zm3.81 0h-.94v8.45h.94V30.9Zm10.97 4.2c0 2.04-1.6 3.5-3.65 3.5a3.44 3.44 0 0 1-3.52-3.44 3.44 3.44 0 0 1 3.58-3.47 3.44 3.44 0 0 1 3.6 3.42Zm-8.19.03c0 2.48 2.02 4.32 4.54 4.32 2.58 0 4.65-1.8 4.65-4.32 0-2.3-1.8-4.33-4.6-4.33-2.9 0-4.59 2.1-4.59 4.33Zm19.59-4.23h-.91v6.95L97.2 30.9h-.81v8.45h.91V32.4l6.14 6.95h.81V30.9h.02ZM14.15 11.05a.5.5 0 0 1-.52-.52c0-.27.23-.51.52-.51.3 0 .52.22.52.51 0 .3-.24.52-.52.52Zm5.9.36a.22.22 0 0 0-.2-.13h-1.56a.22.22 0 0 0-.2.13l-1 2.33h-.96l-.98-2.33a.22.22 0 0 0-.2-.13h-1.6a.22.22 0 0 0-.2.13l-1.03 2.45c-.04.1-.02.23.08.28l.12.03a.2.2 0 0 0 .2-.13l.92-2.18.07 2.1-.34 2.68c-.02.1.03.2.14.24l.06.02c.1 0 .21-.09.23-.2l.33-2.53h.44l.33 2.54c.02.12.1.19.23.19.01 0 .05 0 .08-.02.1-.03.16-.14.14-.24l-.34-2.67.06-2.1.92 2.15c0 .02.02.02.02.03l.01.02.02.02.03.01h.3l-.3 1.5c-.01.1 0 .23.07.3.04.05.1.08.16.12v.64c0 .1.09.19.19.19a.2.2 0 0 0 .19-.2v-.61h.27v.62c0 .1.09.19.2.19a.2.2 0 0 0 .18-.2v-.63a.22.22 0 0 0 .16-.12c.07-.09.1-.2.07-.31l-.3-1.5h.3c.02 0 .02-.02.03-.02l.02-.02.02-.01.01-.04.95-2.24.2.91c.03.16.03.31-.02.47l-.87 3.74h2.72l-.85-3.74a1.32 1.32 0 0 1-.02-.45l.19-.91.74 1.8c.03.1.12.15.2.15.04 0 .06 0 .1-.02.11-.05.16-.17.11-.3l-.84-2Zm-.98-.36a.52.52 0 0 0 0-1.03.52.52 0 0 0-.52.51c0 .3.22.52.52.52Zm-2.45 2.57c.2 0 .38-.17.38-.38a.4.4 0 0 0-.38-.38c-.21 0-.38.18-.38.38s.17.38.38.38Zm12.67 4.14H27a7.8 7.8 0 0 0 .97-3.7v-.35h2.37a12.1 12.1 0 0 1-1.04 4.05Zm-4.31 5a7.43 7.43 0 0 0-1.66-1.24 9.37 9.37 0 0 0 3.21-2.97h2.4a11.58 11.58 0 0 1-3.95 4.21Zm-5.23 1.59v-3.18c1.8.1 3.42.82 4.6 1.95a10.4 10.4 0 0 1-4.6 1.23Zm5.92-5.8a8.27 8.27 0 0 1-3.19 2.57 8.04 8.04 0 0 0-2.74-.6v-1.97h5.93Zm-13.05-.79a7.29 7.29 0 0 1-1.06-3.7V14l.02-.8H5.72v-.34c0-1.32.4-2.58 1.05-3.7h13.59a7.29 7.29 0 0 1 1.05 3.7v.05l-.02.8h5.87v.34a7.3 7.3 0 0 1-1.06 3.71H12.62Zm6.34 2.76a7.9 7.9 0 0 0-2.62.6 8.27 8.27 0 0 1-3.19-2.57h5.81v1.97Zm0 3.81c-1.6-.09-3.1-.53-4.45-1.26a7.1 7.1 0 0 1 4.45-1.88v3.14Zm-8.91-5.78h2.24a9.2 9.2 0 0 0 3.2 2.97c-.58.33-1.12.72-1.6 1.19a11.43 11.43 0 0 1-3.84-4.16ZM8.68 14h2.2v.05c0 1.31.36 2.57.96 3.71H9.67A11.74 11.74 0 0 1 8.68 14Zm-6.01-.78a12 12 0 0 1 1.01-4.03H6a7.91 7.91 0 0 0-.96 3.7v.35H2.67v-.02Zm5.32-9.05c.49.48 1.04.9 1.66 1.24a9.37 9.37 0 0 0-3.2 2.97h-2.4A11.53 11.53 0 0 1 8 4.18Zm5.23 2.26V8.4H7.3a8.27 8.27 0 0 1 3.2-2.57c.82.34 1.75.57 2.72.6Zm0-3.83v3.18a7.14 7.14 0 0 1-4.6-1.95c1.4-.74 2.94-1.2 4.6-1.23Zm.8 3.83a7.77 7.77 0 0 0 2.61-.6 8.27 8.27 0 0 1 3.2 2.57H14V6.43Zm0-3.81c1.6.09 3.1.53 4.44 1.26a7.1 7.1 0 0 1-4.45 1.88V2.62Zm8.9 5.78H20.7a9.2 9.2 0 0 0-3.21-2.97 7.74 7.74 0 0 0 1.6-1.19 11.3 11.3 0 0 1 3.85 4.16Zm1.39 4.53h-2.2v-.05c0-1.31-.35-2.57-.96-3.7h2.17c.5 1.17.85 2.42.99 3.75ZM27.26.83h-2.68c.71.63 1.68 1.76 1.68 1.76a15.9 15.9 0 0 1 4.08 10.2v.12h-4.27C25.4 6.15 20.03.81 13.5.81 6.53.8.87 6.8.87 14.23c0 4.01 1.85 8.51 4.85 11.86h2.67a29.95 29.95 0 0 1-1.67-1.76 15.9 15.9 0 0 1-4.09-10.2V14h4.28c.65 6.76 6.03 12.1 12.57 12.1 6.98 0 12.62-6 12.62-13.41 0-4-1.84-8.5-4.84-11.86Z"/></svg>