<svg xmlns="http://www.w3.org/2000/svg" width="170" height="48" fill="none"><g clip-path="url(#a)"><path fill="#009086" d="M-11.37 41.17h195.8v.98h-195.8v-.98Z"/><path fill="#0F1319" d="M16.73 13.5h8.97v1c-.75 0-2.41-.1-2.41 1.87V33.1c0 .98.52 2.67 2.51 2.67h2.74c2.74 0 4.24-1.27 5.42-4.5.49.23.59.23.98.36-.26 1.01-1.24 4.7-1.44 5.51H16.96v-.98c.58 0 2.51.17 2.51-2.08V16.14c0-1.01-1.08-1.6-2.61-1.6-.13-.3-.13-.91-.13-1.04Zm32.44 0v.97H50c.92 0 1.7.92 1.7 1.86V30.4c0 3.49-2.25 5.87-5.61 5.87-4.67 0-5.61-4.27-5.61-5.51V15.7c0-.58.65-1.17 1.24-1.17h.9v-1.08h-8.67v1.08h1.08c.49 0 1.43.59 1.43 2.19v14.2c0 1.69 1.01 7 8.55 7 7.54 0 8.68-5.67 8.68-7.63V16.17c0-1.27.98-1.7 1.44-1.7h.52v-.97h-6.5Zm25.58 6.1c0 3.33-1.6 4.24-2.32 4.76-.85.65-1.43.85-2.18 1.27 2.74 5.42 5.28 8.3 6.36 9.44 1.08 1.1 1.76 1.1 2.32 1.1h.49v.98h-6.53c-3.1-3.49-6.04-9.26-7.02-10.7h-2.02v7.5c0 1.83 1.24 2.26 1.6 2.26h1.1v1.07H57.1v-1.07h1.17c1.01 0 1.6-1.01 1.6-1.76v-17.6c0-1.6-1.01-2.18-1.6-2.18h-1.4v-1.08h11.71a5.81 5.81 0 0 1 6.17 6Zm-9.6 5.77c1.28 0 5.42-.58 5.42-5.19 0-4.24-3-5.35-4.44-5.35h-1.17c-.1 0-1.18.07-1.18.75v9.73c.2.06.53.06 1.38.06Zm53.95 8.3V25.4h4.86c2.02 0 2.09 2.31 2.09 2.9h.84v-7.2h-1v1.08c0 1.1-.7 1.82-1.93 1.82h-4.86v-9.13h6c2.45 0 2.94 2.67 3.1 3.49h.98c-.07-.23-.23-3.95-.33-4.83h-16.54v1.07h1.44c.48 0 1.43.6 1.43 2.2v17.22c0 1.6-1.08 2.19-1.57 2.19h-1.24v1h17.5c.22-.8 1.27-4.85 1.43-5.5-.33-.17-.42-.23-.81-.37-.36.85-1.34 4.44-5 4.44h-4.01c-1.08.04-2.38-1.04-2.38-2.12Zm32.27-4.02V16.2c0-1.07-.98-1.7-1.83-1.7h-1.24v-.97h8.1v.91h-.85c-.85 0-2.16.5-2.16 1.76v21.57h-1.07l-15.08-18.83v15.3c0 1.58 1.57 2.03 1.99 2.03h1.18v.98h-8.03v-.98h.91c1.24 0 1.93-1.17 1.93-1.92V16.63c0-1.34-.85-2-1.5-2h-1.5v-1.07h6.16c1.37 1.66 10.97 13.54 12.99 16.09ZM109.8 13.92v4.6h-.82c-.1-1.5-1.08-4.44-4.01-4.44-2.42 0-4.11 1.7-4.11 4.28s1.66 3.59 5.28 5.87c3.66 2.25 4.7 3.66 4.7 6.7 0 3.03-2.25 6.84-7.86 6.84-3 0-5.62-1.4-6.1-1.76-.17-1.01-.5-4.6-.5-5h1.02c.16.92 1.1 5.46 5.44 5.52 2.2 0 4.5-1.5 4.5-4.17a4 4 0 0 0-1.98-3.53c-1.24-.85-5.78-3.49-6.63-4.83-.84-1.34-1.4-2.09-1.4-4.01 0-1.93 1.27-7.05 7.5-7.05 2.29.03 3.99.69 4.97.98Zm-16.97 0v4.6H92c-.1-1.5-1.08-4.44-4.01-4.44-2.42 0-4.11 1.7-4.11 4.28s1.66 3.59 5.28 5.87c3.66 2.25 4.7 3.66 4.7 6.7 0 3.03-2.25 6.84-7.86 6.84-3 0-5.62-1.4-6.1-1.76-.17-1.01-.5-4.6-.5-5h1.02c.16.92 1.1 5.46 5.45 5.52 2.18 0 4.5-1.5 4.5-4.17a4 4 0 0 0-2-3.53c-1.23-.85-5.77-3.49-6.61-4.83-.85-1.34-1.4-2.09-1.4-4.01 0-1.93 1.26-7.05 7.5-7.05 2.28.03 4.01.69 4.96.98ZM49.59 8.47V5.43l-.49-.48 1.5-3.2 1.44 3.2-.43.48v5.42H39.96V5.43l-.49-.48 1.5-3.2 1.44 3.2-.42.48v3.04h2.8V5.43l-.49-.48 1.5-3.2 1.44 3.2-.42.48v3.04h2.77Z"/></g><defs><clipPath id="a"><path fill="#fff" d="M.26.95h169.6v47H.27z"/></clipPath></defs></svg>