<svg xmlns="http://www.w3.org/2000/svg" xmlns:xlink="http://www.w3.org/1999/xlink" width="215" height="185" fill="none"><use xlink:href="#Person"/><use xlink:href="#Person" x="-46" y="85"/><use xlink:href="#Person" x="46" y="85"/><path id="Label" fill="#1E58A4" d="M139.9 71c-.3 0-.5-.3-.9-.8l-.4-1.2 1.6-4.8c1.1-3 1.7-4.9 1.8-5.6.1-.3.3-.5.7-.5.3 0 .6.4 1 1 .4.7.5 1.3.5 1.8l-1 2.3a192.2 192.2 0 0 0-1.5 4.3l-.4 1-1.2 2.5h-.2Zm17.8-6.6c.4.1.8.4 1.2 1 .3.6.5 1.2.4 1.6 0 .3-.2.4-.4.3a2 2 0 0 1-.6-.2l-.8-.3h-1.3c-.6.2-.9.4-1 .7l.5.6 1 .8c.3.3.6.7.8 1.2.3.5.3 1 .3 1.5-.1.4-.5.9-1.3 1.3-.8.3-1.7.5-2.7.3-1-.1-1.7-.5-2.4-1-.6-.6-.8-1-.8-1.5.1-.5.3-.7.7-.6.2 0 .3 0 .5.2.6.5 1.3.7 2.2.9.8.1 1.3 0 1.3-.2s0-.5-.4-.8a8 8 0 0 0-1-1L153 68c-.3-.4-.4-.8-.3-1.1 0-.7.8-1.3 2-1.9a7 7 0 0 1 3-.7Zm4.9-1.5c0-.3.2-.6.5-.9.3-.3.6-.4.9-.4.3 0 .5.5.8 1.1.3.7.4 1.2.3 1.5 0 .3-.1.5-.3.7a1 1 0 0 1-.7 0c-.3 0-.7-.2-1-.8-.4-.5-.6-.9-.5-1.2Zm-.1 2.3c.4 0 .7.3 1 .8l.3 1.5-1 2.3a138 138 0 0 1-1.9 3.8c-.2.4-.5.6-1 .5a1 1 0 0 1-.6-.3 1 1 0 0 1-.2-.9c0-.3.4-1 .8-2.2a51 51 0 0 0 2-5c.2-.4.4-.6.6-.5Zm7 3.2-.6 1.3-1 2-.6 1.4h1.7a7 7 0 0 1 1.4-.3c.3 0 .4.3.3.7 0 .4-.5.8-1.4 1.3-.9.4-1.7.5-2.6.4-.4 0-.8-.3-1.2-.8-.5-.5-.7-1-.6-1.4 0-.4.3-1 .8-2.2l1.2-2.2h-1.1c-.3 0-.5-.2-.7-.6-.2-.4-.3-.7-.2-1 0-.4 1-.5 2.9-.5.4-1 .6-2 .7-2.8.1-.4.3-.5.7-.5.3 0 .6.3 1 .8.5.4.7.8.6 1.2l-.5 1.5 1.3.1c1 .2 1.3.4 1.3.8 0 .3-.3.5-.9.6l-2.5.2Zm13.9-4.3c0-.5.3-.8.7-.7.3 0 .6.4 1 1 .3.6.4 1 .4 1.4l-.5 1.6a31.6 31.6 0 0 1-1.9 4.1l-1 2.1c1-1.4 2-2.6 3-3.4 1-.9 1.9-1.3 2.5-1.2.3 0 .7.5 1 1.2.4.7.6 1.3.5 1.9a13 13 0 0 1-2 4.9c-.7.8-1.2 1.2-1.7 1.1-.4 0-.6-.4-.5-1 0-.3.3-1 .7-1.9l.9-2.4-.1-.4c-.7-.1-1.9.9-3.6 3l-1.4 1.5c-.3.3-.6.5-1 .4-.2 0-.5-.3-.8-.8-.3-.5-.5-.8-.4-1l.3-1.1a420.3 420.3 0 0 1 2.5-6.6l1.4-3.7ZM198 74c0 .6-.5 1-1.4 1.4-.8.3-1.7.4-2.5.3l-2-.5a3 3 0 0 0-.3 1v.6c.1.2.4.3.8.4h3.3c.5 0 .7.2.7.6 0 .4-.5.8-1.4 1.1-.8.3-1.7.4-2.7.2a3.2 3.2 0 0 1-2.8-3.7c0-.8.5-1.7 1.1-2.6a8 8 0 0 1 2.3-2c.9-.5 1.7-.7 2.4-.6.8.1 1.4.6 2 1.4.5.9.7 1.6.5 2.4Zm-2-.6c0-.1 0-.3-.3-.6-.2-.3-.4-.4-.6-.4-.2 0-.5 0-1 .3l-1.1 1 .5.2c1.6.2 2.4 0 2.5-.5Zm4 .5.2-2c0-.6.3-1 .7-.9.3 0 .5.2.7.4.2.2.3.5.4 1 .5-.4 1-.6 1.5-.7.5-.2 1-.2 1.3-.2.9.2 1.3.4 1.2.8 0 .3-.1.4-.2.5a2.2 2.2 0 0 1-.5.4h-.2l-.6.4c-.6.2-1.2.5-1.6 1-.5.4-.8 1-1.2 1.8-.5 1.3-1 2.3-1.4 2.9-.4.6-.8.9-1.1.8a.9.9 0 0 1-.8-.6c-.1-.4-.2-.8-.1-1 0-.4.2-.9.5-1.4l.8-1.6.4-1.6Zm13.5 2.5c0 .6-.5 1-1.4 1.4-.9.3-1.7.4-2.5.3l-2-.5a3 3 0 0 0-.4 1l.1.6c0 .2.3.3.8.4h3.3c.5 0 .7.2.7.6-.1.4-.6.8-1.4 1a4 4 0 0 1-2.7.3 3.2 3.2 0 0 1-2.9-3.7c.2-.8.6-1.7 1.2-2.6a8 8 0 0 1 2.3-2c.8-.5 1.6-.7 2.4-.6.7 0 1.4.6 2 1.4.4.9.6 1.6.5 2.4Zm-2-.6c0-.1 0-.3-.3-.6-.2-.3-.4-.4-.6-.5-.3 0-.6.1-1 .4l-1.1 1 .4.1c1.7.3 2.5.1 2.6-.4Zm-82.2 21.8c.2-1 1-1.2 1.5-1.7.3-.4.7-.8.8-1.2.4-1-.5-2-1.5-1.8-.5.1-1 .3-1.4.6l-7.7 5.3-1.2 1.3c-.4.8 0 1.8.8 2.2l.7.2 7.3 1.5h1.8c1.1-.3 1.4-1.2.7-2.2l-1-.8 1.2-.6 7-2.5a34 34 0 0 0 13-9c1-1.2 2-2.6 2.8-4.1 3.4-6.7 2.6-9-3-.6a31.2 31.2 0 0 1-12.2 10c-2.7 1.2-5.5 2.1-8.3 3.2l-1.3.2Z"/><path stroke="#B39865" stroke-width="3" d="M101.5 81.5v24m-26 22.5 25.5-17m27.5 18L102 111"/><circle cx="101.5" cy="111.5" r="8" fill="#F8FAB5" class="s"/><defs><style>.s{stroke:#b39865;stroke-width:3px}</style><g id="Person" class="s"><circle cx="102" cy="58" r="23.5"/><path d="M87 76c0-5.5 4.1-17.1 14.8-17 10.6.1 14.2 11.5 14.2 17.5"/><circle cx="101.5" cy="50.5" r="8"/></g></defs></svg>