<svg xmlns="http://www.w3.org/2000/svg" width="215" height="185" fill="none"><path fill="#B39865" fill-rule="evenodd" d="m40.5 42.1-4 .1a7.6 7.6 0 0 0-6.3 4c-.5 1-.7 2-.8 3v86.5c.1 1.1.3 2.1.7 3a7.6 7.6 0 0 0 3.4 3.3c.9.5 1.9.7 3 .8h108.2v-3.1H40.5l-3.8-.1c-.9 0-1.4-.2-1.8-.4a4.1 4.1 0 0 1-1.9-2c-.2-.3-.3-.8-.4-1.7v-86c0-.9.2-1.4.4-1.8.4-.8 1.1-1.5 2-1.9.3-.2.8-.3 1.7-.4h134.7c1 0 1.4.2 1.8.4.8.4 1.5 1.1 2 2 .1.3.3.8.3 1.7l.1 3.8v42.2h3.2V49.3c-.2-1.1-.4-2.1-.8-3a7.6 7.6 0 0 0-3.3-3.3c-1-.5-2-.7-3-.8H40.5Z" clip-rule="evenodd"/><path stroke="#B39865" stroke-linecap="round" stroke-linejoin="round" stroke-miterlimit="10" stroke-width="3.2" d="M104 141.3v24.3m-30.4 0h61"/><rect width="41.6" height="66.6" x="150.2" y="100.5" stroke="#B39865" stroke-width="3.2" rx="7.4"/><path fill="#F8FAB5" d="M102.8 65.6c-2.1 1.5-2 7.4-1.6 10.1 1.7.4 5.9 2.2 9.2 6 3.3 3.6.5 9.7-1.3 12.3l5 5.1.7-4.5L135 94l3-15.4-1-11.4-3-3.5h-26.5c-.6 0-2.5.5-4.7 2Z"/><path fill="#1E58A4" fill-rule="evenodd" d="M101 75.6a16 16 0 0 0-1.8-.1 8 8 0 0 0-4.5 1.1c-.4.2-.2.7.1.7A10 10 0 0 0 88 85a12 12 0 0 0 7 12.8c4 2 9.2 1.7 13-.9 1-.4 2.7.7 3 1.3l.4.7c.6.9 1.1 1.8 2 2.5.5.3 1 0 1.2-.5.6-1.6.9-3.2 1-4.8a270.4 270.4 0 0 0 13.3-.2 366.7 366.7 0 0 1 4.5-.1h.2c.7 0 1.5-.1 2.1-.6.6-.4.8-1 1-1.6l.7-2.4a54.4 54.4 0 0 0 1.3-20.1c-.2-1.3-.4-2.7-.8-4a6.8 6.8 0 0 0-2.2-2.9 8 8 0 0 0-3.9-1h-.4a110.2 110.2 0 0 0-22.1.2c-2.8.3-6.1.6-7.6 3.2a8.7 8.7 0 0 0-.8 4.2l.2 4.7Zm.8 0 2.3.6c2.7 1 5.1 2.7 6.8 5.1a11 11 0 0 1-1.3 14.1c.6.2 1.2.4 1.6.8.6.5 1 1.1 1.4 1.8l.8 1.3c.3-1.3.5-2.6.5-4 0-.4.4-.8.8-.7a244.3 244.3 0 0 0 17.4-.3l2-.1c.7-.1.9-.7 1-1.3l.1-.2A53.2 53.2 0 0 0 137 70a9.7 9.7 0 0 0-1-3.4 3.9 3.9 0 0 0-3-1.9l-4.4-.4h-.5c-6.4-.4-13-.3-19.4.3h-.2c-2.6.3-5.6.6-6.5 3.5a12 12 0 0 0-.3 3.7v1.6l.1 2.3Zm-3 1.7a12.5 12.5 0 0 1 9.5 3.5 11 11 0 0 1 2.8 5.6c.3 2.2-.3 4.5-1.5 6.4-2.6 4-7.8 5.6-12.3 4.3-4.4-1.2-7.9-5-8-9.7a9.3 9.3 0 0 1 9.4-9.9s.2-.1.1-.2Zm-15.6 40.6-.7 3c1.2-.3 2.4-.4 3.6-.5h1.3l2.6-.2a280.7 280.7 0 0 1 22.8.1c1.6 0 3.1.2 4.7.3-.4-2.3-.8-4.6-1.4-6.8a26 26 0 0 0-2.4-6 8.8 8.8 0 0 0-4.1-3.6c-1.8-.8-3.7-1-5.6-1-3.5-.1-7 .3-10.3 1.4a15 15 0 0 0-8 6 20.4 20.4 0 0 0-2.5 7.3Zm-1 .3L82 121c-.2.2-.2.6 0 .6 1.8.3 3.6.3 5.4.2h4a314.6 314.6 0 0 1 18.8 0l2.9.2 5.2.2c.5 0 .7-.4.7-.7v-.4a41.3 41.3 0 0 0-3.5-13 11 11 0 0 0-3.8-4.5c-1.7-1-3.7-1.6-5.7-1.8-3.8-.4-7.8 0-11.4 1-3.4 1.1-6.7 3-9 5.8a16 16 0 0 0-2.7 6c-.3 1-.5 2.2-.6 3.3v.3Zm35.4-41.7c-1.8-.7-2.6-3-1.8-4.7 1-1.8 3.3-2.8 5.3-2.4 1.2.2 2 1 2.3 2.1.4 1.2.1 2.5-.3 3.7a12.1 12.1 0 0 1-3 4.8l-1 .8c-.7.9-1.2 1.9-1.1 3 0 1 .7 2 1.7 1.8.3 0 .4-.4.3-.6l-.3-.4-.4-.7a2 2 0 0 1 .2-1.4c.4-.7 1-1.2 1.5-1.8l1-1c1.6-2 3-4.9 2.6-7.5a4.6 4.6 0 0 0-1.5-3c-.9-.8-2.1-1-3.3-.9-2.1.3-4.3 1.6-5 3.7-.5 2 .5 4.5 2.7 5 .2 0 .3-.4 0-.5Zm2.9 13.8a1 1 0 0 1-.7.7 1 1 0 0 1-1-.5c-.2-.4-.2-.8 0-1.2.3-.6 1.3-.8 1.8-.2a.9.9 0 0 1-.1 1.2Z" clip-rule="evenodd"/><path fill="#1E58A4" d="M99.2 75.5v-.6.6Zm1.8 0v.7h.7v-.7h-.7Zm-6.3 1.1.3.5-.3-.5Zm.1.7v.6-.6Zm0 0 .2.6v-1.2l-.2.6ZM92 78.7l-.4-.5.4.5ZM88 85h-.5.6Zm7 12.8-.3.6.2-.6Zm13-.9-.2-.6h-.1v.1l.3.5Zm3 1.3-.5.3.6-.3Zm.4.7.6-.3-.6.3Zm0 0-.5.3.5-.3Zm2 2.5.4-.6-.3.6Zm1.2-.5.6.2-.6-.2Zm1-4.8v-.7h-.7v.6h.6Zm10 0v-.7.6Zm3.3-.2v-.6.6Zm0 0v.6-.6Zm2 0v.6-.7Zm2.5-.1V95v.7Zm.2 0V95v.6Zm2.1-.6-.3-.5.3.5Zm1-1.6-.6-.2.6.2Zm.7-2.4-.6-.1.6.1Zm0 0h.7-.6Zm1.1-5.1.6.1-.6-.1Zm.6-10-.6.1h.6Zm-.4-5 .6-.1h-.6Zm-.8-4 .5-.2-.5.2Zm-2.2-2.9.4-.5-.4.5Zm-3.9-1v-.6.6Zm-.4 0v-.6.6Zm-21.3.1.1.6v-.6Zm-.8.1v-.6.6Zm-7.6 3.2-.5-.3.5.3Zm-.6 8.9h.6-.6Zm3 .7-.1.6.2-.6Zm-2.2-.5h-.6v.5l.5.1.1-.6Zm9 5.6-.4.4.5-.4Zm2 7.1.6.1h-.6Zm-3.2 7-.4-.4-.8.8 1 .2.2-.6Zm1.6.8.4-.5-.4.5Zm1.4 1.8.5-.3-.5.3Zm.8 1.3-.5.4.8 1 .3-1.3-.6-.1Zm.5-4h.6-.6Zm.8-.7v.6-.6Zm11.1 0v-.7.6Zm5.4-.3v-.6.6Zm.9 0v-.6.6Zm0 0v.6-.6Zm0 0v-.6.6Zm2-.1-.1-.7v.7Zm1-1.3.7.1-.6-.1Zm.1-.2-.6-.2.6.2Zm2.2-18.2h-.6.6ZM137 70l.6-.1h-.6Zm-1-3.4.5-.3-.5.3Zm-3-1.9v-.6.6Zm-4.4-.4v.7-.7Zm-.5 0v.6-.6Zm-19.4.3v.7-.7Zm-.2 0v.7-.6Zm-6.5 3.5.6.2-.6-.2Zm-.3 3.7h-.6.6Zm0 1.6h.7-.6Zm0 0h-.6.7Zm.6 4.2.2-.6-.2.6Zm-3.5-.3v-.7h-.7l.1.8.6-.1Zm9.4 3.5.5-.4-.5.4Zm2.9 5.6h-.6.6Zm-1.5 6.4.5.4-.5-.4Zm-12.3 4.3-.2.6.2-.6Zm-8-9.7h-.7.6Zm2.6-7.1.5.4-.5-.4Zm6.8-2.8v.6-.6ZM82.5 121l-.6-.2-.4 1 1.1-.2-.1-.6Zm.7-3 .6.1h-.6Zm3 2.5-.1-.6v.6Zm1.2 0v-.7.7Zm0 0v-.7.7Zm0 0v-.7.7Zm0 0v.6-.6Zm2.6-.2v.7-.7Zm14-.1v-.6.6Zm7.2.2v-.6.6Zm1.6 0v.7-.7Zm0 0v-.6.6Zm4.7.3v.6l.7.1v-.8l-.7.1Zm-1.4-6.8.6-.2-.6.2Zm-2.4-6 .5-.3-.5.3Zm-4.1-3.6-.3.5.3-.5Zm-5.6-1v-.7.7Zm-10.3 1.4-.2-.6.2.6Zm-8 6-.5-.3.5.3Zm-2 5.3-.6-.2.6.2Zm-1.7 5 .3.5.3-.1v-.4H82Zm.2-2.8h-.6.6Zm-.1 3.4v-.6.6Zm5.3.2v-.6.6Zm1.6 0v-.7.7Zm2.4 0v-.7.6Zm4.7-.1v.6-.6Zm14 .1.1-.6v.6Zm3 .2v-.6.6Zm0 0v.6-.6Zm6-.5-.6-.3-.1.1v.2h.6Zm0-.4h-.6.6Zm-1.3-7-.6.2.6-.2Zm-2.3-6 .6-.4-.5.3Zm-3.8-4.5.4-.5-.4.5Zm-5.7-1.8v-.6.6Zm-11.4 1-.2-.5.2.6Zm-9 5.8.6.4-.5-.4Zm-2.7 6-.6-.2.6.2Zm-.6 3.3.6.1h-.6Zm33.5-46-.6-.3.6.2Zm1.8 4.6-.3.6.3-.6Zm3.5-7.1.2-.6-.2.6Zm2.3 2.1-.6.2.6-.2Zm-.3 3.7-.6-.2.6.2Zm-1.6 3.1-.5-.3.5.3ZM120 80l.4.4-.4-.4Zm0 0-.4-.5.4.5Zm-.8.8-.5-.4.5.4Zm-1.2 3h-.7.7Zm1.7 1.8.2.6-.2-.6Zm.3-.6.5-.3-.5.3Zm-.3-.4.5-.3-.5.3Zm-.4-.7-.6.1.6-.1Zm.2-1.4-.5-.3.5.3Zm1.5-1.8-.4-.4.4.4Zm1-1 .5.3-.5-.4Zm2.6-7.5h-.6.6Zm-1.5-3 .4-.4-.4.4Zm-3.3-.9v.7-.7Zm-5 3.7.7.2-.6-.2Zm2.7 5 .1-.7-.1.6Zm2.3 14 .1.6-.1-.6Zm.7-.7-.4-.4h-.1v.2l.5.2Zm-1.8.2-.5.2.5-.2Zm0-1.2-.5-.3.6.3Zm2-.2.4-.4-.5.4Zm-.1 1.1.5.5-.5-.5Zm-21.4-14h1.7l.2-1.2-1.9-.1V76Zm-4.2 1c1.2-.9 2.7-1 4.3-1v-1.3c-1.7 0-3.5.2-5 1.2l.7 1Zm0-.5.1.1v.2l-.1.1-.7-1a1 1 0 0 0-.4 1.1c.1.4.4.7.9.7l.1-1.2Zm0 0h-.1l-.1 1.2.1-1.2Zm-2.7 2.5c.8-.6 1.8-1 2.7-1.3l-.3-1.2c-1.1.3-2.2.8-3.2 1.5l.8 1Zm-3.7 6a9.4 9.4 0 0 1 3.7-6l-.8-1c-2.1 1.6-3.7 4-4.1 6.7l1.2.2Zm6.5 12a11.4 11.4 0 0 1-6.5-12l-1.2-.3c-1 5.7 2.1 11 7.2 13.5l.5-1.1Zm12.4-.8a12.7 12.7 0 0 1-12.4.9l-.5 1.1a14 14 0 0 0 13.6-1l-.7-1Zm4 1.5-.7-.7a5 5 0 0 0-.9-.6c-.6-.3-1.5-.6-2.2-.3l.4 1.2c.3-.1.7 0 1.3.2l.7.5.3.3 1-.6Zm.4.6-.4-.6-1 .6.3.7 1-.7Zm0 0-1.1.7 1-.6Zm1.8 2.3a6.4 6.4 0 0 1-1.8-2.3l-1.1.7a8 8 0 0 0 2.2 2.7l.7-1Zm.2-.1v.1h-.1l-.8 1c.5.4 1 .4 1.3.2.4-.2.7-.5.8-1l-1.2-.3Zm1-4.7c-.2 1.6-.4 3.2-1 4.7l1.2.4a18 18 0 0 0 1-5h-1.3Zm10.6-.6h-10v1.3h10v-1.3Zm3.2-.1h-3.1v1.3h3.2v-1.3Zm0 0v1.2-1.2Zm0 0v1.2-1.2Zm2.2 0h-2.2v1.2h2.2v-1.3Zm2.4-.2-2.4.1v1.3l2.5-.1-.1-1.3Zm.1 0v1.3V95Zm1.9-.4c-.5.4-1 .4-1.9.4v1.3c.8 0 1.8 0 2.6-.7l-.7-1Zm.7-1.3c-.2.6-.4 1-.7 1.3l.7 1c.7-.5 1-1.2 1.2-1.9l-1.2-.4Zm.7-2.3-.7 2.3 1.2.4.7-2.4-1.2-.3Zm0-.1 1.2.4v-.1l-1.1-.3Zm1.1-5-1 5 1.2.3a46 46 0 0 0 1-5.1l-1.2-.2Zm.6-9.8c.1 3.3 0 6.6-.6 9.8l1.2.2c.6-3.3.8-6.7.7-10h-1.3Zm-.4-5c.2 1.6.4 3.3.4 5h1.3a52 52 0 0 0-.5-5.2l-1.2.2Zm-.8-3.8c.4 1.1.6 2.4.8 3.8l1.2-.2c-.1-1.3-.4-2.7-.9-4l-1.1.4Zm-2-2.6c1 .6 1.6 1.5 2 2.6l1.1-.5a6.8 6.8 0 0 0-2.3-3.2l-.7 1Zm-3.5-1c1.4.2 2.6.3 3.6 1l.7-1c-1.3-1-2.9-1-4.2-1.2l-.1 1.3Zm-.5 0h.5v-1.2h-.4v1.2Zm-21.1.1c7-.7 14-.7 21.1 0l.1-1.3c-7-.7-14.2-.6-21.3.1l.1 1.2Zm-.9.1h.9l-.1-1.3h-.9l.1 1.3Zm-7 3a4.8 4.8 0 0 1 2.9-2.3c1.3-.4 2.7-.5 4.1-.7v-1.2c-1.4.1-3 .3-4.5.7a6 6 0 0 0-3.6 2.8l1 .6Zm-.8 3.8a8 8 0 0 1 .8-3.9l-1.1-.6a9 9 0 0 0-1 4.5h1.3Zm.2 4.6-.2-4.6h-1.2c0 1.6 0 3.2.2 4.7h1.2Zm0 .1h-1.2v.1h1.2Zm2.7.1-2.4-.5-.2 1.2 2.2.5.4-1.2Zm7.1 5.4a13.8 13.8 0 0 0-7.1-5.4l-.4 1.2c2.6.9 4.9 2.6 6.5 4.9l1-.7Zm2 7.5c.3-2.7-.5-5.3-2-7.5l-1 .7c1.3 2 2 4.3 1.8 6.7l1.2.1Zm-3.3 7.4c1.9-2 3-4.6 3.3-7.4l-1.2-.1c-.2 2.5-1.3 4.8-3 6.6l.9.9Zm1.5-.2a5 5 0 0 0-1.8-.9l-.3 1.2 1.3.6.8-1Zm1.5 2c-.3-.7-.8-1.4-1.5-2l-.8 1c.5.4.9 1 1.2 1.6l1.1-.6Zm.8 1.2-.8-1.2-1 .6.8 1.4 1-.8Zm-.6-3.6c0 1.3-.2 2.6-.5 3.8l1.2.3c.3-1.3.5-2.7.5-4h-1.2Zm1.4-1.4c-.8 0-1.4.7-1.4 1.4h1.2l.1-.1v-1.3Zm11 0h-11v1.3h11.1v-1.3Zm5.5-.2-5.4.2v1.3l5.5-.2-.1-1.3Zm.9 0h-.9V95h1l-.1-1.3Zm0 0v1.2-1.2Zm0 0v1.2-1.2Zm1.9-.2-2 .2.1 1.2 2-.1-.1-1.3Zm.6-.8-.3.7-.3.1.1 1.3c.6 0 1-.3 1.2-.7.3-.3.4-.8.5-1l-1.2-.4Zm0-.2v.2l1.2.3-1.2-.4Zm2.2-18a52 52 0 0 1-2.2 18l1.2.4c1.8-6 2.6-12.2 2.2-18.4h-1.2Zm-.4-4.4.4 4.4h1.2c0-1.5-.2-3-.4-4.6l-1.2.2Zm-1-3.1c.5.9.8 2 1 3l1.2-.1c-.2-1.2-.5-2.4-1.1-3.6l-1 .7Zm-2.6-1.7c1.2.2 2 .7 2.6 1.7l1.1-.7c-.8-1.3-2-2-3.5-2.2l-.2 1.2Zm-4.3-.3c1.5 0 3 .1 4.4.3l.1-1.2-4.4-.4V65Zm-.4 0h.4l.1-1.3h-.4l-.1 1.2Zm-19.3.3c6.4-.6 12.9-.8 19.3-.4v-1.2c-6.4-.5-13-.3-19.5.3l.2 1.3Zm-.3 0h.3l-.2-1.3h-.2l.1 1.3Zm-5.9 3a3.4 3.4 0 0 1 2.2-2.3c1.1-.5 2.4-.6 3.7-.7V64c-1.4.2-2.8.3-4.1.8a4.6 4.6 0 0 0-3 3l1.2.5Zm-.3 3.5c0-1.3 0-2.4.3-3.5l-1.2-.4c-.4 1.3-.3 2.7-.3 4l1.2-.1Zm0 1.6v-1.6h-1.2v1.6h1.3Zm0 0h-1.2 1.3Zm0 0h-1.2 1.3Zm.1 2.3v-2.3H101v2.3h1.3Zm0 1.3c-1.2-.3-2.4-.3-3.6-.4V78c1.2 0 2.3 0 3.4.3l.3-1.2Zm6.3 3.4a12.5 12.5 0 0 0-6.2-3.4l-.3 1.2c2.1.5 4 1.5 5.6 3l.9-.8Zm3 5.9c-.3-2.3-1.5-4.3-3-5.9l-1 .9a9.5 9.5 0 0 1 2.8 5.2l1.2-.2Zm-1.6 6.9c1.3-2 2-4.5 1.6-6.9l-1.2.2c.3 2-.3 4.2-1.4 6l1 .7Zm-13 4.5c4.7 1.3 10.2-.2 13-4.5l-1-.7a10.5 10.5 0 0 1-11.6 4l-.4 1.2Zm-8.5-10.3c.2 5 4 9 8.5 10.3l.4-1.2a10.2 10.2 0 0 1-7.6-9.1h-1.3Zm2.9-7.5c-2 2-3 4.8-2.9 7.5H90c-.2-2.5.7-5 2.5-6.7l-1-.8Zm7.2-3c-2.6 0-5.4 1.1-7.2 3l.9.8c1.6-1.5 4-2.6 6.3-2.6V77Zm-.5.5V77l.4-.2.1 1.2c.3 0 .5-.1.6-.3l.2-.6-1.3.2ZM83.1 121l.7-3-1.2-.3-.7 2.9 1.2.4Zm3-1.3c-1.3 0-2.5.2-3.8.5l.3 1.2c1.1-.3 2.3-.4 3.5-.4v-1.3Zm1.3 0H86v1.3l1.3-.1v-1.3Zm0 0v1.2-1.3Zm0 0v1.2-1.3Zm0 0v1.2-1.3Zm2.6-.2-2.6.1v1.3l2.6-.1v-1.3Zm14-.1c-4.6-.1-9.3 0-14 .1v1.3c4.7-.2 9.4-.3 14-.2v-1.2Zm7.2.2c-2.4-.2-4.7-.2-7.1-.2v1.2l7 .2.1-1.3Zm1.6 0h-1.6v1.2h1.6v-1.2Zm0 0v1.3-1.3Zm0 0v1.3-1.3Zm0 0v1.3-1.3Zm0 0v1.3-1.3Zm4.8.3-4.8-.3v1.3c1.5 0 3 0 4.6.2l.2-1.2Zm-2.1-6c.6 2.2 1 4.4 1.4 6.7l1.2-.2c-.3-2.3-.8-4.6-1.4-6.9l-1.2.4ZM113 108c1.1 1.8 1.8 3.8 2.4 5.9l1.2-.4c-.6-2-1.3-4.2-2.5-6.1l-1 .6Zm-3.8-3.4c1.7.7 3 1.9 3.8 3.4l1.1-.6a10 10 0 0 0-4.4-4l-.5 1.2Zm-5.3-1c1.8.1 3.7.3 5.3 1l.5-1.1c-1.9-.8-3.9-1-5.8-1v1.2Zm-10.1 1.5c3.2-1.1 6.6-1.5 10-1.4v-1.3c-3.4 0-7 .3-10.4 1.5l.4 1.2Zm-7.6 5.8c1.7-2.8 4.5-4.7 7.6-5.8l-.4-1.2a15.5 15.5 0 0 0-8.3 6.3l1 .7Zm-2 5c.4-1.7 1-3.5 2-5l-1.1-.7a21 21 0 0 0-2.1 5.4l1.2.4Zm-.5 2 .5-2-1.3-.3-.4 2.1 1.2.3Zm-1.2 3 .2-2.7-1.2-.2c-.1 1-.3 2-.2 3h1.2Zm-.4 0a.4.4 0 0 1 .2.3v.2l-.8-1a1 1 0 0 0-.4 1c0 .2.3.7.8.7l.2-1.2Zm5.2.2c-1.8 0-3.6.1-5.2-.2l-.3 1.2c1.9.4 3.8.3 5.5.2v-1.2Zm1.6 0h-1.6v1.2H89V121Zm2.4-.1H89v1.3h2.4V121Zm4.7 0h-4.7v1.3l4.7-.1V121Zm14.1.1c-4.7-.2-9.4-.2-14-.2v1.3c4.6 0 9.3 0 14 .2v-1.3Zm3 .2-3-.2v1.3l2.8.1.1-1.2Zm0 0-.2 1.2.1-1.2Zm5.1.1a94 94 0 0 1-5.2-.1v1.2l5.2.2v-1.3Zm0 0v1.3c.4 0 .8-.2 1-.4.3-.3.3-.6.3-1h-1.2Zm.2-.3 1 .6c.2-.2.2-.5.2-.7h-1.2Zm-1.3-7a54 54 0 0 1 1.3 7l1.2-.1a42 42 0 0 0-1.3-7.2l-1.2.4Zm-2.2-5.9c1 1.9 1.6 3.9 2.2 6l1.2-.4a39 39 0 0 0-2.3-6.2l-1.1.6Zm-3.6-4.2c1.5 1 2.7 2.5 3.6 4.2l1.1-.6c-1-1.8-2.3-3.5-4-4.6l-.7 1Zm-5.5-1.7c2 .2 3.9.7 5.5 1.7l.7-1c-1.9-1.2-4-1.7-6-2l-.2 1.3Zm-11.1 1a32 32 0 0 1 11.1-1l.2-1.2c-3.9-.4-8 0-11.7 1l.4 1.3Zm-8.6 5.6a16 16 0 0 1 8.6-5.5l-.4-1.2c-3.5 1-6.9 2.9-9.2 6l1 .7Zm-2.7 5.7c.5-2 1.4-4 2.7-5.7l-1-.8c-1.4 1.9-2.3 4-2.9 6.2l1.2.3ZM83 118l.6-3.3-1.2-.3-.7 3.4 1.3.2Zm0 .3v-.3l-1.3-.2v.3l1.2.2Zm32.3-46.7c-1 2 0 4.7 2.1 5.5l.5-1.2c-1.4-.5-2-2.4-1.4-3.8l-1.2-.5Zm6-2.8c-2.2-.5-5 .6-6 2.8l1.2.5c.7-1.6 2.8-2.4 4.6-2l.3-1.3Zm2.8 2.5a3.6 3.6 0 0 0-2.7-2.5L121 70c.9.2 1.5.8 1.8 1.7l1.2-.4Zm-.3 4.1c.4-1.2.7-2.7.3-4l-1.2.3c.3 1 .1 2.2-.3 3.3l1.2.4Zm-1.7 3.3c.7-1 1.3-2.1 1.7-3.3l-1.2-.4c-.3 1-.9 2-1.5 3l1 .7Zm-1.5 1.7 1.5-1.7-1-.7-1.4 1.5.9 1Zm0 0-1-.9 1 1Zm-.9.9.9-.9-1-.9-.8 1 1 .8Zm-1 2.4c-.1-.8.3-1.7 1-2.4l-1-.9c-.7 1-1.4 2-1.3 3.5l1.3-.2Zm1 1.3c-.3 0-.4 0-.6-.3a2 2 0 0 1-.4-1l-1.3.2c.1.5.3 1.1.7 1.6.4.5 1 .9 1.9.7l-.3-1.2Zm-.2.3v-.1s0-.2.2-.2l.3 1.2c.4 0 .6-.3.7-.6a1 1 0 0 0 0-1l-1.2.7Zm-.2-.3.2.3 1.1-.6c0-.2-.2-.3-.3-.4l-1 .7Zm-.5-1c.1.5.4.8.5 1l1-.7-.3-.6-1.2.3Zm.3-1.8c-.3.6-.4 1.2-.3 1.8l1.2-.3c0-.3 0-.6.2-1l-1.1-.5Zm1.6-2c-.6.6-1.2 1.2-1.6 2l1 .6c.4-.6.9-1 1.5-1.6l-1-1Zm1-1-1 1 .9 1 1-1.2-1-.8Zm2.4-7c.3 2.4-1 5-2.5 7l1 .8c1.7-2 3.1-5 2.8-8l-1.3.2Zm-1.3-2.5a4 4 0 0 1 1.3 2.5l1.3-.1a5.2 5.2 0 0 0-1.8-3.3l-.8.9Zm-2.9-.7c1.1-.2 2.2 0 3 .7l.7-1a5 5 0 0 0-3.8-1l.1 1.3Zm-4.3 3.2c.5-1.8 2.4-3 4.3-3.2l-.1-1.3c-2.3.3-4.7 1.7-5.4 4.1l1.2.4Zm2 4.1c-.8-.2-1.4-.7-1.8-1.5-.4-.8-.5-1.8-.2-2.6l-1.2-.4a5 5 0 0 0 .3 3.5 4 4 0 0 0 2.7 2.2l.3-1.2Zm-.2.8-.2-.2v-.3a.4.4 0 0 1 .5-.3l-.3 1.2h.7l.3-.5c.1-.4 0-.9-.5-1l-.5 1.1Zm2.6 14.5c.5-.1 1-.5 1.2-1l-1.2-.5-.3.3.3 1.2Zm-1.7-.9c.3.6 1 1 1.7.9l-.3-1.2s-.2 0-.3-.2l-1.1.5Zm0-1.7c-.3.5-.3 1.2 0 1.7l1.1-.5v-.5l-1-.7Zm2.9-.3c-.4-.5-1-.6-1.6-.5-.5 0-1 .3-1.3.8l1.1.7c.1-.2.3-.3.4-.3l.4.1 1-.8Zm0 2c.5-.6.5-1.4 0-2l-1 .8v.3l1 .9Zm-.2.1.2-.1-1-.9.8 1Z"/><path stroke="#B39865" stroke-linecap="round" stroke-width="3.2" d="M166.3 106.3h9.4"/></svg>