<svg xmlns="http://www.w3.org/2000/svg" width="215" height="185" fill="none"><path stroke="#B39865" stroke-linecap="round" stroke-width="2.5" d="M63 178h79" opacity=".5"/><path stroke="#B39865" stroke-linecap="round" stroke-width="2.5" d="M40 172.5h130"/><path stroke="#B39865" stroke-linecap="round" stroke-linejoin="round" stroke-width="2.5" d="M68 64.5 64 72a93 93 0 0 0-11.5 2c-.5.5-5 9.5-6 13.5s-2 8 0 9S56 93 60 91.5A72 72 0 0 1 73 89c1.3-1.5 3.6-5.3 2-8.5a8.8 8.8 0 0 0-6.5-4.5l-6 6L51 87.5M82.5 69a10 10 0 0 1 6.5.5c3.2 1.2 4.3 2.2 4.5 2.5l13.5-2.5 5.5-.5 3.5-5h7c.3 1 1 3.4 2.2 5 1.2 1.6 2.1 2 2.3 2l-1.4 6.4-10.6-2.9-7 1.5c-1.7.7-6.1 2.1-10.5 2.5-4.4.4-8.8.5-10.5.5l-7 4L78 96.5l-1.5 7.5 5 24-1 1-1.5 1 .5 5.5-3 11c-1.7 5.7-4 17.6 0 20 5.6.4 8 4.2 8.5 6M51 103c2.2.8 7.8 2.6 13 3 5.2.4 10.2-.2 12-.5"/><path stroke="#B39865" stroke-linecap="round" stroke-linejoin="round" stroke-width="2.5" d="m52 95.5-1 7.5-4 9-1.5 13.5c1.5.8 5.3 2.5 8.5 2.5s4.7-.3 5-.5l1.5-7 3 .5v7.5a36.9 36.9 0 0 0 16 1"/><path stroke="#B39865" stroke-linecap="round" stroke-linejoin="round" stroke-width="2.5" d="M46.5 126.5v8l-1 7 9 1.5 2.5-8 1-7"/><path stroke="#B39865" stroke-linecap="round" stroke-linejoin="round" stroke-width="2.5" d="M45.5 141.5V152l-2 13.5 4 7H53l2-2.5a28 28 0 0 1-4-15.5c.8-5.6 2.7-10.3 3.5-12m15-12.5 1.5 8-3 7.5h8.5m-8.5.5-2.5 26.5"/><path stroke="#B39865" stroke-width="2.5" d="M84.8 62.5c0 5.2-3.9 9.3-8.3 9.3s-8.3-4-8.3-9.3c0-5.2 3.9-9.3 8.3-9.3s8.3 4 8.3 9.3Z"/><path stroke="#B39865" stroke-linejoin="round" stroke-width="2.5" d="M68.5 61.5c.3-.3 1.2-1 2-1s1.7.7 2 1l3-4c.5.5 2 1.4 4 1l4-1"/><path stroke="#B39865" stroke-linecap="round" stroke-linejoin="round" stroke-width="2.5" d="M127 50c-7.2 3.2-5.7 10.7-4 14 1.5 3 1 4.6 5 7 4 2.4 7.8.2 9.5-1.5l1-4c.7-.5 2.6-1.5 3-3.5.4-2-.5-3.5-1-4l-1.5-3.5c-1-2.8-4.8-7.7-12-4.5Z"/><path stroke="#B39865" stroke-linecap="round" stroke-linejoin="round" stroke-width="2.5" d="M123.5 64c.5 0 1.7-.3 2.5-1.5a27 27 0 0 0 1.5-2.5l3.5 2 .7-4.7c.7 1.4 2.7 4.4 4.3 3.2 1.6-1.2 2.8-3.2 3.5-4m-8 16V78c-1 .3-3 2-3.4 3.5l-.6 3C126 85.8 123 89 123 91v3l-9 5-5.5-1.5c-4-1-13.5 2-9.5 9 3.2 5.7 11.5 4 12.5 0l5.5-3.5 15-5 1-4.5a6.2 6.2 0 0 0 5-5c.8-3.6.3-5.2 0-5.5m-2-7-4.4 2m7.3-12.8a61 61 0 0 0 6.4 9.8c2 2.2 3.7 4.8 5 7.5 1 2.7 4 14.7 4 14.7m-21.1 7.4h24l1.4 3.2-2.2 18.4-3.5-.4a18 18 0 0 1-5.4-1.7l-2.3 4.2-12-3.6-1.7-5-4 2.8-4.2-.4 4.3-9.2c1-2.2 4.1-6.5 5.6-8.3Zm19.2.2-4.7 18.7m-16-25 1.4 5.8m21.2-7.3 2.8 7.3"/><path stroke="#B39865" stroke-linecap="round" stroke-linejoin="round" stroke-width="2.5" d="m125.3 122.3-2.1 6.1 1.4 25.8v6.7a38.4 38.4 0 0 1-7.1 6.6c-1.7.7-4.4 2.3-5.6 3v1.7m23.8-46.6-2.3 4.4-1.7 24 1.4 18m-8.4-17.9h6.8m12.4-25.9-2.3 7.8 18.2 28-4.5 5.4-.6 2.6h6.1l8.8-6-5.5-10.1-5.8-8.4-7.4-15.5 2.2-6.1m3.9 33.2 6.7-3.3"/><path stroke="#B39865" stroke-linecap="round" stroke-linejoin="round" stroke-width="2.5" d="M95.6 64.2s6-.3 9-1.3c2.7-.7 6.3-2.7 6.3-2.7m36.7-2.1c1.3-.4 4-1.4 4.7-1.5l4.7-.8m-9.4 8.4 3.7 1.4M139 45c.7-1.1 2.4-3.4 2.9-4.6.4-1 1-3.6 1.2-4.7M89.4 84c1.2.1 4.1.4 6.5.4 2.3 0 4.5-.3 5.2-.4m5.4-1.2 2.3-.9" opacity=".5"/><path stroke="#B39865" stroke-linecap="round" stroke-width="2.5" d="m56 85.4 2.5 5.8m4.1-8.8 1.8 7.4m50.2 9.2 2 3.6M106.8 70l2 5.4M113 69l2.5 5" opacity=".8"/><path stroke="#1E58A4" stroke-linecap="round" stroke-linejoin="round" stroke-width="2.5" d="M148.9 41.2a27.3 27.3 0 0 0 7.5 7.2m-9.7-4.6a188.4 188.4 0 0 0 7 6.5m-7.4-3.5c1.4 1.1 4.2 3.6 4.3 4.1"/><g filter="url(#a)"><path fill="#F8FAB5" d="M151.5 39s2 2.2 3.6 3.6a8.9 8.9 0 0 0 3.4 1.6v1c.5-.4 1.8-1.5 4-1.5 3 0 8.2-1.9 10.7-6.7 2.6-4.8-.3-14.2-9.5-14.6-9.1-.5-10.9 11.5-11 13.3a5 5 0 0 1-1.2 3.2Z"/><path stroke="#1E58A4" stroke-linecap="round" stroke-linejoin="round" stroke-width="2.5" d="M151.5 39s2 2.2 3.6 3.6a8.9 8.9 0 0 0 3.4 1.6v1c.5-.4 1.8-1.5 4-1.5 3 0 8.2-1.9 10.7-6.7 2.6-4.8-.3-14.2-9.5-14.6-9.1-.5-10.9 11.5-11 13.3a5 5 0 0 1-1.2 3.2Z"/></g><path stroke="#1E58A4" stroke-linecap="round" stroke-linejoin="round" stroke-width="2.5" d="m154.2 41.3 3.4-6.8 5 4.2-7 4m2.7-27.9L156.6 9m11.9 5.1c.2-.4 1.7-7.7 2.1-10.2.2-.3-.3.6-2.2 1.6m9.4 13.4c2-2.3 6.3-7 7-7.6.6-.5 1.2-.8 1.5-.8M181.4 27a234.1 234.1 0 0 1 10-2m-10.7 10.9a37.2 37.2 0 0 1 8.8 1"/><defs><filter id="a" width="45.1" height="45.4" x="140.3" y="11.1" color-interpolation-filters="sRGB" filterUnits="userSpaceOnUse"><feFlood flood-opacity="0" result="BackgroundImageFix"/><feColorMatrix in="SourceAlpha" result="hardAlpha" values="0 0 0 0 0 0 0 0 0 0 0 0 0 0 0 0 0 0 127 0"/><feOffset/><feGaussianBlur stdDeviation="5"/><feComposite in2="hardAlpha" operator="out"/><feColorMatrix values="0 0 0 0 0.972549 0 0 0 0 0.980392 0 0 0 0 0.709804 0 0 0 1 0"/><feBlend in2="BackgroundImageFix" result="effect1_dropShadow_1229_1680"/><feBlend in="SourceGraphic" in2="effect1_dropShadow_1229_1680" result="shape"/></filter></defs></svg>