<svg xmlns="http://www.w3.org/2000/svg" width="18" height="18" fill="none">
  <g clip-path="url(#a)">
    <path fill="#0A66C2" fill-rule="evenodd" d="M.44 2.18C0 3.04 0 4.16 0 6.4v5.2c0 2.24 0 3.36.44 4.22a4 4 0 0 0 1.74 1.74c.86.44 1.98.44 4.22.44h5.2c2.24 0 3.36 0 4.22-.44a4 4 0 0 0 1.74-1.74c.44-.86.44-1.98.44-4.22V6.4c0-2.24 0-3.36-.44-4.22A4 4 0 0 0 15.82.44C14.96 0 13.84 0 11.6 0H6.4C4.16 0 3.04 0 2.18.44A4 4 0 0 0 .44 2.18ZM3.4 3.63c-.27.25-.41.57-.41.95 0 .39.13.7.4.96.26.26.6.39 1.02.39h.02c.44 0 .8-.13 1.06-.39.26-.24.4-.55.4-.92 0-.41-.14-.74-.41-1-.26-.25-.6-.37-1.03-.37-.43 0-.78.13-1.05.38Zm-.26 3.35v7.74h2.57V6.98H3.15Zm6.57 7.74H7.15a876.16 876.16 0 0 0 0-7.74h2.57v1.1l-.01.02v-.02a2.63 2.63 0 0 1 2.34-1.29c.88 0 1.6.3 2.14.89.54.6.81 1.46.81 2.6v4.44h-2.57v-4.14c0-1.16-.43-1.75-1.3-1.75-.33 0-.6.1-.83.28-.22.18-.38.4-.49.66-.06.15-.1.36-.1.63v4.32Z" clip-rule="evenodd"/>
  </g>
  <defs>
    <clipPath id="a">
      <path fill="#fff" d="M0 0h18v18H0z"/>
    </clipPath>
  </defs>
</svg>
