<svg xmlns="http://www.w3.org/2000/svg" width="101" height="60" fill="none">
  <path fill="#D9004E" stroke="#fff" stroke-width="2" d="M13 39c1.6 2.9 4 3.6 6.7 3.3 2.3-.2 4.8-.8 7-1.7a54 54 0 0 0 13-7.2l-1.5-3C36.7 27.6 35 25 33.8 22c-2-5-1.1-10 2-14.9 3.1-4.8 8.4-6.7 13.7-4.5 8.6 3.5 11.4 10.8 9.1 18.6-.7 2.3-1.9 4.5-3 6.6-1 1.7-2.4 3.3-3.8 5.3 1 .7 1.7 1.5 2.7 1.8 2.3.6 4.7 1.3 7 1.2 13-1 23.7-6.4 31.2-17.8 1.6-2.5 3-5.2 3-8.4 0-.5 1-1.3 1.6-1.6 1.1-.4 2.2.3 2.3 1.2.3 1.7.4 3.6 0 5.3-1.4 7-5.4 12.7-10.9 17.2-5.6 4.6-12 7.7-19 9.5a28 28 0 0 1-20.9-2l-3-1.4c-7.7 4.4-15.3 9.6-25 11.4l2.8 4c.7 1 .6 2.3-.1 3.4-.7 1-2.6 1.5-3.8.8a18 18 0 0 1-3.4-2.3L3.2 43.8 2 42.5c-1.3-1.8-1-4 .8-5.3l17-10.8c.6-.3 1.3-.7 1.8-.7.9.1 2 .3 2.5 1 .4.3.4 1.6 0 2.1-.8 1.4-1.8 2.7-3 3.8-1.7 1.5-3.6 2.7-5.4 4l-2.6 2.5Zm32.6-10.6c4-3 6-6 6.8-9.5 1-4.6-1.1-8.7-5.5-10.4-2.3-.8-4.3-.2-5.8 1.9a9.5 9.5 0 0 0-1.5 9c1.1 3.5 3 6.3 6 9Z"/>
</svg>
